<svg xmlns="http://www.w3.org/2000/svg" xmlns:xlink="http://www.w3.org/1999/xlink" xmlns:inkscape="http://www.inkscape.org/namespaces/inkscape" version="1.1" width="595.32" height="841.92" viewBox="0 0 595.32 841.92">
<defs>
<path id="font_0_20" d="M.1171875 .59716799 .2783203 .67578127H.2944336V.11669922C.2944336 .079589847 .29597984 .056477865 .29907228 .04736328 .3021647 .0382487 .30859376 .03125 .31835938 .026367188 .328125 .021484375 .34798179 .018717448 .3779297 .018066407V0H.12890625V.018066407C.16015625 .018717448 .18033855 .021402995 .18945313 .026123047 .1985677 .0308431 .20491536 .037190755 .2084961 .045166017 .21207683 .053141279 .21386719 .07698568 .21386719 .11669922V.4741211C.21386719 .52229818 .21223958 .55322268 .20898438 .56689456 .20670574 .5773112 .20255535 .58496096 .1965332 .58984377 .19051107 .59472659 .18326824 .59716799 .17480469 .59716799 .16276042 .59716799 .1459961 .5921224 .12451172 .58203127L.1171875 .59716799Z"/>
<path id="font_0_3" d="M0 0Z"/>
<path id="font_1_3" d="M0 0Z"/>
<path id="font_1_61" d="M.61035159 .6621094 .2211914 .037109376H.34716798C.40673829 .037109376 .44840495 .040852865 .47216798 .048339845 .51090499 .060058595 .5442708 .08162435 .5722656 .11303711 .60026046 .14444988 .6196289 .18652344 .6303711 .23925781H.64941409L.6225586 0H.016113282L.40576173 .62597659H.3076172C.26953126 .62597659 .24446614 .6248372 .23242188 .6225586 .20963542 .61832687 .18823242 .60994467 .16821289 .5974121 .14819336 .5848796 .1315918 .5681966 .1184082 .5473633 .10522461 .52652999 .09488932 .5001628 .087402347 .46826173H.06933594L.087402347 .6621094H.61035159Z"/>
<path id="font_1_43" d="M.2734375 .31835938V.11328125C.2734375 .07925415 .27530924 .0579834 .27905274 .049468996 .28279624 .040964765 .29012046 .03352356 .3010254 .027145386 .31193034 .020767212 .32666017 .017578125 .34521485 .017578125H.3671875V0H.020996094V.017578125H.04296875C.06217448 .017578125 .07763672 .021011353 .08935547 .027877808 .09781901 .032465619 .10432943 .040318807 .10888672 .051437379 .112467449 .05929057 .11425781 .07990519 .11425781 .11328125V.5488281C.11425781 .5828552 .112467449 .6041209 .10888672 .6126251 .10530599 .6211395 .09806315 .6285858 .0871582 .634964 .07625326 .64134219 .061523439 .64453127 .04296875 .64453127H.020996094V.6621094H.3671875V.64453127H.34521485C.32600913 .64453127 .31054688 .641098 .29882813 .63423159 .2903646 .62964376 .2836914 .6217906 .2788086 .610672 .27522788 .6028188 .2734375 .58220419 .2734375 .5488281V.36132813H.5073242V.5488281C.5073242 .5828552 .5055339 .6041209 .5019531 .6126251 .4983724 .6211395 .4910482 .6285858 .47998048 .634964 .46891276 .64134219 .45410157 .64453127 .43554688 .64453127H.4140625V.6621094H.7597656V.64453127H.73828127C.71875 .64453127 .7032878 .641098 .69189456 .63423159 .68343099 .62964376 .6767578 .6217906 .671875 .610672 .66829428 .6028188 .6665039 .58220419 .6665039 .5488281V.11328125C.6665039 .07925415 .66829428 .0579834 .671875 .049468996 .67545577 .040964765 .68277999 .03352356 .69384768 .027145386 .70491537 .020767212 .71972659 .017578125 .73828127 .017578125H.7597656V0H.4140625V.017578125H.43554688C.45507813 .017578125 .47054038 .021011353 .4819336 .027877808 .49039714 .032465619 .4970703 .040318807 .5019531 .051437379 .5055339 .05929057 .5073242 .07990519 .5073242 .11328125V.31835938H.2734375Z"/>
<path id="font_1_56" d="M.0234375 .6621094H.36523438V.64453127H.34814454C.32242839 .64453127 .3047689 .64183047 .29516603 .63642886 .28556315 .6310374 .2787272 .6235962 .2746582 .6141052 .2705892 .60462448 .2685547 .5809123 .2685547 .54296877V.21937561C.2685547 .16024272 .2730306 .12108866 .28198243 .10191345 .29093424 .08274841 .30566407 .06682841 .32617188 .054153444 .3466797 .041488649 .3725586 .03515625 .4038086 .03515625 .43961589 .03515625 .47013346 .04319763 .49536134 .059280397 .5205892 .07536316 .5394694 .09753418 .55200198 .12579346 .5645345 .15406291 .5708008 .20328777 .5708008 .27346803V.54296877C.5708008 .5727336 .5677083 .59399417 .56152346 .6067505 .55533859 .61950686 .54752609 .6283366 .53808596 .63323977 .5234375 .6407674 .5027669 .64453127 .47607423 .64453127V.6621094H.7050781V.64453127H.69140627C.67285159 .64453127 .65738937 .6407674 .64501956 .63323977 .6326497 .6257222 .62369796 .6144409 .61816409 .59939578 .6139323 .5889282 .6118164 .5701192 .6118164 .54296877V.2919464C.6118164 .21427918 .60668948 .15822347 .59643557 .1237793 .58618167 .08933512 .56119796 .05765279 .5214844 .0287323 .48177085-.00018819173 .42757163-.0146484379 .35888673-.0146484379 .30159507-.0146484379 .25732423-.0070139567 .22607422 .008255005 .18343099 .029057822 .15332031 .055704755 .13574219 .0881958 .11816406 .12069702 .109375 .16440328 .109375 .21931458V.54296877C.109375 .5812378 .10725912 .6050313 .103027347 .61434939 .09879557 .62367758 .09147135 .6311188 .08105469 .636673 .07063802 .64223739 .051432294 .64485678 .0234375 .64453127V.6621094Z"/>
<path id="font_1_36" d="M.41601563 .18945313H.1821289L.15429688 .124679569C.1451823 .10296122 .140625 .08502706 .140625 .070877078 .140625 .05212911 .14811199 .038309736 .16308594 .029418946 .171875 .02415975 .19352214 .020212809 .22802735 .017578125V0H.0078125V.017578125C.03157552 .021189372 .05110677 .03112793 .06640625 .0473938 .08170573 .06366984 .10058594 .09727987 .123046878 .14822388L.35986329 .6767578H.36914063L.60791018 .13349915C.6306966 .08153788 .64941409 .04881795 .6640625 .035339357 .6751302 .025146485 .6907552 .019226075 .7109375 .017578125V0H.390625V.017578125H.4038086C.42952476 .017578125 .44759117 .021219889 .4580078 .028503418 .46516929 .033793134 .46875 .04140727 .46875 .051345827 .46875 .057296754 .46777345 .063420619 .4658203 .06971741 .46516929 .07268778 .46028648 .08509827 .45117188 .10694885L.41601563 .18945313M.39941407 .22558594 .30078126 .45388795 .19921875 .22558594H.39941407Z"/>
<path id="font_1_49" d="M.24902344 .6621094 .5756836 .25228883V.5361328C.5756836 .5760295 .569987 .603007 .55859377 .6170654 .54296877 .63602706 .51676437 .6451823 .47998048 .64453127V.6621094H.69873049V.64453127C.67073568 .6409302 .6519368 .63626608 .642334 .63053897 .63273116 .62482199 .62524417 .61550399 .61987307 .60258486 .61450198 .5896759 .6118164 .5675252 .6118164 .5361328V-.0146484379H.59521487L.14746094 .53700259V.115234378C.14746094 .07695516 .15616863 .05110677 .17358399 .03768921 .19099935 .02428182 .2109375 .017578125 .23339844 .017578125H.24902344V0H.014160156V.017578125C.05061849 .017903647 .07600912 .02542623 .09033203 .040145875 .104654949 .05487569 .111816409 .07990519 .111816409 .115234378V.5825958L.09765625 .60009768C.08365885 .6178691 .07128906 .6295522 .060546876 .6351471 .049804689 .640742 .03434245 .64387008 .014160156 .64453127V.6621094H.24902344Z"/>
<path id="font_1_41" d="M.27490235 .62402346V.35253907H.2939453C.3232422 .35253907 .34716798 .35694886 .36572267 .36576844 .38427735 .374588 .39998374 .38945008 .4128418 .4103546 .42569987 .43125917 .43408204 .45951335 .43798829 .4951172H.45507813V.16210938H.43798829C.43180339 .22493489 .41495768 .26635743 .38745118 .28637696 .35994468 .30639649 .32877604 .31640626 .2939453 .31640626H.27490235V.11328125C.27490235 .07925415 .27677409 .0579834 .28051759 .049468996 .28426109 .040964765 .2915853 .03352356 .30249024 .027145386 .31339518 .020767212 .328125 .017578125 .3466797 .017578125H.36865235V0H.022460938V.017578125H.044433595C.06363932 .017578125 .07910156 .021011353 .09082031 .027877808 .09928385 .032465619 .10579427 .040318807 .11035156 .051437379 .11393229 .05929057 .115722659 .07990519 .115722659 .11328125V.5488281C.115722659 .5828552 .11393229 .6041209 .11035156 .6126251 .106770839 .6211395 .09952799 .6285858 .08862305 .634964 .0777181 .64134219 .06298828 .64453127 .044433595 .64453127H.022460938V.6621094H.5810547V.4716797H.56103518C.55647787 .51641848 .5448405 .5495656 .52612307 .5711212 .5074056 .5926768 .480306 .6078593 .44482423 .6166687 .42529298 .62157186 .38916017 .62402346 .33642579 .62402346H.27490235Z"/>
<path id="font_1_47" d="M.63134768 .23242188 .6064453 0H.018554688V.017578125H.040527345C.059733076 .017578125 .07519531 .021011353 .08691406 .027877808 .0953776 .032465619 .10188802 .040318807 .10644531 .051437379 .11002604 .05929057 .111816409 .07990519 .111816409 .11328125V.5488281C.111816409 .5828552 .11002604 .6041209 .10644531 .6126251 .102864589 .6211395 .09562174 .6285858 .0847168 .634964 .07381185 .64134219 .05908203 .64453127 .040527345 .64453127H.018554688V.6621094H.37158204V.64453127H.34277345C.32356773 .64453127 .30810548 .641098 .29638673 .63423159 .2879232 .62964376 .28125 .6217906 .2763672 .610672 .27278648 .6028188 .2709961 .58220419 .2709961 .5488281V.12695313C.2709961 .09309896 .27294923 .0715332 .27685548 .06225586 .28076173 .052978517 .28841148 .0460612 .2998047 .041503908 .30794273 .03857422 .32763673 .037109376 .35888673 .037109376H.4140625C.44921876 .037109376 .47851563 .04329427 .5019531 .055664064 .5253906 .06803385 .5456543 .0875651 .56274417 .11425781 .579834 .14095052 .5960286 .18033855 .6113281 .23242188H.63134768Z"/>
<path id="font_2_50" d="M.36572267 .6767578C.45166017 .6767578 .52612307 .6441701 .5891113 .57899478 .6520996 .5138194 .68359377 .43247477 .68359377 .33496095 .68359377 .23451741 .65185549 .1511383 .5883789 .08482361 .52490237 .018508912 .44807945-.0146484379 .35791017-.0146484379 .2667643-.0146484379 .19018555 .017695109 .12817383 .0823822 .06616211 .14706929 .03515625 .23077393 .03515625 .3334961 .03515625 .43848673 .07096354 .5241394 .14257813 .5904541 .20475261 .6479899 .27913413 .6767578 .36572267 .6767578M.3564453 .640625C.29720054 .640625 .24967449 .6186879 .21386719 .57481387 .16927083 .5202077 .14697266 .44025169 .14697266 .33494569 .14697266 .2270457 .17008464 .14400737 .2163086 .08583069 .25179038 .04163106 .29866538 .01953125 .3569336 .01953125 .41910807 .01953125 .47045899 .043741865 .5109863 .092163089 .5515137 .14059448 .57177737 .2169749 .57177737 .32130433 .57177737 .43440248 .5494792 .51874288 .5048828 .57432559 .46907554 .6185252 .41959635 .640625 .3564453 .640625Z"/>
<path id="font_2_87" d="M.16113281 .59472659V.44726563H.265625V.41308595H.16113281V.1234436C.16113281 .09450277 .1652832 .07499186 .17358399 .06491089 .18188477 .054840089 .19254558 .049804689 .2055664 .049804689 .2163086 .049804689 .22672527 .053141279 .2368164 .059814454 .24690755 .06648763 .25472007 .07633463 .2602539 .08935547H.27929688C.26790367 .057362874 .25179038 .033167524 .23095703 .01676941 .2101237 .00038146974 .18863933-.0078125 .1665039-.0078125 .15152996-.0078125 .13688152-.0036570233 .122558597 .0046539308 .10823568 .012964885 .09765625 .024856568 .09082031 .04032898 .083984378 .055811567 .080566409 .079686488 .080566409 .111953739V.41308595H.009765625V.42919923C.027669272 .436381 .045979818 .44854228 .064697269 .46568299 .08341471 .4828237 .100097659 .5031484 .114746097 .5266571 .12223307 .53905746 .13264974 .56174728 .1459961 .59472659H.16113281Z"/>
<path id="font_2_105" d="M.28466798 .064453128C.23876953 .028971354 .20996094 .008463542 .19824219 .0029296876 .18066406-.005533854 .16194661-.009765625 .14208985-.009765625 .11116537-.009765625 .08569336 .00081380209 .06567383 .021972657 .045654298 .04313151 .03564453 .07096354 .03564453 .10546875 .03564453 .12727864 .040527345 .14615886 .05029297 .16210938 .06363932 .1842448 .08683268 .20507813 .11987305 .22460938 .1529134 .24414063 .20784505 .26790367 .28466798 .29589845V.31347657C.28466798 .3580729 .2775879 .38867188 .26342774 .40527345 .24926758 .421875 .22867839 .43017579 .20166016 .43017579 .18115235 .43017579 .1648763 .42466227 .15283203 .41363526 .14046224 .40260826 .13427735 .3899587 .13427735 .37568666L.1352539 .34747315C.1352539 .3325602 .13142903 .32105003 .1237793 .3129425 .116129558 .304835 .10611979 .30078126 .09375 .30078126 .08170573 .30078126 .07185873 .30499778 .064208988 .3134308 .056559247 .321874 .052734376 .33339945 .052734376 .3480072 .052734376 .37591044 .06705729 .4015452 .095703128 .4249115 .12434896 .4482778 .16455078 .45996095 .2163086 .45996095 .25602214 .45996095 .28857423 .45329795 .31396485 .43997193 .33317057 .42989097 .34733073 .41411845 .3564453 .39265443 .3623047 .37867738 .36523438 .35006715 .36523438 .30682374V.15515137C.36523438 .112559 .3660482 .08646647 .36767579 .07687378 .36930339 .06728109 .37198893 .060857137 .37573243 .05760193 .37947593 .05435689 .38378907 .052734376 .38867188 .052734376 .39388023 .052734376 .3984375 .0538737 .40234376 .056152345 .4091797 .060384115 .42236329 .072265628 .44189454 .091796878V.064453128C.4054362 .015625 .37060548-.0087890629 .33740235-.0087890629 .3214518-.0087890629 .3087565-.0032552083 .2993164 .0078125 .2898763 .018880209 .2849935 .037760419 .28466798 .064453128M.28466798 .096466068V.26611329C.23551433 .24667359 .20377605 .23289998 .18945313 .22479248 .16373699 .2105306 .14534505 .19562276 .13427735 .18006897 .12320963 .16451518 .11767578 .14750164 .11767578 .12902832 .11767578 .10569254 .12467448 .08632914 .13867188 .07093811 .15266927 .055547079 .16878255 .047851564 .18701172 .047851564 .2117513 .047851564 .24430339 .0640564 .28466798 .096466068M.3330078 .6796875 .18896485 .5107422H.17236328L.22363281 .6796875H.3330078Z"/>
<path id="font_2_254" d="M.4111328 .16992188C.39908854 .1110026 .37548829 .06567383 .34033204 .033935548 .30517579 .0021972657 .26627604-.013671875 .22363281-.013671875 .17285156-.013671875 .12858074 .007624308 .09082031 .050216676 .053059896 .092819217 .034179689 .15038045 .034179689 .22290039 .034179689 .2931417 .055094404 .35020957 .09692383 .394104 .13875325 .43800865 .18896485 .45996095 .2475586 .45996095 .2915039 .45996095 .32763673 .44835917 .35595704 .42515565 .38427735 .40196229 .3984375 .37787376 .3984375 .35289 .3984375 .3405609 .39444987 .33058167 .3864746 .32295228 .37849937 .31533305 .36735026 .31152345 .35302735 .31152345 .33382163 .31152345 .31933595 .31770835 .3095703 .33007813 .30403648 .33691407 .30037437 .3499349 .29858399 .36914063 .2967936 .38834635 .2902018 .40299479 .2788086 .41308595 .26741538 .42285157 .2516276 .42773438 .23144531 .42773438 .19889324 .42773438 .1726888 .4156901 .15283203 .39160157 .12646485 .35970054 .11328125 .31754557 .11328125 .26513673 .11328125 .2117513 .12638347 .16463216 .15258789 .1237793 .17879232 .08292643 .2141927 .0625 .25878907 .0625 .2906901 .0625 .31933595 .073404949 .34472657 .095214847 .36263023 .110188808 .38004557 .1373698 .39697267 .17675781L.4111328 .16992188M.28564454 .5107422H.19580078L.103027347 .67285159H.11816406L.25146485 .56903079 .36328126 .67285159H.3779297L.28564454 .5107422Z"/>
<path id="font_2_72" d="M.10644531 .2783203C.10611979 .21206665 .12223307 .1601003 .15478516 .122421268 .18733724 .0847524 .22558594 .06591797 .26953126 .06591797 .29882813 .06591797 .32430015 .07397461 .34594728 .09008789 .3675944 .10620117 .3857422 .13378906 .40039063 .17285156L.41552735 .16308594C.4086914 .118489589 .38883464 .07788086 .35595704 .041259767 .32307945 .004638672 .28190104-.013671875 .23242188-.013671875 .17871094-.013671875 .13273113 .007197062 .09448242 .048934938 .056233724 .09068298 .037109376 .14680481 .037109376 .21730042 .037109376 .29363505 .056722005 .35315959 .095947269 .39587403 .13517253 .43859864 .18440755 .45996095 .24365235 .45996095 .29378257 .45996095 .33496095 .44348146 .3671875 .41052247 .39941407 .37757365 .41552735 .33350627 .41552735 .2783203H.10644531M.10644531 .30664063H.31347657C.31184898 .33528648 .308431 .35546876 .30322267 .3671875 .29508464 .38541667 .28295899 .3997396 .2668457 .41015626 .25073243 .4205729 .23388672 .42578126 .2163086 .42578126 .18929036 .42578126 .16512044 .4152832 .14379883 .3942871 .12247721 .37329103 .11002604 .34407554 .10644531 .30664063Z"/>
<path id="font_2_81" d="M.1616211 .36523438C.21402996 .4283854 .2639974 .45996095 .31152345 .45996095 .3359375 .45996095 .3569336 .45386759 .37451173 .4416809 .39208985 .4295044 .40608726 .40944926 .4165039 .3815155 .42366538 .36203514 .4272461 .33215333 .4272461 .29187013V.101379398C.4272461 .07312012 .42952476 .053955079 .43408204 .043884279 .43766276 .0357666 .44344078 .029434205 .45141603 .024887085 .45939128 .020339966 .4741211 .018066407 .49560548 .018066407V0H.27441407V.018066407H.2836914C.30452476 .018066407 .3190918 .021224976 .32739259 .027542115 .33569337 .033859254 .34147135 .043167116 .34472657 .0554657 .34602867 .060328168 .3466797 .07555135 .3466797 .101135257V.28330995C.3466797 .3237864 .34138999 .35317485 .33081056 .37147523 .3202311 .3897756 .30240885 .39892579 .27734376 .39892579 .23860677 .39892579 .20003255 .37787376 .1616211 .33576966V.101135257C.1616211 .071014408 .16341146 .052393598 .16699219 .045272829 .17154949 .035883588 .17781575 .029001872 .18579102 .024627686 .19376628 .0202535 .20996094 .018066407 .234375 .018066407V0H.013183594V.018066407H.022949219C.045735677 .018066407 .061116537 .023829142 .0690918 .035354616 .077067058 .04689026 .08105469 .06889852 .08105469 .101379398V.2670288C.08105469 .32061769 .079833988 .35325624 .07739258 .36494447 .07495117 .37664286 .07120768 .38460288 .06616211 .38882447 .061116537 .39304606 .05436198 .39515687 .045898439 .39515687 .036783857 .39515687 .025878907 .39272056 .013183594 .3878479L.005859375 .4053955 .140625 .45996095H.1616211V.36523438Z"/>
<path id="font_2_116" d="M.1850586 .45996095V.101379398C.1850586 .07344564 .18717449 .05485026 .19140625 .04559326 .19563802 .03633626 .20174153 .029434205 .2097168 .024887085 .21769206 .020339966 .23225911 .018066407 .25341798 .018066407V0H.036132814V.018066407C.057942708 .018066407 .07259115 .020177206 .080078128 .024398804 .0875651 .028620402 .09350586 .03560384 .09790039 .04534912 .10229492 .055094404 .10449219 .07377116 .10449219 .101379398V.2733612C.10449219 .32176209 .103027347 .35310365 .100097659 .36738587 .09781901 .3777822 .09423828 .38500978 .08935547 .3890686 .084472659 .39312745 .07779948 .39515687 .06933594 .39515687 .060221357 .39515687 .049153646 .39272056 .036132814 .3878479L.029296875 .4053955 .1640625 .45996095H.1850586M.24316406 .6796875 .099121097 .5107422H.08251953L.13378906 .6796875H.24316406Z"/>
<path id="font_0_46" d="M.29882813 .3671875 .54296877 .12451172C.5830078 .084472659 .6171875 .057210287 .6455078 .04272461 .6738281 .028238932 .70214846 .020019532 .73046877 .018066407V0H.41552735V.018066407C.43440757 .018066407 .44799806 .021240235 .45629884 .02758789 .4645996 .033935548 .46875 .041015626 .46875 .048828126 .46875 .056640626 .46720378 .06363932 .46411134 .06982422 .4610189 .07600912 .45084635 .0875651 .43359376 .10449219L.20507813 .3305664V.1171875C.20507813 .08365885 .20719402 .061523439 .21142578 .05078125 .21468099 .04264323 .22151692 .03564453 .2319336 .029785157 .24593099 .021972657 .2607422 .018066407 .2763672 .018066407H.29882813V0H.016601563V.018066407H.040039064C.06738281 .018066407 .087239589 .026041666 .099609378 .041992189 .107421878 .052408857 .111328128 .07747396 .111328128 .1171875V.5449219C.111328128 .5784505 .10921224 .6007487 .10498047 .6118164 .10172526 .6196289 .095052089 .62646487 .08496094 .6323242 .07063802 .6401367 .055664064 .64404299 .040039064 .64404299H.016601563V.6621094H.29882813V.64404299H.2763672C.26106773 .64404299 .24625652 .6402995 .2319336 .6328125 .22184246 .6276042 .21484375 .6197917 .2109375 .609375 .20703125 .5989583 .20507813 .57747396 .20507813 .5449219V.34228517C.21158855 .34847007 .23388672 .36914063 .27197267 .40429688 .36865235 .49283854 .42708335 .5519206 .44726563 .58154299 .4560547 .5945638 .46044923 .60595706 .46044923 .61572268 .46044923 .62320968 .45703126 .62980148 .4501953 .63549807 .44335938 .64119467 .43180339 .64404299 .41552735 .64404299H.40039063V.6621094H.6435547V.64404299C.62923178 .64371749 .61621096 .64176437 .6044922 .6381836 .59277346 .63460287 .5784505 .62768557 .56152346 .61743167 .5445964 .60717776 .523763 .59065756 .49902345 .5678711 .49186198 .56136068 .45882163 .5279948 .39990235 .46777345L.29882813 .3671875Z"/>
<path id="font_0_82" d="M.25 .45996095C.31770835 .45996095 .3720703 .43427024 .41308595 .3828888 .44791667 .33899436 .46533204 .28858949 .46533204 .2316742 .46533204 .19167583 .45572917 .15118917 .43652345 .11021423 .41731773 .06924947 .39086915 .038360597 .35717774 .017547608 .32348634-.0032653809 .28597007-.013671875 .2446289-.013671875 .1772461-.013671875 .123697917 .013158162 .083984378 .06681824 .05045573 .11201477 .033691408 .16274007 .033691408 .21899414 .033691408 .2599691 .043863935 .30069987 .064208988 .34118653 .08455404 .3816732 .111328128 .41159059 .14453125 .43093873 .17773438 .45028688 .21289063 .45996095 .25 .45996095M.23486328 .42773438C.21761067 .42773438 .20027669 .42261253 .18286133 .41236878 .16544597 .40212504 .15136719 .38416038 .140625 .35847474 .12988281 .3327891 .12451172 .29978944 .12451172 .2594757 .12451172 .19445293 .13745117 .1383667 .16333008 .09121704 .18920899 .044077558 .2233073 .020507813 .265625 .020507813 .29720054 .020507813 .3232422 .033513387 .34375 .059524537 .3642578 .08553568 .37451173 .13023885 .37451173 .19363404 .37451173 .27296958 .35742188 .33539836 .3232422 .3809204 .30013023 .41212974 .27067057 .42773438 .23486328 .42773438Z"/>
<path id="font_0_79" d="M.1850586 .69433596V.101501468C.1850586 .073527019 .1870931 .054982503 .19116211 .04586792 .19523113 .036763509 .20149739 .029851279 .20996094 .025131226 .21842449 .020421347 .23421224 .018066407 .25732423 .018066407V0H.038085939V.018066407C.05859375 .018066407 .07259115 .020177206 .080078128 .024398804 .0875651 .028630576 .09342448 .035624189 .09765625 .04537964 .10188802 .055145265 .104003909 .07385254 .104003909 .101501468V.50746157C.104003909 .5578766 .102864589 .588857 .10058594 .60040286 .09830729 .6119588 .09464518 .6198476 .08959961 .6240692 .08455404 .62830099 .078125 .63041689 .0703125 .63041689 .061848958 .63041689 .05110677 .6278127 .038085939 .62260439L.029785157 .6396942 .16308594 .69433596H.1850586Z"/>
<path id="font_0_72" d="M.10644531 .2783203C.10611979 .21206665 .12223307 .1601003 .15478516 .122421268 .18733724 .0847524 .22558594 .06591797 .26953126 .06591797 .29882813 .06591797 .32430015 .07397461 .34594728 .09008789 .3675944 .10620117 .3857422 .13378906 .40039063 .17285156L.41552735 .16308594C.4086914 .118489589 .38883464 .07788086 .35595704 .041259767 .32307945 .004638672 .28190104-.013671875 .23242188-.013671875 .17871094-.013671875 .13273113 .007197062 .09448242 .048934938 .056233724 .09068298 .037109376 .14680481 .037109376 .21730042 .037109376 .29363505 .056722005 .35315959 .095947269 .39587403 .13517253 .43859864 .18440755 .45996095 .24365235 .45996095 .29378257 .45996095 .33496095 .44348146 .3671875 .41052247 .39941407 .37757365 .41552735 .33350627 .41552735 .2783203H.10644531M.10644531 .30664063H.31347657C.31184898 .33528648 .308431 .35546876 .30322267 .3671875 .29508464 .38541667 .28295899 .3997396 .2668457 .41015626 .25073243 .4205729 .23388672 .42578126 .2163086 .42578126 .18929036 .42578126 .16512044 .4152832 .14379883 .3942871 .12247721 .37329103 .11002604 .34407554 .10644531 .30664063Z"/>
<path id="font_0_80" d="M.1640625 .3647461C.19661458 .3972982 .21582031 .41601563 .22167969 .42089845 .23632813 .43326823 .25211589 .4428711 .26904298 .44970704 .28597007 .45654298 .30273438 .45996095 .31933595 .45996095 .34733073 .45996095 .37141929 .4518229 .39160157 .43554688 .41178385 .41927085 .42529298 .39567057 .4321289 .3647461 .46565757 .4038086 .49397788 .42944337 .51708987 .4416504 .54020187 .45385743 .56396487 .45996095 .5883789 .45996095 .6121419 .45996095 .6332194 .45386759 .6516113 .4416809 .67000326 .4295044 .6845703 .40961204 .6953125 .38200379 .70247396 .36316429 .7060547 .333608 .7060547 .29333497V.101379398C.7060547 .07344564 .7081706 .054280599 .71240237 .043884279 .71565756 .036743165 .7216797 .030654908 .73046877 .025619507 .7392578 .020584107 .75358077 .018066407 .7734375 .018066407V0H.5527344V.018066407H.5620117C.58121749 .018066407 .5961914 .02178955 .6069336 .02923584 .6144206 .034423829 .6197917 .042683919 .6230469 .054016115 .62434896 .05951945 .625 .07522583 .625 .101135257V.2925415C.625 .32881675 .62060549 .35440064 .6118164 .3692932 .5991211 .3900248 .57877609 .40039063 .55078127 .40039063 .5335286 .40039063 .51619467 .3960978 .4987793 .3875122 .48136393 .37893678 .46028648 .36298625 .43554688 .33966065L.4345703 .33432008 .43554688 .3134308V.101135257C.43554688 .07068888 .43725587 .051742555 .44067384 .044296266 .4440918 .036849977 .45052085 .030614218 .45996095 .02558899 .46940104 .020573935 .4855143 .018066407 .5083008 .018066407V0H.28222657V.018066407C.30696617 .018066407 .3239746 .020980835 .33325196 .026809693 .3425293 .03263855 .34895835 .041381837 .35253907 .05303955 .35416667 .05855306 .35498048 .07458496 .35498048 .101135257V.2925415C.35498048 .32881675 .34960938 .35488893 .3388672 .37075807 .32454429 .39148966 .30452476 .40185548 .2788086 .40185548 .26123048 .40185548 .24381511 .39716087 .2265625 .3877716 .19954427 .3735199 .17871094 .357488 .1640625 .3396759V.101135257C.1640625 .07199097 .166097 .053044637 .17016602 .044296266 .17423503 .035558065 .18025716 .029001872 .18823242 .024627686 .19620769 .0202535 .21240235 .018066407 .2368164 .018066407V0H.015625V.018066407C.036132814 .018066407 .05045573 .020258585 .05859375 .024642945 .06673177 .029027304 .072916667 .036010744 .07714844 .04559326 .08138021 .05517578 .083496097 .07377116 .083496097 .101379398V.27189637C.083496097 .32094828 .08203125 .35261537 .07910156 .36689759 .076822917 .37761943 .07324219 .38500978 .068359378 .3890686 .06347656 .39312745 .056803388 .39515687 .048339845 .39515687 .03922526 .39515687 .028320313 .39272056 .015625 .3878479L.008300781 .4053955 .1430664 .45996095H.1640625V.3647461Z"/>
<path id="font_2_61" d="M.5751953 .6621094 .14013672 .040527345H.4116211C.45328776 .040527345 .48527018 .049641927 .50756838 .067871097 .5298665 .08610026 .5496419 .123046878 .56689456 .17871094L.5830078 .17576599 .5517578 0H.0126953129V.018096924L.4375 .62353518H.22558594C.19042969 .62353518 .16495769 .619695 .14916992 .6120148 .13338216 .60433456 .12133789 .593221 .11303711 .5786743 .10473633 .56413778 .09716797 .53693649 .09033203 .4970703H.071777347L.08544922 .6621094H.5751953Z"/>
<path id="font_2_78" d="M.16357422 .69433596V.24951172L.27734376 .35302735C.30143229 .37516276 .3154297 .38916017 .31933595 .39501954 .3219401 .39892579 .3232422 .40283204 .3232422 .40673829 .3232422 .4132487 .32055665 .41886393 .31518556 .42358399 .30981446 .42830406 .300944 .4309896 .28857423 .43164063V.44726563H.48291017V.43164063C.45621745 .4309896 .43400065 .42692057 .41625978 .4194336 .3985189 .41194663 .379069 .39860026 .35791017 .37939454L.24316406 .2734375 .35791017 .12869263C.3898112 .08873495 .41129557 .06339518 .42236329 .05267334 .43798829 .037404378 .45166017 .027491251 .4633789 .02293396 .47151695 .019688925 .4856771 .018066407 .5058594 .018066407V0H.28857423V.018066407C.300944 .018391928 .30932618 .020258585 .3137207 .023666382 .31811524 .02708435 .3203125 .03187561 .3203125 .03804016 .3203125 .045516969 .3138021 .05753581 .30078126 .07409668L.16357422 .24902344V.10090637C.16357422 .071996059 .16560872 .05298869 .16967774 .043884279 .17374675 .03479004 .17952474 .028294882 .18701172 .024398804 .1944987 .020502726 .21077474 .018391928 .23583985 .018066407V0H.008300781V.018066407C.03108724 .018066407 .048177083 .020833334 .059570314 .026367188 .06640625 .029937745 .071614589 .03546651 .07519531 .04295349 .080078128 .053685506 .08251953 .07222494 .08251953 .09857178V.5055084C.08251953 .5572255 .08138021 .588857 .07910156 .60040286 .076822917 .6119588 .07307943 .619929 .067871097 .62431338 .06266276 .6287079 .055826826 .63090518 .04736328 .63090518 .040527345 .63090518 .030273438 .62813827 .016601563 .62260439L.008300781 .6396942 .14111328 .69433596H.16357422Z"/>
<path id="font_2_82" d="M.25 .45996095C.31770835 .45996095 .3720703 .43427024 .41308595 .3828888 .44791667 .33899436 .46533204 .28858949 .46533204 .2316742 .46533204 .19167583 .45572917 .15118917 .43652345 .11021423 .41731773 .06924947 .39086915 .038360597 .35717774 .017547608 .32348634-.0032653809 .28597007-.013671875 .2446289-.013671875 .1772461-.013671875 .123697917 .013158162 .083984378 .06681824 .05045573 .11201477 .033691408 .16274007 .033691408 .21899414 .033691408 .2599691 .043863935 .30069987 .064208988 .34118653 .08455404 .3816732 .111328128 .41159059 .14453125 .43093873 .17773438 .45028688 .21289063 .45996095 .25 .45996095M.23486328 .42773438C.21761067 .42773438 .20027669 .42261253 .18286133 .41236878 .16544597 .40212504 .15136719 .38416038 .140625 .35847474 .12988281 .3327891 .12451172 .29978944 .12451172 .2594757 .12451172 .19445293 .13745117 .1383667 .16333008 .09121704 .18920899 .044077558 .2233073 .020507813 .265625 .020507813 .29720054 .020507813 .3232422 .033513387 .34375 .059524537 .3642578 .08553568 .37451173 .13023885 .37451173 .19363404 .37451173 .27296958 .35742188 .33539836 .3232422 .3809204 .30013023 .41212974 .27067057 .42773438 .23486328 .42773438Z"/>
<path id="font_2_68" d="M.28466798 .064453128C.23876953 .028971354 .20996094 .008463542 .19824219 .0029296876 .18066406-.005533854 .16194661-.009765625 .14208985-.009765625 .11116537-.009765625 .08569336 .00081380209 .06567383 .021972657 .045654298 .04313151 .03564453 .07096354 .03564453 .10546875 .03564453 .12727864 .040527345 .14615886 .05029297 .16210938 .06363932 .1842448 .08683268 .20507813 .11987305 .22460938 .1529134 .24414063 .20784505 .26790367 .28466798 .29589845V.31347657C.28466798 .3580729 .2775879 .38867188 .26342774 .40527345 .24926758 .421875 .22867839 .43017579 .20166016 .43017579 .18115235 .43017579 .1648763 .42466227 .15283203 .41363526 .14046224 .40260826 .13427735 .3899587 .13427735 .37568666L.1352539 .34747315C.1352539 .3325602 .13142903 .32105003 .1237793 .3129425 .116129558 .304835 .10611979 .30078126 .09375 .30078126 .08170573 .30078126 .07185873 .30499778 .064208988 .3134308 .056559247 .321874 .052734376 .33339945 .052734376 .3480072 .052734376 .37591044 .06705729 .4015452 .095703128 .4249115 .12434896 .4482778 .16455078 .45996095 .2163086 .45996095 .25602214 .45996095 .28857423 .45329795 .31396485 .43997193 .33317057 .42989097 .34733073 .41411845 .3564453 .39265443 .3623047 .37867738 .36523438 .35006715 .36523438 .30682374V.15515137C.36523438 .112559 .3660482 .08646647 .36767579 .07687378 .36930339 .06728109 .37198893 .060857137 .37573243 .05760193 .37947593 .05435689 .38378907 .052734376 .38867188 .052734376 .39388023 .052734376 .3984375 .0538737 .40234376 .056152345 .4091797 .060384115 .42236329 .072265628 .44189454 .091796878V.064453128C.4054362 .015625 .37060548-.0087890629 .33740235-.0087890629 .3214518-.0087890629 .3087565-.0032552083 .2993164 .0078125 .2898763 .018880209 .2849935 .037760419 .28466798 .064453128M.28466798 .096466068V.26611329C.23551433 .24667359 .20377605 .23289998 .18945313 .22479248 .16373699 .2105306 .14534505 .19562276 .13427735 .18006897 .12320963 .16451518 .11767578 .14750164 .11767578 .12902832 .11767578 .10569254 .12467448 .08632914 .13867188 .07093811 .15266927 .055547079 .16878255 .047851564 .18701172 .047851564 .2117513 .047851564 .24430339 .0640564 .28466798 .096466068Z"/>
<path id="font_1_76" d="M.14355469 .6767578C.16471355 .6767578 .18261719 .6693268 .19726563 .6544647 .21191406 .63961288 .21923828 .6217346 .21923828 .6008301 .21923828 .57992556 .21183269 .5621236 .19702149 .5474243 .18221028 .53273519 .16438802 .5253906 .14355469 .5253906 .12272135 .5253906 .10498047 .53273519 .09033203 .5474243 .075683597 .5621236 .068359378 .57992556 .068359378 .6008301 .068359378 .6217346 .075683597 .63961288 .09033203 .6544647 .10498047 .6693268 .12272135 .6767578 .14355469 .6767578M.21191406 .45703126V.09472656C.21191406 .0625 .21565755 .04191081 .22314453 .032958986 .23063152 .024007163 .24527996 .018880209 .26708985 .017578125V0H.020507813V.017578125C.040690107 .018229166 .055664064 .024088541 .06542969 .03515625 .0719401 .04264323 .07519531 .0625 .07519531 .09472656V.36132813C.07519531 .39396159 .07145182 .41481019 .063964847 .4238739 .056477865 .43293763 .041992189 .4381307 .020507813 .43945313V.45703126H.21191406Z"/>
<path id="font_1_82" d="M.24902344 .47070313C.28873698 .47070313 .3256836 .46043907 .35986329 .4399109 .39404298 .41938273 .42000328 .3902181 .43774415 .352417 .45548503 .31461589 .46435548 .27323405 .46435548 .22827149 .46435548 .16343181 .44791667 .109176639 .41503907 .06550598 .37532554 .012720744 .32047526-.013671875 .25048829-.013671875 .18180339-.013671875 .12890625 .010442098 .091796878 .058670045 .0546875 .10689799 .036132814 .16278076 .036132814 .22631836 .036132814 .29180909 .055094404 .34891258 .09301758 .39762879 .13094075 .446345 .1829427 .47070313 .24902344 .47070313M.25097657 .43652345C.234375 .43652345 .22013347 .43024699 .20825196 .4176941 .19637044 .40515138 .18855794 .38038636 .18481446 .34339906 .18107097 .30641175 .17919922 .2549998 .17919922 .18916321 .17919922 .1542918 .18147786 .12169901 .18603516 .09138489 .18961589 .06825256 .19726563 .050654096 .20898438 .038589479 .22070313 .026535035 .23404949 .020507813 .24902344 .020507813 .26367188 .020507813 .2758789 .02458191 .28564454 .032730104 .29833985 .043807985 .30680339 .05929057 .31103517 .07917786 .31754557 .11013285 .32080079 .17270406 .32080079 .26689149 .32080079 .32229106 .31770835 .3603363 .31152345 .38102723 .30533854 .4017283 .29622398 .416804 .2841797 .42625428 .27571617 .43310038 .26464845 .43652345 .25097657 .43652345Z"/>
<path id="font_1_81" d="M.22021485 .45703126V.39746095C.24365235 .4230245 .26611329 .44161988 .28759767 .45324708 .30908204 .46488444 .332194 .47070313 .3569336 .47070313 .386556 .47070313 .4111328 .46247355 .43066407 .4460144 .4501953 .42955528 .46321617 .4091034 .46972657 .3846588 .4749349 .3660736 .47753907 .3303782 .47753907 .27757264V.099609378C.47753907 .064453128 .4807129 .042561849 .48706056 .033935548 .4934082 .025309245 .50667318 .019856772 .52685549 .017578125V0H.29589845V.017578125C.31315104 .019856772 .32552085 .027018229 .3330078 .0390625 .33821617 .04720052 .3408203 .06738281 .3408203 .099609378V.30273438C.3408203 .34016929 .33935548 .36376954 .33642579 .37353517 .3334961 .38330079 .3285319 .39086915 .3215332 .39624024 .31453453 .40161134 .30680339 .40429688 .29833985 .40429688 .27034507 .40429688 .24430339 .3841146 .22021485 .34375V.099609378C.22021485 .06542969 .22338867 .04378255 .22973633 .03466797 .23608399 .025553385 .24788411 .019856772 .26513673 .017578125V0H.034179689V.017578125C.053385419 .01953125 .06705729 .025716147 .07519531 .036132814 .080729167 .04329427 .083496097 .064453128 .083496097 .099609378V.35742188C.083496097 .39234416 .080322269 .41408793 .07397461 .4226532 .06762695 .43121849 .05436198 .43681846 .034179689 .43945313V.45703126H.22021485Z"/>
<path id="font_1_74" d="M.32666017 .45117188H.48046876V.39746095H.3930664C.40901695 .3815104 .42008464 .36702476 .42626954 .3540039 .43408204 .33642579 .43798829 .31803385 .43798829 .29882813 .43798829 .26627604 .42895509 .23803711 .41088868 .21411133 .39282228 .19018555 .36824546 .1714681 .3371582 .15795899 .30607096 .14444988 .27848307 .13769531 .25439454 .13769531 .2524414 .13769531 .23291016 .13850911 .19580078 .14013672 .18115235 .14013672 .16886394 .13536072 .15893555 .12580872 .14900716 .116256717 .14404297 .10484823 .14404297 .09158325 .14404297 .07992554 .14851888 .070373538 .1574707 .062927249 .16642253 .055480958 .18098958 .051757814 .20117188 .051757814L.28564454 .052734376C.3540039 .052734376 .40104167 .045232137 .4267578 .030227662 .46354167 .0093638109 .4819336-.022755942 .4819336-.06613159 .4819336-.09385172 .47347007-.11904398 .45654298-.14170838 .43961589-.16437276 .41731773-.18108623 .38964845-.19184876 .34765626-.20782979 .2993164-.21582031 .2446289-.21582031 .20361328-.21582031 .16617839-.21183269 .13232422-.20385742 .098470058-.19588216 .07421875-.18480937 .059570314-.17063904 .044921876-.15647888 .037597658-.14158122 .037597658-.12594605 .037597658-.110972087 .04321289-.09753927 .05444336-.08564758 .06567383-.073766078 .08658854-.06375631 .1171875-.055618287 .07486979-.034784955 .053710939-.005818685 .053710939 .031280519 .053710939 .053741456 .06233724 .075546268 .079589847 .09669495 .096842449 .1178538 .124186199 .13624573 .1616211 .15187073 .118001308 .1678416 .08642578 .18886821 .06689453 .21495056 .04736328 .24103292 .037597658 .27118937 .037597658 .30541993 .037597658 .3500773 .055826826 .38878886 .092285159 .42155458 .12874349 .45432029 .17561849 .47070313 .23291016 .47070313 .2631836 .47070313 .2944336 .46419273 .32666017 .45117188M.2421875 .43945313C.2233073 .43945313 .20735677 .4299469 .19433594 .41093446 .18131511 .39193217 .17480469 .35253398 .17480469 .29273988 .17480469 .24432881 .18123372 .21110535 .1940918 .19306946 .20694988 .17503357 .22216797 .16601563 .2397461 .16601563 .25927735 .16601563 .27555339 .1749522 .28857423 .19282532 .30159507 .21069844 .30810548 .24546814 .30810548 .2971344 .30810548 .35529075 .30078126 .39493308 .2861328 .4160614 .27571617 .43165589 .26106773 .43945313 .2421875 .43945313M.2133789-.06738281C.18017578-.06738281 .15820313-.070139568 .14746094-.075653079 .12890625-.08569336 .119628909-.0993042 .119628909-.116485599 .119628909-.13301595 .12923177-.14800518 .1484375-.16145325 .16764324-.1749115 .20377605-.18164063 .25683595-.18164063 .30208335-.18164063 .33764649-.17564392 .3635254-.16365052 .3894043-.1516571 .40234376-.13480123 .40234376-.113082889 .40234376-.10498556 .39990235-.09818014 .39501954-.092666629 .38623048-.08294169 .37296549-.076293949 .3552246-.07272339 .33748374-.069163 .2902018-.06738281 .2133789-.06738281Z"/>
<path id="font_1_93" d="M.40771485 0H.010253906V.0107421879L.26123048 .4267578H.18798828C.15641277 .4267578 .13378906 .42391969 .12011719 .4182434 .10644531 .4125773 .0953776 .4035085 .08691406 .391037 .07845052 .37856547 .06966146 .35629273 .060546876 .32421876H.04345703V.45703126H.42773438V.44386292L.17871094 .032226564H.20996094C.27246095 .032226564 .31754557 .041107179 .34521485 .05886841 .37288413 .07663981 .39371745 .10910034 .40771485 .15625H.42138673L.40771485 0Z"/>
<path id="font_1_75" d="M.22021485 .6621094V.39794923C.24527996 .4244995 .26822917 .44326274 .2890625 .4542389 .30989585 .46521507 .33154298 .47070313 .3540039 .47070313 .38264976 .47070313 .40714518 .4625651 .42749024 .44628907 .4478353 .43001304 .4613444 .41088868 .46801759 .38891603 .47469078 .36694337 .47802735 .32991538 .47802735 .27783204V.099609378C.47802735 .064565028 .48128257 .042704267 .48779298 .0340271 .49430339 .025349936 .507487 .019866944 .52734377 .017578125V0H.29589845V.017578125C.31217448 .019866944 .3243815 .02641805 .33251954 .037231447 .3383789 .04574585 .3413086 .06653849 .3413086 .099609378V.30290223C.3413086 .3406016 .33984376 .36424256 .33691407 .37382508 .33398438 .38341777 .32902018 .39089457 .32202149 .3962555 .3150228 .40161643 .3071289 .40429688 .29833985 .40429688 .285319 .40429688 .2726237 .39982096 .2602539 .39086915 .24788411 .38191734 .23453777 .36621095 .22021485 .34375V.099609378C.22021485 .06686401 .22265625 .046396894 .22753906 .038208009 .23372396 .027079264 .24641927 .020202637 .265625 .017578125V0H.034179689V.017578125C.053385419 .019541422 .06705729 .025761923 .07519531 .036239625 .080729167 .043441774 .083496097 .064565028 .083496097 .099609378V.5625C.083496097 .5974223 .080322269 .6191661 .07397461 .6277313 .06762695 .6362966 .05436198 .64189657 .034179689 .64453127V.6621094H.22021485Z"/>
<path id="font_2_253" d="M.6020508 .6767578 .6171875 .45214845H.6020508C.58186849 .51970419 .5530599 .56832888 .515625 .59802249 .4781901 .62772628 .43326823 .6425781 .38085938 .6425781 .33691407 .6425781 .29720054 .6314189 .26171876 .60910037 .22623699 .586792 .19832357 .5512034 .17797852 .5023346 .15763347 .4534658 .14746094 .3927053 .14746094 .3200531 .14746094 .26011659 .1570638 .20815532 .17626953 .16416931 .19547527 .12019348 .22436524 .08647665 .26293946 .0630188 .30151368 .039560956 .34554038 .027832032 .39501954 .027832032 .43798829 .027832032 .47591148 .037027997 .50878909 .055419923 .5416667 .07381185 .5777995 .11035156 .6171875 .16503906L.6323242 .15530396C.5991211 .09653727 .5603841 .05351766 .5161133 .026245118 .47184245-.0010172526 .41927085-.0146484379 .35839845-.0146484379 .24869792-.0146484379 .16373699 .025985718 .103515628 .10725403 .05859375 .16770935 .036132814 .23889669 .036132814 .32081605 .036132814 .3868052 .05094401 .44742839 .080566409 .50268557 .110188808 .5579427 .15096028 .60076907 .20288086 .63116458 .25480143 .66156008 .31152345 .6767578 .37304688 .6767578 .42089845 .6767578 .46809898 .66503909 .51464846 .64160159 .5283203 .6344401 .53808596 .6308594 .5439453 .6308594 .5527344 .6308594 .5603841 .63395187 .56689456 .6401367 .5753581 .6489258 .5813802 .6611328 .58496096 .6767578H.6020508M.41503907 .7285156H.3251953L.23242188 .890625H.2475586L.38085938 .7868042 .49267579 .890625H.5073242L.41503907 .7285156Z"/>
<path id="font_2_86" d="M.3203125 .45996095V.30859376H.30419923C.29182945 .35606895 .2759603 .3883616 .2565918 .4054718 .23722331 .42259217 .21256511 .43115235 .18261719 .43115235 .15983074 .43115235 .1414388 .42513529 .1274414 .4131012 .11344401 .40107728 .10644531 .38774619 .10644531 .3731079 .10644531 .35489909 .11165365 .33929444 .12207031 .32629396 .13216146 .31295777 .15266927 .29881288 .18359375 .28385926L.2548828 .2492218C.32096354 .21703594 .3540039 .17460124 .3540039 .121917728 .3540039 .08127848 .33862306 .048517866 .30786134 .023635865 .2770996-.0012359619 .24267578-.013671875 .20458985-.013671875 .1772461-.013671875 .1459961-.0087890629 .110839847 .0009765625 .100097659 .004231771 .091308597 .005859375 .084472659 .005859375 .07698568 .005859375 .071126308 .0016276041 .06689453-.0068359377H.05078125V.15332031H.06689453C.07600912 .10758463 .09342448 .07312012 .119140628 .049926759 .14485677 .026733399 .17366536 .015136719 .2055664 .015136719 .22802735 .015136719 .24633789 .021718344 .26049806 .03488159 .2746582 .04805501 .28173829 .0639089 .28173829 .08244324 .28173829 .10488383 .2738444 .12374369 .25805665 .13902283 .24226888 .15430196 .21077474 .17364502 .16357422 .197052 .116373699 .22046916 .08544922 .24160767 .07080078 .26046754 .056152345 .27900187 .048828126 .30241395 .048828126 .33070375 .048828126 .3674469 .06144206 .398173 .08666992 .42288209 .11189779 .44760133 .14453125 .45996095 .18457031 .45996095 .20214844 .45996095 .22347005 .45621745 .24853516 .44873048 .26513673 .44384767 .27620445 .44140626 .28173829 .44140626 .28694663 .44140626 .29101563 .44254557 .2939453 .44482423 .296875 .44710288 .30029298 .45214845 .30419923 .45996095H.3203125Z"/>
<path id="font_2_3" d="M0 0Z"/>
<path id="font_2_89" d="M.008300781 .44726563H.21875V.42919923H.20507813C.19238281 .42919923 .18269857 .42610679 .17602539 .41992188 .16935222 .41373698 .16601563 .4054362 .16601563 .39501954 .16601563 .3836263 .1694336 .3701172 .17626953 .3544922L.28027345 .107421878 .38476563 .36376954C.3922526 .3819987 .3959961 .39583335 .3959961 .40527345 .3959961 .40983073 .394694 .41357423 .39208985 .4165039 .38850913 .42138673 .3839518 .4247233 .37841798 .42651368 .37288413 .42830406 .36165367 .42919923 .34472657 .42919923V.44726563H.49072267V.42919923C.47379557 .42789714 .4620768 .42447917 .4555664 .4189453 .4441732 .4091797 .43391929 .39290367 .4248047 .3701172L.26611329-.013671875H.24609375L.08642578 .36376954C.07926432 .38134767 .07242838 .39396159 .06591797 .40161134 .05940755 .40926109 .05110677 .4156901 .041015626 .42089845 .03548177 .42382813 .024576823 .42659507 .008300781 .42919923V.44726563Z"/>
<path id="font_2_85" d="M.16210938 .45996095V.359375C.19954427 .42643229 .23795574 .45996095 .27734376 .45996095 .2952474 .45996095 .3100586 .45450846 .32177735 .44360353 .3334961 .43269859 .33935548 .42008464 .33935548 .40576173 .33935548 .3930664 .3351237 .38232423 .32666017 .37353517 .31819663 .3647461 .30810548 .36035157 .29638673 .36035157 .2849935 .36035157 .2722168 .3659668 .25805665 .37719728 .24389649 .38842774 .23339844 .39404298 .2265625 .39404298 .22070313 .39404298 .21435547 .39079795 .20751953 .38430787 .1928711 .37099204 .17773438 .34907533 .16210938 .31855775V.10475159C.16210938 .080083217 .16520183 .061416627 .17138672 .04875183 .17561849 .039983114 .18310547 .032674154 .19384766 .026824952 .20458985 .020985922 .22005208 .018066407 .24023438 .018066407V0H.011230469V.018066407C.034016927 .018066407 .05094401 .021636963 .06201172 .028778077 .07014974 .03397624 .07584635 .04226176 .07910156 .053634645 .080729167 .059158327 .08154297 .074910487 .08154297 .10089111V.2738495C.08154297 .32582093 .08048502 .35675559 .07836914 .36665345 .07625326 .3765615 .07234701 .38378907 .06665039 .38833619 .060953779 .3928833 .0538737 .39515687 .045410158 .39515687 .03531901 .39515687 .023925782 .39272056 .011230469 .3878479L.0063476564 .4053955 .14160156 .45996095H.16210938Z"/>
<path id="font_2_93" d="M.41992188 .13769531 .41455079 0H.020019532V.017578125L.31689454 .41308595H.17041016C.13883464 .41308595 .11816406 .41105143 .10839844 .40698243 .09863281 .40291343 .090657558 .39518229 .084472659 .38378907 .075683597 .36751304 .07063802 .34733073 .06933594 .3232422H.049804689L.052734376 .44726563H.42773438V.42918397L.12792969 .032226564H.29101563C.3251953 .032226564 .34838868 .0351003 .3605957 .04084778 .37280274 .046595258 .38264976 .05670166 .39013673 .07116699 .39534507 .08167521 .3997396 .10385132 .4033203 .13769531H.41992188Z"/>
<path id="font_2_51" d="M.20507813 .31054688V.11735535C.20507813 .07561747 .20963542 .04969279 .21875 .0395813 .2311198 .025238038 .24983724 .018066407 .27490235 .018066407H.30029298V0H.016601563V.018066407H.041503908C.069498699 .018066407 .08951823 .02718099 .1015625 .045410158 .108072917 .0555013 .111328128 .079427089 .111328128 .1171875V.5449219C.111328128 .58658859 .106933597 .61246749 .09814453 .6225586 .08544922 .63688156 .06656901 .64404299 .041503908 .64404299H.016601563V.6621094H.25927735C.31852214 .6621094 .36523438 .6560109 .39941407 .6438141 .43359376 .6316274 .46240235 .6110687 .48583985 .58213809 .50927737 .5532074 .5209961 .5189107 .5209961 .47924806 .5209961 .4252828 .5031738 .38139344 .4675293 .34757997 .43188478 .31377665 .3815104 .296875 .31640626 .296875 .30045573 .296875 .28320313 .2980143 .26464845 .30029298 .24609375 .30257163 .22623699 .3059896 .20507813 .31054688M.20507813 .3388672C.22233074 .33561198 .2376302 .33317057 .25097657 .33154298 .2643229 .32991538 .27571617 .32910157 .28515626 .32910157 .3190104 .32910157 .34822593 .34220378 .37280274 .3684082 .39737956 .39461265 .40966798 .4285482 .40966798 .47021485 .40966798 .4988607 .4038086 .525472 .39208985 .5500488 .3803711 .5746257 .36376954 .5930176 .34228517 .6052246 .32080079 .61743167 .29638673 .62353518 .26904298 .62353518 .2524414 .62353518 .2311198 .6204427 .20507813 .6142578V.3388672Z"/>
<path id="font_2_284" d="M.16210938 .45996095V.359375C.19954427 .42643229 .23795574 .45996095 .27734376 .45996095 .2952474 .45996095 .3100586 .45450846 .32177735 .44360353 .3334961 .43269859 .33935548 .42008464 .33935548 .40576173 .33935548 .3930664 .3351237 .38232423 .32666017 .37353517 .31819663 .3647461 .30810548 .36035157 .29638673 .36035157 .2849935 .36035157 .2722168 .3659668 .25805665 .37719728 .24389649 .38842774 .23339844 .39404298 .2265625 .39404298 .22070313 .39404298 .21435547 .39079795 .20751953 .38430787 .1928711 .37099204 .17773438 .34907533 .16210938 .31855775V.10475159C.16210938 .080083217 .16520183 .061416627 .17138672 .04875183 .17561849 .039983114 .18310547 .032674154 .19384766 .026824952 .20458985 .020985922 .22005208 .018066407 .24023438 .018066407V0H.011230469V.018066407C.034016927 .018066407 .05094401 .021636963 .06201172 .028778077 .07014974 .03397624 .07584635 .04226176 .07910156 .053634645 .080729167 .059158327 .08154297 .074910487 .08154297 .10089111V.2738495C.08154297 .32582093 .08048502 .35675559 .07836914 .36665345 .07625326 .3765615 .07234701 .38378907 .06665039 .38833619 .060953779 .3928833 .0538737 .39515687 .045410158 .39515687 .03531901 .39515687 .023925782 .39272056 .011230469 .3878479L.0063476564 .4053955 .14160156 .45996095H.16210938M.21826172 .5107422H.12841797L.03564453 .67285159H.05078125L.18408203 .56903079 .29589845 .67285159H.31054688L.21826172 .5107422Z"/>
<path id="font_2_79" d="M.1850586 .69433596V.101501468C.1850586 .073527019 .1870931 .054982503 .19116211 .04586792 .19523113 .036763509 .20149739 .029851279 .20996094 .025131226 .21842449 .020421347 .23421224 .018066407 .25732423 .018066407V0H.038085939V.018066407C.05859375 .018066407 .07259115 .020177206 .080078128 .024398804 .0875651 .028630576 .09342448 .035624189 .09765625 .04537964 .10188802 .055145265 .104003909 .07385254 .104003909 .101501468V.50746157C.104003909 .5578766 .102864589 .588857 .10058594 .60040286 .09830729 .6119588 .09464518 .6198476 .08959961 .6240692 .08455404 .62830099 .078125 .63041689 .0703125 .63041689 .061848958 .63041689 .05110677 .6278127 .038085939 .62260439L.029785157 .6396942 .16308594 .69433596H.1850586Z"/>
<path id="font_2_71" d="M.34716798 .05029297C.32535807 .02750651 .30403648 .011149089 .28320313 .0012207031 .26236979-.008707683 .23990886-.013671875 .21582031-.013671875 .16699219-.013671875 .12434896 .006708781 .087890628 .047470094 .051432294 .08824158 .033203126 .14063008 .033203126 .20463562 .033203126 .26863099 .053385419 .32718406 .09375 .3802948 .13411458 .43340556 .18603516 .45996095 .24951172 .45996095 .28889976 .45996095 .3214518 .44742839 .34716798 .42236329V.5050659C.34716798 .5563863 .34594728 .58793136 .34350587 .5997009 .34106446 .6114705 .3372396 .6194763 .33203126 .62371829 .3268229 .6279704 .3203125 .63009646 .3125 .63009646 .30403648 .63009646 .292806 .6274821 .2788086 .6222534L.27246095 .63941958 .40576173 .69433596H.42773438V.1772461C.42773438 .12483724 .42895509 .09285482 .43139649 .08129883 .4338379 .069742839 .43774415 .0616862 .44311524 .057128908 .44848634 .052571615 .4547526 .05029297 .46191407 .05029297 .47070313 .05029297 .48242188 .053059896 .4970703 .05859375L.5024414 .041503908 .3696289-.013671875H.34716798V.05029297M.34716798 .084365848V.31425477C.34521485 .33633933 .33935548 .35647074 .32958985 .37464906 .31982423 .39283753 .30688478 .40655519 .29077149 .415802 .2746582 .425059 .2589518 .4296875 .24365235 .4296875 .21500652 .4296875 .18945313 .41685996 .16699219 .39120484 .1373698 .35744224 .122558597 .3080902 .122558597 .2431488 .122558597 .17755635 .13688152 .12730408 .16552735 .09239197 .19417317 .057490034 .22607422 .040039064 .26123048 .040039064 .29085288 .040039064 .3194987 .054814657 .34716798 .084365848Z"/>
<path id="font_0_93" d="M.41992188 .13769531 .41455079 0H.020019532V.017578125L.31689454 .41308595H.17041016C.13883464 .41308595 .11816406 .41105143 .10839844 .40698243 .09863281 .40291343 .090657558 .39518229 .084472659 .38378907 .075683597 .36751304 .07063802 .34733073 .06933594 .3232422H.049804689L.052734376 .44726563H.42773438V.42918397L.12792969 .032226564H.29101563C.3251953 .032226564 .34838868 .0351003 .3605957 .04084778 .37280274 .046595258 .38264976 .05670166 .39013673 .07116699 .39534507 .08167521 .3997396 .10385132 .4033203 .13769531H.41992188Z"/>
<path id="font_0_85" d="M.16210938 .45996095V.359375C.19954427 .42643229 .23795574 .45996095 .27734376 .45996095 .2952474 .45996095 .3100586 .45450846 .32177735 .44360353 .3334961 .43269859 .33935548 .42008464 .33935548 .40576173 .33935548 .3930664 .3351237 .38232423 .32666017 .37353517 .31819663 .3647461 .30810548 .36035157 .29638673 .36035157 .2849935 .36035157 .2722168 .3659668 .25805665 .37719728 .24389649 .38842774 .23339844 .39404298 .2265625 .39404298 .22070313 .39404298 .21435547 .39079795 .20751953 .38430787 .1928711 .37099204 .17773438 .34907533 .16210938 .31855775V.10475159C.16210938 .080083217 .16520183 .061416627 .17138672 .04875183 .17561849 .039983114 .18310547 .032674154 .19384766 .026824952 .20458985 .020985922 .22005208 .018066407 .24023438 .018066407V0H.011230469V.018066407C.034016927 .018066407 .05094401 .021636963 .06201172 .028778077 .07014974 .03397624 .07584635 .04226176 .07910156 .053634645 .080729167 .059158327 .08154297 .074910487 .08154297 .10089111V.2738495C.08154297 .32582093 .08048502 .35675559 .07836914 .36665345 .07625326 .3765615 .07234701 .38378907 .06665039 .38833619 .060953779 .3928833 .0538737 .39515687 .045410158 .39515687 .03531901 .39515687 .023925782 .39272056 .011230469 .3878479L.0063476564 .4053955 .14160156 .45996095H.16210938Z"/>
<path id="font_0_78" d="M.16357422 .69433596V.24951172L.27734376 .35302735C.30143229 .37516276 .3154297 .38916017 .31933595 .39501954 .3219401 .39892579 .3232422 .40283204 .3232422 .40673829 .3232422 .4132487 .32055665 .41886393 .31518556 .42358399 .30981446 .42830406 .300944 .4309896 .28857423 .43164063V.44726563H.48291017V.43164063C.45621745 .4309896 .43400065 .42692057 .41625978 .4194336 .3985189 .41194663 .379069 .39860026 .35791017 .37939454L.24316406 .2734375 .35791017 .12869263C.3898112 .08873495 .41129557 .06339518 .42236329 .05267334 .43798829 .037404378 .45166017 .027491251 .4633789 .02293396 .47151695 .019688925 .4856771 .018066407 .5058594 .018066407V0H.28857423V.018066407C.300944 .018391928 .30932618 .020258585 .3137207 .023666382 .31811524 .02708435 .3203125 .03187561 .3203125 .03804016 .3203125 .045516969 .3138021 .05753581 .30078126 .07409668L.16357422 .24902344V.10090637C.16357422 .071996059 .16560872 .05298869 .16967774 .043884279 .17374675 .03479004 .17952474 .028294882 .18701172 .024398804 .1944987 .020502726 .21077474 .018391928 .23583985 .018066407V0H.008300781V.018066407C.03108724 .018066407 .048177083 .020833334 .059570314 .026367188 .06640625 .029937745 .071614589 .03546651 .07519531 .04295349 .080078128 .053685506 .08251953 .07222494 .08251953 .09857178V.5055084C.08251953 .5572255 .08138021 .588857 .07910156 .60040286 .076822917 .6119588 .07307943 .619929 .067871097 .62431338 .06266276 .6287079 .055826826 .63090518 .04736328 .63090518 .040527345 .63090518 .030273438 .62813827 .016601563 .62260439L.008300781 .6396942 .14111328 .69433596H.16357422Z"/>
<path id="font_0_88" d="M.42333985 .44726563V.17626953C.42333985 .12451172 .42456056 .09285482 .42700196 .08129883 .42944337 .069742839 .4333496 .0616862 .4387207 .057128908 .4440918 .052571615 .45035807 .05029297 .45751954 .05029297 .4676107 .05029297 .4790039 .053059896 .49169923 .05859375L.49853517 .041503908 .3647461-.013671875H.34277345V.08105469C.30436198 .03938802 .2750651 .013183594 .2548828 .0024414063 .23470052-.008300781 .2133789-.013671875 .19091797-.013671875 .16585286-.013671875 .14412435-.0064290368 .12573242 .008056641 .10734049 .022542319 .094563808 .041178388 .087402347 .063964847 .08024088 .086751308 .076660159 .11897787 .076660159 .16064453V.36035157C.076660159 .3815104 .07438151 .39615885 .06982422 .40429688 .06526693 .4124349 .05851237 .41870118 .049560548 .4230957 .040608724 .42749024 .024414063 .42952476 .0009765625 .42919923V.44726563H.15771485V.14868164C.15771485 .1071167 .16495769 .07983907 .17944336 .066848758 .19392903 .05385844 .21142578 .04736328 .2319336 .04736328 .24593099 .04736328 .26180015 .05174764 .27954103 .060516359 .2972819 .06928507 .31835938 .086003627 .34277345 .110672V.3634491C.34277345 .3887787 .33813478 .40590415 .32885743 .41482545 .31958009 .42375694 .30029298 .4285482 .2709961 .42919923V.44726563H.42333985Z"/>
<path id="font_0_21" d="M.4584961 .12792969 .41210938 0H.021484375V.018096924C.13639324 .12308756 .21728516 .20883687 .26416017 .27534486 .31103517 .341863 .33447267 .40267436 .33447267 .45777894 .33447267 .49983216 .3216146 .53438827 .29589845 .56144717 .27018229 .58851626 .23942058 .6020508 .20361328 .6020508 .1710612 .6020508 .1418457 .5924886 .1159668 .57336428 .09008789 .5542399 .07096354 .5262044 .05859375 .4892578H.040527345C.048665365 .5493266 .06958008 .59542849 .103271488 .6275635 .13696289 .6597087 .17903646 .67578127 .22949219 .67578127 .28320313 .67578127 .3280436 .6585286 .36401368 .62402346 .39998374 .58951827 .41796876 .5488281 .41796876 .5019531 .41796876 .46842448 .41015626 .43489585 .39453126 .4013672 .37044273 .3486328 .33138023 .292806 .27734376 .23388672 .19628906 .14534505 .14567058 .09195963 .12548828 .07373047H.29833985C.3334961 .07373047 .3581543 .075042728 .37231446 .07766724 .3864746 .08030192 .3992513 .085642497 .41064454 .093688968 .42203776 .101735439 .43196617 .11314901 .4404297 .12792969H.4584961Z"/>
<path id="font_0_19" d="M.036132814 .32714845C.036132814 .40266929 .047526044 .46769206 .0703125 .5222168 .09309896 .5767415 .1233724 .6173503 .16113281 .64404299 .19042969 .66520187 .22070313 .67578127 .25195313 .67578127 .30273438 .67578127 .34830729 .64990237 .38867188 .59814456 .4391276 .5340169 .46435548 .44710288 .46435548 .33740235 .46435548 .26057945 .45328776 .1953125 .43115235 .14160156 .40901695 .087890628 .38077799 .048909505 .34643556 .024658204 .3120931 .00040690104 .27897135-.01171875 .24707031-.01171875 .18391927-.01171875 .13134766 .025553385 .08935547 .100097659 .0538737 .16292317 .036132814 .23860677 .036132814 .32714845M.13183594 .314682C.13183594 .22346497 .1430664 .14902751 .16552735 .09136963 .18408203 .042826337 .2117513 .018554688 .24853516 .018554688 .26611329 .018554688 .28434245 .026453654 .30322267 .042251588 .32210288 .05804952 .33642579 .08451843 .3461914 .121658328 .36116538 .17769878 .36865235 .2566986 .36865235 .35865785 .36865235 .43423973 .36083985 .49727885 .34521485 .54777529 .3334961 .58524069 .31835938 .61179098 .2998047 .62742617 .28645835 .6381785 .27034507 .6435547 .25146485 .6435547 .22932942 .6435547 .20963542 .63361617 .19238281 .613739 .16894531 .58670046 .1529948 .5441844 .14453125 .4861908 .1360677 .4282074 .13183594 .3710378 .13183594 .314682Z"/>
<path id="font_0_28" d="M.052734376-.013671875V.0043945314C.095052089 .0050455729 .13444011 .014892578 .17089844 .033935548 .20735677 .052978517 .2425944 .08626302 .27661134 .13378906 .31062828 .18131511 .3343099 .2335612 .34765626 .29052735 .29654948 .25764976 .25032554 .24121094 .20898438 .24121094 .16243489 .24121094 .122558597 .25919596 .08935547 .29516603 .056152345 .33113609 .03955078 .37890626 .03955078 .43847657 .03955078 .49641929 .056152345 .54801437 .08935547 .5932617 .12939453 .6482747 .18164063 .67578127 .24609375 .67578127 .30045573 .67578127 .34700523 .6533203 .3857422 .60839846 .43326823 .5527344 .45703126 .48404948 .45703126 .40234376 .45703126 .32877604 .43896485 .26017253 .40283204 .1965332 .36669923 .13289388 .31640626 .080078128 .25195313 .038085939 .19954427 .0035807293 .14241536-.013671875 .080566409-.013671875H.052734376M.35546876 .32704164C.36132813 .36923728 .3642578 .40299989 .3642578 .42832948 .3642578 .45981346 .35888673 .4938151 .34814454 .5303345 .33740235 .5668538 .32218424 .5948537 .30249024 .6143341 .28279624 .6338145 .26041667 .6435547 .23535156 .6435547 .2063802 .6435547 .18098958 .63056948 .15917969 .604599 .1373698 .57862856 .12646485 .53999838 .12646485 .4887085 .12646485 .4202067 .14095052 .36664329 .16992188 .3280182 .19108074 .3000946 .21712239 .2861328 .24804688 .2861328 .26302085 .2861328 .28076173 .28970338 .30126954 .29684449 .32177735 .3039856 .33984376 .3140513 .35546876 .32704164Z"/>
</defs>
<use data-text="1" xlink:href="#font_0_20" transform="matrix(12,0,0,-12,294.65,796.896)"/>
<use data-text=" " xlink:href="#font_0_3" transform="matrix(12,0,0,-12,300.65,796.896)"/>
<use data-text=" " xlink:href="#font_0_3" transform="matrix(12,0,0,-12,85.104,810.696)"/>
<use data-text=" " xlink:href="#font_1_3" transform="matrix(48,0,0,-48,297.65,101.41998)"/>
<use data-text=" " xlink:href="#font_1_3" transform="matrix(48,0,0,-48,297.65,174.97998)"/>
<use data-text="Z" xlink:href="#font_1_61" transform="matrix(50.04,0,0,-50.04,114.98,250.33997)"/>
<use data-text="H" xlink:href="#font_1_43" transform="matrix(50.04,0,0,-50.04,148.35669,250.33997)"/>
<use data-text="U" xlink:href="#font_1_56" transform="matrix(50.04,0,0,-50.04,187.28781,250.33997)"/>
<use data-text="A" xlink:href="#font_1_36" transform="matrix(50.04,0,0,-50.04,223.41669,250.33997)"/>
<use data-text="N" xlink:href="#font_1_49" transform="matrix(50.04,0,0,-50.04,259.54557,250.33997)"/>
<use data-text=" " xlink:href="#font_1_3" transform="matrix(50.04,0,0,-50.04,295.61,250.33997)"/>
<use data-text="F" xlink:href="#font_1_41" transform="matrix(50.04,0,0,-50.04,308.09,250.33997)"/>
<use data-text="A" xlink:href="#font_1_36" transform="matrix(50.04,0,0,-50.04,338.66444,250.33997)"/>
<use data-text="L" xlink:href="#font_1_47" transform="matrix(50.04,0,0,-50.04,374.7933,250.33997)"/>
<use data-text="U" xlink:href="#font_1_56" transform="matrix(50.04,0,0,-50.04,408.16999,250.33997)"/>
<use data-text="N" xlink:href="#font_1_49" transform="matrix(50.04,0,0,-50.04,444.29887,250.33997)"/>
<use data-text=" " xlink:href="#font_1_3" transform="matrix(50.04,0,0,-50.04,480.46,250.33997)"/>
<use data-text="O" xlink:href="#font_2_50" transform="matrix(26.04,0,0,-26.04,176.3,303.76997)"/>
<use data-text="t" xlink:href="#font_2_87" transform="matrix(26.04,0,0,-26.04,195.10089,303.76997)"/>
<use data-text="&#x00e1;" xlink:href="#font_2_105" transform="matrix(26.04,0,0,-26.04,202.34001,303.76997)"/>
<use data-text="&#x010d;" xlink:href="#font_2_254" transform="matrix(26.04,0,0,-26.04,213.90178,303.76997)"/>
<use data-text="e" xlink:href="#font_2_72" transform="matrix(26.04,0,0,-26.04,225.38542,303.76997)"/>
<use data-text="n" xlink:href="#font_2_81" transform="matrix(26.04,0,0,-26.04,236.94719,303.76997)"/>
<use data-text="&#x00ed;" xlink:href="#font_2_116" transform="matrix(26.04,0,0,-26.04,249.9672,303.76997)"/>
<use data-text=" " xlink:href="#font_0_3" transform="matrix(26.04,0,0,-26.04,257.21,303.76997)"/>
<use data-text="K" xlink:href="#font_0_46" transform="matrix(26.04,0,0,-26.04,263.69,303.76997)"/>
<use data-text="o" xlink:href="#font_0_82" transform="matrix(26.04,0,0,-26.04,282.49089,303.76997)"/>
<use data-text="l" xlink:href="#font_0_79" transform="matrix(26.04,0,0,-26.04,295.51087,303.76997)"/>
<use data-text="e" xlink:href="#font_0_72" transform="matrix(26.04,0,0,-26.04,302.75,303.76997)"/>
<use data-text="m" xlink:href="#font_0_80" transform="matrix(26.04,0,0,-26.04,314.2076,303.76997)"/>
<use data-text=" " xlink:href="#font_0_3" transform="matrix(26.04,0,0,-26.04,334.39,303.76997)"/>
<use data-text="Z" xlink:href="#font_2_61" transform="matrix(26.04,0,0,-26.04,340.87,303.76997)"/>
<use data-text="&#x00e1;" xlink:href="#font_2_105" transform="matrix(26.04,0,0,-26.04,356.78044,303.76997)"/>
<use data-text="k" xlink:href="#font_2_78" transform="matrix(26.04,0,0,-26.04,368.3422,303.76997)"/>
<use data-text="o" xlink:href="#font_2_82" transform="matrix(26.04,0,0,-26.04,381.36219,303.76997)"/>
<use data-text="n" xlink:href="#font_2_81" transform="matrix(26.04,0,0,-26.04,394.48634,303.76997)"/>
<use data-text="a" xlink:href="#font_2_68" transform="matrix(26.04,0,0,-26.04,407.50633,303.76997)"/>
<use data-text=" " xlink:href="#font_0_3" transform="matrix(26.04,0,0,-26.04,418.99,303.76997)"/>
<use data-text=" " xlink:href="#font_1_3" transform="matrix(26.04,0,0,-26.04,297.65,348.40998)"/>
<use data-text=" " xlink:href="#font_1_3" transform="matrix(26.04,0,0,-26.04,297.65,392.81)"/>
<use data-text="L" xlink:href="#font_1_47" transform="matrix(26.04,0,0,-26.04,235.25,437.21)"/>
<use data-text="i" xlink:href="#font_1_76" transform="matrix(26.04,0,0,-26.04,252.64998,437.21)"/>
<use data-text=" " xlink:href="#font_1_3" transform="matrix(26.04,0,0,-26.04,259.85,437.21)"/>
<use data-text="H" xlink:href="#font_1_43" transform="matrix(26.04,0,0,-26.04,266.33,437.21)"/>
<use data-text="o" xlink:href="#font_1_82" transform="matrix(26.04,0,0,-26.04,286.5891,437.21)"/>
<use data-text="n" xlink:href="#font_1_81" transform="matrix(26.04,0,0,-26.04,299.6091,437.21)"/>
<use data-text="g" xlink:href="#font_1_74" transform="matrix(26.04,0,0,-26.04,314.08735,437.21)"/>
<use data-text="z" xlink:href="#font_1_93" transform="matrix(26.04,0,0,-26.04,327.10734,437.21)"/>
<use data-text="h" xlink:href="#font_1_75" transform="matrix(26.04,0,0,-26.04,338.56495,437.21)"/>
<use data-text="i" xlink:href="#font_1_76" transform="matrix(26.04,0,0,-26.04,352.96507,437.21)"/>
<use data-text=" " xlink:href="#font_0_3" transform="matrix(26.04,0,0,-26.04,360.19,437.21)"/>
<use data-text=" " xlink:href="#font_0_3" transform="matrix(26.04,0,0,-26.04,297.65,481.38999)"/>
<use data-text=" " xlink:href="#font_0_3" transform="matrix(26.04,0,0,-26.04,297.65,525.79)"/>
<use data-text=" " xlink:href="#font_0_3" transform="matrix(26.04,0,0,-26.04,297.65,570.18997)"/>
<use data-text=" " xlink:href="#font_0_3" transform="matrix(26.04,0,0,-26.04,297.65,614.47)"/>
<use data-text="&#x010c;" xlink:href="#font_2_253" transform="matrix(20.04,0,0,-20.04,249.05,653.23)"/>
<use data-text="e" xlink:href="#font_2_72" transform="matrix(20.04,0,0,-20.04,262.4167,653.23)"/>
<use data-text="s" xlink:href="#font_2_86" transform="matrix(20.04,0,0,-20.04,271.25434,653.23)"/>
<use data-text="k" xlink:href="#font_2_78" transform="matrix(20.04,0,0,-20.04,279.0499,653.23)"/>
<use data-text="&#x00e1;" xlink:href="#font_2_105" transform="matrix(20.04,0,0,-20.04,289.10997,653.23)"/>
<use data-text=" " xlink:href="#font_2_3" transform="matrix(20.04,0,0,-20.04,298.00773,653.23)"/>
<use data-text="v" xlink:href="#font_2_89" transform="matrix(20.04,0,0,-20.04,302.91755,653.23)"/>
<use data-text="e" xlink:href="#font_2_72" transform="matrix(20.04,0,0,-20.04,312.93754,653.23)"/>
<use data-text="r" xlink:href="#font_2_85" transform="matrix(20.04,0,0,-20.04,321.8353,653.23)"/>
<use data-text="z" xlink:href="#font_2_93" transform="matrix(20.04,0,0,-20.04,328.56874,653.23)"/>
<use data-text="e" xlink:href="#font_2_72" transform="matrix(20.04,0,0,-20.04,337.4665,653.23)"/>
<use data-text=" " xlink:href="#font_0_3" transform="matrix(20.04,0,0,-20.04,346.27,653.23)"/>
<use data-text=" " xlink:href="#font_0_3" transform="matrix(20.04,0,0,-20.04,297.65,689.74)"/>
<use data-text="P" xlink:href="#font_2_51" transform="matrix(20.04,0,0,-20.04,216.89,726.22)"/>
<use data-text="&#x0159;" xlink:href="#font_2_284" transform="matrix(20.04,0,0,-20.04,228.03224,726.22)"/>
<use data-text="e" xlink:href="#font_2_72" transform="matrix(20.04,0,0,-20.04,234.74565,726.22)"/>
<use data-text="k" xlink:href="#font_2_78" transform="matrix(20.04,0,0,-20.04,243.64342,726.22)"/>
<use data-text="l" xlink:href="#font_2_79" transform="matrix(20.04,0,0,-20.04,253.66342,726.22)"/>
<use data-text="a" xlink:href="#font_2_68" transform="matrix(20.04,0,0,-20.04,259.23454,726.22)"/>
<use data-text="d" xlink:href="#font_2_71" transform="matrix(20.04,0,0,-20.04,267.992,726.22)"/>
<use data-text=" " xlink:href="#font_0_3" transform="matrix(20.04,0,0,-20.04,278.09,726.22)"/>
<use data-text="z" xlink:href="#font_0_93" transform="matrix(20.04,0,0,-20.04,283.13,726.22)"/>
<use data-text=" " xlink:href="#font_0_3" transform="matrix(20.04,0,0,-20.04,291.89,726.22)"/>
<use data-text="r" xlink:href="#font_0_85" transform="matrix(20.04,0,0,-20.04,296.93,726.22)"/>
<use data-text="o" xlink:href="#font_0_82" transform="matrix(20.04,0,0,-20.04,303.52314,726.22)"/>
<use data-text="k" xlink:href="#font_0_78" transform="matrix(20.04,0,0,-20.04,313.54313,726.22)"/>
<use data-text="u" xlink:href="#font_0_88" transform="matrix(20.04,0,0,-20.04,323.5631,726.22)"/>
<use data-text=" " xlink:href="#font_0_3" transform="matrix(20.04,0,0,-20.04,333.67,726.22)"/>
<use data-text="2" xlink:href="#font_0_21" transform="matrix(20.04,0,0,-20.04,338.59,726.22)"/>
<use data-text="0" xlink:href="#font_0_19" transform="matrix(20.04,0,0,-20.04,348.61,726.22)"/>
<use data-text="1" xlink:href="#font_0_20" transform="matrix(20.04,0,0,-20.04,358.62998,726.22)"/>
<use data-text="9" xlink:href="#font_0_28" transform="matrix(20.04,0,0,-20.04,368.64997,726.22)"/>
<use data-text=" " xlink:href="#font_0_3" transform="matrix(20.04,0,0,-20.04,378.55,726.22)"/>
<path transform="matrix(1,0,0,-1,0,841.92)" d="M235.15-1.08H361.15V72.42H235.15Z" fill="#ffffff" fill-rule="evenodd"/>
</svg>
