<svg xmlns="http://www.w3.org/2000/svg" xmlns:xlink="http://www.w3.org/1999/xlink" xmlns:inkscape="http://www.inkscape.org/namespaces/inkscape" version="1.1" width="595.32" height="841.92" viewBox="0 0 595.32 841.92">
<text xml:space="preserve" transform="matrix(1 0 -0 1 0 841.92)" font-size="12" font-family="Times New Roman"><tspan y="-45.024" x="294.65">4</tspan></text>
<text xml:space="preserve" transform="matrix(1 0 -0 1 0 841.92)" font-size="12" font-family="Times New Roman"><tspan y="-45.024" x="300.65"> </tspan></text>
<text xml:space="preserve" transform="matrix(1 0 -0 1 0 841.92)" font-size="12" font-family="Times New Roman"><tspan y="-31.224" x="85.104"> </tspan></text>
<text xml:space="preserve" transform="matrix(1 0 -0 1 0 841.92)" font-size="12" font-family="Times New Roman"><tspan y="-774.48" x="85.104"> </tspan></text>
<text xml:space="preserve" transform="matrix(1 0 -0 1 0 841.92)" font-size="12" font-family="Times New Roman"><tspan y="-774.48" x="99.264 107.928 111.264 117.144 123.144 129.252 135.132 138.132 144.132 150.132 153.468 159.468 165.72 171.48 176.76 182.76 185.76 191.76 201.096 206.424 212.424">Qigong bojov&#x00fd;ch um&#x011b;n&#x00ed;</tspan></text>
<text xml:space="preserve" transform="matrix(1 0 -0 1 0 841.92)" font-size="12" font-family="Times New Roman"><tspan y="-774.48" x="215.93"> </tspan></text>
<text xml:space="preserve" transform="matrix(1 0 -0 1 0 841.92)" font-size="12" font-family="Times New Roman"><tspan y="-774.48" x="219.41 222.41 225.41 228.41 231.41 234.41 237.41">.......</tspan></text>
<text xml:space="preserve" transform="matrix(1 0 -0 1 0 841.92)" font-size="12" font-family="Times New Roman"><tspan y="-774.48" x="240.41 243.41 246.41 249.41 252.41 255.41 258.41 261.41 264.41 267.41 270.41 273.41 276.41 279.41 282.41 285.41 288.41 291.41 294.41 297.41 300.41 303.41 306.41 309.41 312.41 315.41 318.41 321.41 324.41 327.41 330.41 333.41 336.41 339.41 342.41 345.41 348.41 351.41 354.41 357.41 360.41 363.41 366.41 369.41 372.41 375.41 378.41 381.41 384.41 387.41 390.41 393.41 396.41 399.41 402.41 405.41 408.41 411.41 414.41 417.41 420.41 423.41 426.41 429.41 432.41 435.41 438.41 441.41 444.41 447.41 450.41 453.41 456.41">.........................................................................</tspan></text>
<text xml:space="preserve" transform="matrix(1 0 -0 1 0 841.92)" font-size="12" font-family="Times New Roman"><tspan y="-774.48" x="459.46 462.46 465.46 468.46 471.46 474.46 477.46 480.46 483.46 486.46 489.46">.......... </tspan></text>
<text xml:space="preserve" transform="matrix(1 0 -0 1 0 841.92)" font-size="12" font-family="Times New Roman"><tspan y="-774.48" x="492.46 498.46 504.46">125</tspan></text>
<text xml:space="preserve" transform="matrix(1 0 -0 1 0 841.92)" font-size="12" font-family="Times New Roman"><tspan y="-774.48" x="510.46"> </tspan></text>
<text xml:space="preserve" transform="matrix(1 0 -0 1 0 841.92)" font-size="12" font-family="Times New Roman"><tspan y="-760.68" x="85.104"> </tspan></text>
<text xml:space="preserve" transform="matrix(1 0 -0 1 0 841.92)" font-size="12" font-family="Times New Roman"><tspan y="-760.68" x="99.264 106.596 112.596 118.596 124.596 129.864">Touha </tspan></text>
<text xml:space="preserve" transform="matrix(1 0 -0 1 0 841.92)" font-size="12" font-family="Times New Roman"><tspan y="-760.68" x="132.86 137.528 142.82 145.82 151.82 155.81601 161.06002 167.16802 173.16802 178.44802 184.44802 189.72801">se p&#x0159;edv&#x00e1;d&#x011b;t</tspan></text>
<text xml:space="preserve" transform="matrix(1 0 -0 1 0 841.92)" font-size="12" font-family="Times New Roman"><tspan y="-760.68" x="193.25"> </tspan></text>
<text xml:space="preserve" transform="matrix(1 0 -0 1 0 841.92)" font-size="12" font-family="Times New Roman"><tspan y="-760.68" x="198.41 201.41 204.41 207.41 210.41 213.41 216.41">.......</tspan></text>
<text xml:space="preserve" transform="matrix(1 0 -0 1 0 841.92)" font-size="12" font-family="Times New Roman"><tspan y="-760.68" x="219.41 222.41 225.41 228.41 231.41 234.41 237.41 240.41 243.41 246.41 249.41 252.41 255.41 258.41 261.41 264.41 267.41 270.41 273.41 276.41 279.41 282.41 285.41 288.41 291.41 294.41 297.41 300.41 303.41 306.41 309.41 312.41 315.41 318.41 321.41 324.41 327.41 330.41 333.41 336.41 339.41 342.41 345.41 348.41 351.41 354.41 357.41 360.41 363.41 366.41 369.41 372.41 375.41 378.41 381.41 384.41 387.41 390.41 393.41 396.41 399.41 402.41 405.41 408.41 411.41 414.41 417.41 420.41 423.41 426.41 429.41 432.41 435.41 438.41 441.41 444.41 447.41 450.41 453.41 456.41">................................................................................</tspan></text>
<text xml:space="preserve" transform="matrix(1 0 -0 1 0 841.92)" font-size="12" font-family="Times New Roman"><tspan y="-760.68" x="459.46 462.46 465.46 468.46 471.46 474.46 477.46 480.46 483.46 486.46 489.46">.......... </tspan></text>
<text xml:space="preserve" transform="matrix(1 0 -0 1 0 841.92)" font-size="12" font-family="Times New Roman"><tspan y="-760.68" x="492.46 498.46 504.46">127</tspan></text>
<text xml:space="preserve" transform="matrix(1 0 -0 1 0 841.92)" font-size="12" font-family="Times New Roman"><tspan y="-760.68" x="510.46"> </tspan></text>
<text xml:space="preserve" transform="matrix(1 0 -0 1 0 841.92)" font-size="12" font-family="Times New Roman,Bold" font-weight="bold"><tspan y="-746.86" x="85.104 92.30399 97.69199 102.972 109.68 116.38801 122.38801 127.05601 133.77602 139.77602 142.77602 147.44402 152.77202 159.44402 169.29602">P&#x0159;edn&#x00e1;&#x0161;ka sedm&#x00e1;</tspan></text>
<text xml:space="preserve" transform="matrix(1 0 -0 1 0 841.92)" font-size="12" font-family="Times New Roman,Bold" font-weight="bold"><tspan y="-746.86" x="175.46"> </tspan></text>
<text xml:space="preserve" transform="matrix(1 0 -0 1 0 841.92)" font-size="12" font-family="Times New Roman"><tspan y="-746.86" x="177.38 180.38 183.38 186.38 189.38 192.38 195.38">.......</tspan></text>
<text xml:space="preserve" transform="matrix(1 0 -0 1 0 841.92)" font-size="12" font-family="Times New Roman"><tspan y="-746.86" x="198.41 201.41 204.41 207.41 210.41 213.41 216.41 219.41 222.41 225.41 228.41 231.41 234.41 237.41 240.41 243.41 246.41 249.41 252.41 255.41 258.41 261.41 264.41 267.41 270.41 273.41 276.41 279.41 282.41 285.41 288.41 291.41 294.41 297.41 300.41 303.41 306.41 309.41 312.41 315.41 318.41 321.41 324.41 327.41 330.41 333.41 336.41 339.41 342.41 345.41 348.41 351.41 354.41 357.41 360.41 363.41 366.41 369.41 372.41 375.41 378.41 381.41 384.41 387.41 390.41 393.41 396.41 399.41 402.41 405.41 408.41 411.41 414.41 417.41 420.41 423.41 426.41 429.41 432.41 435.41 438.41 441.41 444.41 447.41 450.41 453.41 456.41">.......................................................................................</tspan></text>
<text xml:space="preserve" transform="matrix(1 0 -0 1 0 841.92)" font-size="12" font-family="Times New Roman"><tspan y="-746.86" x="459.46 462.46 465.46 468.46 471.46 474.46 477.46 480.46 483.46 486.46">..........</tspan></text>
<text xml:space="preserve" transform="matrix(1 0 -0 1 0 841.92)" font-size="12" font-family="Times New Roman,Bold" font-weight="bold"><tspan y="-746.86" x="489.46"> </tspan></text>
<text xml:space="preserve" transform="matrix(1 0 -0 1 0 841.92)" font-size="12" font-family="Times New Roman,Bold" font-weight="bold"><tspan y="-746.86" x="492.46 498.46 504.46">131</tspan></text>
<text xml:space="preserve" transform="matrix(1 0 -0 1 0 841.92)" font-size="12" font-family="Times New Roman"><tspan y="-746.86" x="510.46"> </tspan></text>
<text xml:space="preserve" transform="matrix(1 0 -0 1 0 841.92)" font-size="12" font-family="Times New Roman"><tspan y="-733.06" x="85.104"> </tspan></text>
<text xml:space="preserve" transform="matrix(1 0 -0 1 0 841.92)" font-size="12" font-family="Times New Roman"><tspan y="-733.06" x="99.264 107.928 110.928 116.29201 121.572017 127.572017 130.90802 134.28002 139.56002 145.56002">O zab&#x00ed;jen&#x00ed;</tspan></text>
<text xml:space="preserve" transform="matrix(1 0 -0 1 0 841.92)" font-size="12" font-family="Times New Roman"><tspan y="-733.06" x="148.94"> </tspan></text>
<text xml:space="preserve" transform="matrix(1 0 -0 1 0 841.92)" font-size="12" font-family="Times New Roman"><tspan y="-733.06" x="153.38 156.38 159.38 162.38">....</tspan></text>
<text xml:space="preserve" transform="matrix(1 0 -0 1 0 841.92)" font-size="12" font-family="Times New Roman"><tspan y="-733.06" x="165.38 168.38 171.38">...</tspan></text>
<text xml:space="preserve" transform="matrix(1 0 -0 1 0 841.92)" font-size="12" font-family="Times New Roman"><tspan y="-733.06" x="174.38 177.38 180.38 183.38 186.38 189.38 192.38 195.38 198.38 201.38 204.38 207.38 210.38 213.38 216.38 219.38 222.38 225.38 228.38 231.38 234.38 237.38 240.38 243.38 246.38 249.38 252.38 255.38 258.38 261.38 264.38 267.38 270.38 273.38 276.38 279.38 282.38 285.38 288.38 291.38 294.38 297.38 300.38 303.38 306.38 309.38 312.38 315.38 318.38 321.38 324.38 327.38 330.38 333.38 336.38 339.38 342.38 345.38 348.38 351.38 354.38 357.38 360.38 363.38 366.38 369.38 372.38 375.38 378.38 381.38 384.38 387.38 390.38 393.38 396.38 399.38 402.38 405.38 408.38 411.38 414.38 417.38 420.38 423.38 426.38 429.38 432.38 435.38 438.38 441.38 444.38 447.38 450.38 453.38 456.38">...............................................................................................</tspan></text>
<text xml:space="preserve" transform="matrix(1 0 -0 1 0 841.92)" font-size="12" font-family="Times New Roman"><tspan y="-733.06" x="459.46 462.46 465.46 468.46 471.46 474.46 477.46 480.46 483.46 486.46 489.46">.......... </tspan></text>
<text xml:space="preserve" transform="matrix(1 0 -0 1 0 841.92)" font-size="12" font-family="Times New Roman"><tspan y="-733.06" x="492.46 498.46 504.46">131</tspan></text>
<text xml:space="preserve" transform="matrix(1 0 -0 1 0 841.92)" font-size="12" font-family="Times New Roman"><tspan y="-733.06" x="510.46"> </tspan></text>
<text xml:space="preserve" transform="matrix(1 0 -0 1 0 841.92)" font-size="12" font-family="Times New Roman"><tspan y="-719.26" x="85.104"> </tspan></text>
<text xml:space="preserve" transform="matrix(1 0 -0 1 0 841.92)" font-size="12" font-family="Times New Roman"><tspan y="-719.26" x="99.264 107.928 110.928 116.928 122.928 126.264 129.6 135.6 140.92801 146.92801 150.264 153.264 162.6 167.92801 172.59601">O poj&#x00ed;d&#x00e1;n&#x00ed; masa</tspan></text>
<text xml:space="preserve" transform="matrix(1 0 -0 1 0 841.92)" font-size="12" font-family="Times New Roman"><tspan y="-719.26" x="177.86"> </tspan></text>
<text xml:space="preserve" transform="matrix(1 0 -0 1 0 841.92)" font-size="12" font-family="Times New Roman"><tspan y="-719.26" x="180.38 183.38 186.38 189.38 192.38 195.38 198.38">.......</tspan></text>
<text xml:space="preserve" transform="matrix(1 0 -0 1 0 841.92)" font-size="12" font-family="Times New Roman"><tspan y="-719.26" x="201.41 204.41 207.41 210.41 213.41 216.41 219.41 222.41 225.41 228.41 231.41 234.41 237.41 240.41 243.41 246.41 249.41 252.41 255.41 258.41 261.41 264.41 267.41 270.41 273.41 276.41 279.41 282.41 285.41 288.41 291.41 294.41 297.41 300.41 303.41 306.41 309.41 312.41 315.41 318.41 321.41 324.41 327.41 330.41 333.41 336.41 339.41 342.41 345.41 348.41 351.41 354.41 357.41 360.41 363.41 366.41 369.41 372.41 375.41 378.41 381.41 384.41 387.41 390.41 393.41 396.41 399.41 402.41 405.41 408.41 411.41 414.41 417.41 420.41 423.41 426.41 429.41 432.41 435.41 438.41 441.41 444.41 447.41 450.41 453.41 456.41">......................................................................................</tspan></text>
<text xml:space="preserve" transform="matrix(1 0 -0 1 0 841.92)" font-size="12" font-family="Times New Roman"><tspan y="-719.26" x="459.46 462.46 465.46 468.46 471.46 474.46 477.46 480.46 483.46 486.46 489.46">.......... </tspan></text>
<text xml:space="preserve" transform="matrix(1 0 -0 1 0 841.92)" font-size="12" font-family="Times New Roman"><tspan y="-719.26" x="492.46 498.46 504.46">134</tspan></text>
<text xml:space="preserve" transform="matrix(1 0 -0 1 0 841.92)" font-size="12" font-family="Times New Roman"><tspan y="-719.26" x="510.46"> </tspan></text>
<text xml:space="preserve" transform="matrix(1 0 -0 1 0 841.92)" font-size="12" font-family="Times New Roman"><tspan y="-705.46" x="85.104"> </tspan></text>
<text xml:space="preserve" transform="matrix(1 0 -0 1 0 841.92)" font-size="12" font-family="Times New Roman"><tspan y="-705.46" x="99.264 106.464 111.744 117.744 121.08 125.748">Z&#x00e1;vist</tspan></text>
<text xml:space="preserve" transform="matrix(1 0 -0 1 0 841.92)" font-size="12" font-family="Times New Roman"><tspan y="-705.46" x="129.26"> </tspan></text>
<text xml:space="preserve" transform="matrix(1 0 -0 1 0 841.92)" font-size="12" font-family="Times New Roman"><tspan y="-705.46" x="132.38 135.38 138.38 141.38 144.38 147.38 150.38">.......</tspan></text>
<text xml:space="preserve" transform="matrix(1 0 -0 1 0 841.92)" font-size="12" font-family="Times New Roman"><tspan y="-705.46" x="153.38 156.38 159.38">...</tspan></text>
<text xml:space="preserve" transform="matrix(1 0 -0 1 0 841.92)" font-size="12" font-family="Times New Roman"><tspan y="-705.46" x="162.38 165.38 168.38 171.38 174.38 177.38 180.38 183.38 186.38 189.38 192.38 195.38 198.38 201.38 204.38 207.38 210.38 213.38 216.38 219.38 222.38 225.38 228.38 231.38 234.38 237.38 240.38 243.38 246.38 249.38 252.38 255.38 258.38 261.38 264.38 267.38 270.38 273.38 276.38 279.38 282.38 285.38 288.38 291.38 294.38 297.38 300.38 303.38 306.38 309.38 312.38 315.38 318.38 321.38 324.38 327.38 330.38 333.38 336.38 339.38 342.38 345.38 348.38 351.38 354.38 357.38 360.38 363.38 366.38 369.38 372.38 375.38 378.38 381.38 384.38 387.38 390.38 393.38 396.38 399.38 402.38 405.38 408.38 411.38 414.38 417.38 420.38 423.38 426.38 429.38 432.38 435.38 438.38 441.38 444.38 447.38 450.38 453.38 456.38">...................................................................................................</tspan></text>
<text xml:space="preserve" transform="matrix(1 0 -0 1 0 841.92)" font-size="12" font-family="Times New Roman"><tspan y="-705.46" x="459.46 462.46 465.46 468.46 471.46 474.46 477.46 480.46 483.46 486.46 489.46">.......... </tspan></text>
<text xml:space="preserve" transform="matrix(1 0 -0 1 0 841.92)" font-size="12" font-family="Times New Roman"><tspan y="-705.46" x="492.46 498.46 504.46">138</tspan></text>
<text xml:space="preserve" transform="matrix(1 0 -0 1 0 841.92)" font-size="12" font-family="Times New Roman"><tspan y="-705.46" x="510.46"> </tspan></text>
<text xml:space="preserve" transform="matrix(1 0 -0 1 0 841.92)" font-size="12" font-family="Times New Roman"><tspan y="-691.66" x="85.104"> </tspan></text>
<text xml:space="preserve" transform="matrix(1 0 -0 1 0 841.92)" font-size="12" font-family="Times New Roman"><tspan y="-691.66" x="99.264 107.928 110.928">O l</tspan></text>
<text xml:space="preserve" transform="matrix(1 0 -0 1 0 841.92)" font-size="12" font-family="Times New Roman"><tspan y="-691.66" x="114.26 119.54001 124.820018 130.1 136.1">&#x00e9;&#x010d;en&#x00ed;</tspan></text>
<text xml:space="preserve" transform="matrix(1 0 -0 1 0 841.92)" font-size="12" font-family="Times New Roman"><tspan y="-691.66" x="139.58"> </tspan></text>
<text xml:space="preserve" transform="matrix(1 0 -0 1 0 841.92)" font-size="12" font-family="Times New Roman"><tspan y="-691.66" x="144.38 147.38 150.38 153.38 156.38 159.38 162.38">.......</tspan></text>
<text xml:space="preserve" transform="matrix(1 0 -0 1 0 841.92)" font-size="12" font-family="Times New Roman"><tspan y="-691.66" x="165.38 168.38 171.38 174.38 177.38 180.38 183.38 186.38 189.38 192.38 195.38 198.38 201.38 204.38 207.38 210.38 213.38 216.38 219.38 222.38 225.38 228.38 231.38 234.38 237.38 240.38 243.38 246.38 249.38 252.38 255.38 258.38 261.38 264.38 267.38 270.38 273.38 276.38 279.38 282.38 285.38 288.38 291.38 294.38 297.38 300.38 303.38 306.38 309.38 312.38 315.38 318.38 321.38 324.38 327.38 330.38 333.38 336.38 339.38 342.38 345.38 348.38 351.38 354.38 357.38 360.38 363.38 366.38 369.38 372.38 375.38 378.38 381.38 384.38 387.38 390.38 393.38 396.38 399.38 402.38 405.38 408.38 411.38 414.38 417.38 420.38 423.38 426.38 429.38 432.38 435.38 438.38 441.38 444.38 447.38 450.38 453.38 456.38">..................................................................................................</tspan></text>
<text xml:space="preserve" transform="matrix(1 0 -0 1 0 841.92)" font-size="12" font-family="Times New Roman"><tspan y="-691.66" x="459.46 462.46 465.46 468.46 471.46 474.46 477.46 480.46 483.46 486.46 489.46">.......... </tspan></text>
<text xml:space="preserve" transform="matrix(1 0 -0 1 0 841.92)" font-size="12" font-family="Times New Roman"><tspan y="-691.66" x="492.46 498.46 504.46">141</tspan></text>
<text xml:space="preserve" transform="matrix(1 0 -0 1 0 841.92)" font-size="12" font-family="Times New Roman"><tspan y="-691.66" x="510.46"> </tspan></text>
<text xml:space="preserve" transform="matrix(1 0 -0 1 0 841.92)" font-size="12" font-family="Times New Roman"><tspan y="-677.86" x="85.104"> </tspan></text>
<text xml:space="preserve" transform="matrix(1 0 -0 1 0 841.92)" font-size="12" font-family="Times New Roman"><tspan y="-677.86" x="99.264 106.464 111.852 117.132 122.41201 128.41202 131.74802 134.74802 140.74802 143.74802 149.74802 155.07602 164.41202 170.52002 175.80002 181.80002 185.13602 190.46402 193.80002 196.80002 202.08002 205.08002 208.41602 213.82802 219.21602 224.49602 230.49602 233.83202 236.83202 242.83202 246.20401 252.08402 258.084 264.19203 270.07203 275.35203">L&#x00e9;&#x010d;en&#x00ed; v nemocnici a l&#x00e9;&#x010d;en&#x00ed; qigongem</tspan></text>
<text xml:space="preserve" transform="matrix(1 0 -0 1 0 841.92)" font-size="12" font-family="Times New Roman"><tspan y="-677.86" x="284.93"> </tspan></text>
<text xml:space="preserve" transform="matrix(1 0 -0 1 0 841.92)" font-size="12" font-family="Times New Roman"><tspan y="-677.86" x="288.41 291.41 294.41 297.41 300.41 303.41 306.41">.......</tspan></text>
<text xml:space="preserve" transform="matrix(1 0 -0 1 0 841.92)" font-size="12" font-family="Times New Roman"><tspan y="-677.86" x="309.41 312.41 315.41 318.41 321.41 324.41 327.41 330.41 333.41 336.41 339.41 342.41 345.41 348.41 351.41 354.41 357.41 360.41 363.41 366.41 369.41 372.41 375.41 378.41 381.41 384.41 387.41 390.41 393.41 396.41 399.41 402.41 405.41 408.41 411.41 414.41 417.41 420.41 423.41 426.41 429.41 432.41 435.41 438.41 441.41 444.41 447.41 450.41 453.41 456.41">..................................................</tspan></text>
<text xml:space="preserve" transform="matrix(1 0 -0 1 0 841.92)" font-size="12" font-family="Times New Roman"><tspan y="-677.86" x="459.46 462.46 465.46 468.46 471.46 474.46 477.46 480.46 483.46 486.46 489.46">.......... </tspan></text>
<text xml:space="preserve" transform="matrix(1 0 -0 1 0 841.92)" font-size="12" font-family="Times New Roman"><tspan y="-677.86" x="492.46 498.46 504.46">144</tspan></text>
<text xml:space="preserve" transform="matrix(1 0 -0 1 0 841.92)" font-size="12" font-family="Times New Roman"><tspan y="-677.86" x="510.46"> </tspan></text>
<text xml:space="preserve" transform="matrix(1 0 -0 1 0 841.92)" font-size="12" font-family="Times New Roman,Bold" font-weight="bold"><tspan y="-664.06" x="85.104 92.30399 97.69199 102.972 109.68 116.38801 122.38801 127.05601 133.77602 139.77602 142.77602 148.77602 153.44402 163.29602">P&#x0159;edn&#x00e1;&#x0161;ka osm&#x00e1;</tspan></text>
<text xml:space="preserve" transform="matrix(1 0 -0 1 0 841.92)" font-size="12" font-family="Times New Roman,Bold" font-weight="bold"><tspan y="-664.06" x="169.46"> </tspan></text>
<text xml:space="preserve" transform="matrix(1 0 -0 1 0 841.92)" font-size="12" font-family="Times New Roman"><tspan y="-664.06" x="171.38 174.38 177.38 180.38 183.38">.....</tspan></text>
<text xml:space="preserve" transform="matrix(1 0 -0 1 0 841.92)" font-size="12" font-family="Times New Roman"><tspan y="-664.06" x="186.38 189.38">..</tspan></text>
<text xml:space="preserve" transform="matrix(1 0 -0 1 0 841.92)" font-size="12" font-family="Times New Roman"><tspan y="-664.06" x="192.41 195.41 198.41 201.41 204.41 207.41 210.41 213.41 216.41 219.41 222.41 225.41 228.41 231.41 234.41 237.41 240.41 243.41 246.41 249.41 252.41 255.41 258.41 261.41 264.41 267.41 270.41 273.41 276.41 279.41 282.41 285.41 288.41 291.41 294.41 297.41 300.41 303.41 306.41 309.41 312.41 315.41 318.41 321.41 324.41 327.41 330.41 333.41 336.41 339.41 342.41 345.41 348.41 351.41 354.41 357.41 360.41 363.41 366.41 369.41 372.41 375.41 378.41 381.41 384.41 387.41 390.41 393.41 396.41 399.41 402.41 405.41 408.41 411.41 414.41 417.41 420.41 423.41 426.41 429.41 432.41 435.41 438.41 441.41 444.41 447.41 450.41 453.41 456.41">.........................................................................................</tspan></text>
<text xml:space="preserve" transform="matrix(1 0 -0 1 0 841.92)" font-size="12" font-family="Times New Roman"><tspan y="-664.06" x="459.46 462.46 465.46 468.46 471.46 474.46 477.46 480.46 483.46 486.46">..........</tspan></text>
<text xml:space="preserve" transform="matrix(1 0 -0 1 0 841.92)" font-size="12" font-family="Times New Roman,Bold" font-weight="bold"><tspan y="-664.06" x="489.46"> </tspan></text>
<text xml:space="preserve" transform="matrix(1 0 -0 1 0 841.92)" font-size="12" font-family="Times New Roman,Bold" font-weight="bold"><tspan y="-664.06" x="492.46 498.46 504.46">148</tspan></text>
<text xml:space="preserve" transform="matrix(1 0 -0 1 0 841.92)" font-size="12" font-family="Times New Roman"><tspan y="-664.06" x="510.46"> </tspan></text>
<text xml:space="preserve" transform="matrix(1 0 -0 1 0 841.92)" font-size="12" font-family="Times New Roman"><tspan y="-650.26" x="85.104"> </tspan></text>
<text xml:space="preserve" transform="matrix(1 0 -0 1 0 841.92)" font-size="12" font-family="Times New Roman"><tspan y="-650.26" x="99.264 107.928 111.264 116.54401 122.54401 128.544 134.544 139.824 145.824 149.16 152.16 158.16 161.532 167.412">Hladov&#x011b;n&#x00ed; bigu</tspan></text>
<text xml:space="preserve" transform="matrix(1 0 -0 1 0 841.92)" font-size="12" font-family="Times New Roman"><tspan y="-650.26" x="173.54"> </tspan></text>
<text xml:space="preserve" transform="matrix(1 0 -0 1 0 841.92)" font-size="12" font-family="Times New Roman"><tspan y="-650.26" x="177.38 180.38 183.38 186.38 189.38 192.38 195.38">.......</tspan></text>
<text xml:space="preserve" transform="matrix(1 0 -0 1 0 841.92)" font-size="12" font-family="Times New Roman"><tspan y="-650.26" x="198.41 201.41 204.41 207.41 210.41 213.41 216.41 219.41 222.41 225.41 228.41 231.41 234.41 237.41 240.41 243.41 246.41 249.41 252.41 255.41 258.41 261.41 264.41 267.41 270.41 273.41 276.41 279.41 282.41 285.41 288.41 291.41 294.41 297.41 300.41 303.41 306.41 309.41 312.41 315.41 318.41 321.41 324.41 327.41 330.41 333.41 336.41 339.41 342.41 345.41 348.41 351.41 354.41 357.41 360.41 363.41 366.41 369.41 372.41 375.41 378.41 381.41 384.41 387.41 390.41 393.41 396.41 399.41 402.41 405.41 408.41 411.41 414.41 417.41 420.41 423.41 426.41 429.41 432.41 435.41 438.41 441.41 444.41 447.41 450.41 453.41 456.41">.......................................................................................</tspan></text>
<text xml:space="preserve" transform="matrix(1 0 -0 1 0 841.92)" font-size="12" font-family="Times New Roman"><tspan y="-650.26" x="459.46 462.46 465.46 468.46 471.46 474.46 477.46 480.46 483.46 486.46 489.46">.......... </tspan></text>
<text xml:space="preserve" transform="matrix(1 0 -0 1 0 841.92)" font-size="12" font-family="Times New Roman"><tspan y="-650.26" x="492.46 498.46 504.46">148</tspan></text>
<text xml:space="preserve" transform="matrix(1 0 -0 1 0 841.92)" font-size="12" font-family="Times New Roman"><tspan y="-650.26" x="510.46"> </tspan></text>
<text xml:space="preserve" transform="matrix(1 0 -0 1 0 841.92)" font-size="12" font-family="Times New Roman"><tspan y="-636.46" x="85.104"> </tspan></text>
<text xml:space="preserve" transform="matrix(1 0 -0 1 0 841.92)" font-size="12" font-family="Times New Roman"><tspan y="-636.46" x="99.264 107.928 111.864009 117.14401 123.14401 128.42401 134.42401 137.76001 140.76001 146.76001">Kraden&#x00ed; qi</tspan></text>
<text xml:space="preserve" transform="matrix(1 0 -0 1 0 841.92)" font-size="12" font-family="Times New Roman"><tspan y="-636.46" x="150.26"> </tspan></text>
<text xml:space="preserve" transform="matrix(1 0 -0 1 0 841.92)" font-size="12" font-family="Times New Roman"><tspan y="-636.46" x="153.38 156.38 159.38 162.38 165.38 168.38 171.38">.......</tspan></text>
<text xml:space="preserve" transform="matrix(1 0 -0 1 0 841.92)" font-size="12" font-family="Times New Roman"><tspan y="-636.46" x="174.38 177.38 180.38 183.38 186.38 189.38">......</tspan></text>
<text xml:space="preserve" transform="matrix(1 0 -0 1 0 841.92)" font-size="12" font-family="Times New Roman"><tspan y="-636.46" x="192.41 195.41 198.41 201.41 204.41 207.41 210.41 213.41 216.41 219.41 222.41 225.41 228.41 231.41 234.41 237.41 240.41 243.41 246.41 249.41 252.41 255.41 258.41 261.41 264.41 267.41 270.41 273.41 276.41 279.41 282.41 285.41 288.41 291.41 294.41 297.41 300.41 303.41 306.41 309.41 312.41 315.41 318.41 321.41 324.41 327.41 330.41 333.41 336.41 339.41 342.41 345.41 348.41 351.41 354.41 357.41 360.41 363.41 366.41 369.41 372.41 375.41 378.41 381.41 384.41 387.41 390.41 393.41 396.41 399.41 402.41 405.41 408.41 411.41 414.41 417.41 420.41 423.41 426.41 429.41 432.41 435.41 438.41 441.41 444.41 447.41 450.41 453.41 456.41">.........................................................................................</tspan></text>
<text xml:space="preserve" transform="matrix(1 0 -0 1 0 841.92)" font-size="12" font-family="Times New Roman"><tspan y="-636.46" x="459.46 462.46 465.46 468.46 471.46 474.46 477.46 480.46 483.46 486.46 489.46">.......... </tspan></text>
<text xml:space="preserve" transform="matrix(1 0 -0 1 0 841.92)" font-size="12" font-family="Times New Roman"><tspan y="-636.46" x="492.46 498.46 504.46">149</tspan></text>
<text xml:space="preserve" transform="matrix(1 0 -0 1 0 841.92)" font-size="12" font-family="Times New Roman"><tspan y="-636.46" x="510.46"> </tspan></text>
<text xml:space="preserve" transform="matrix(1 0 -0 1 0 841.92)" font-size="12" font-family="Times New Roman"><tspan y="-622.66" x="85.104"> </tspan></text>
<text xml:space="preserve" transform="matrix(1 0 -0 1 0 841.92)" font-size="12" font-family="Times New Roman"><tspan y="-622.66" x="99.264 107.928 111.864009 117.864009 127.200008 132.528 138.528 143.784 149.784 153.12 156.12 162.12">Hromad&#x011b;n&#x00ed; qi</tspan></text>
<text xml:space="preserve" transform="matrix(1 0 -0 1 0 841.92)" font-size="12" font-family="Times New Roman"><tspan y="-622.66" x="165.62"> </tspan></text>
<text xml:space="preserve" transform="matrix(1 0 -0 1 0 841.92)" font-size="12" font-family="Times New Roman"><tspan y="-622.66" x="168.38 171.38 174.38 177.38 180.38 183.38 186.38">.......</tspan></text>
<text xml:space="preserve" transform="matrix(1 0 -0 1 0 841.92)" font-size="12" font-family="Times New Roman"><tspan y="-622.66" x="189.38 192.38 195.38 198.38 201.38 204.38 207.38 210.38 213.38 216.38 219.38 222.38 225.38 228.38 231.38 234.38 237.38 240.38 243.38 246.38 249.38 252.38 255.38 258.38 261.38 264.38 267.38 270.38 273.38 276.38 279.38 282.38 285.38 288.38 291.38 294.38 297.38 300.38 303.38 306.38 309.38 312.38 315.38 318.38 321.38 324.38 327.38 330.38 333.38 336.38 339.38 342.38 345.38 348.38 351.38 354.38 357.38 360.38 363.38 366.38 369.38 372.38 375.38 378.38 381.38 384.38 387.38 390.38 393.38 396.38 399.38 402.38 405.38 408.38 411.38 414.38 417.38 420.38 423.38 426.38 429.38 432.38 435.38 438.38 441.38 444.38 447.38 450.38 453.38 456.38">..........................................................................................</tspan></text>
<text xml:space="preserve" transform="matrix(1 0 -0 1 0 841.92)" font-size="12" font-family="Times New Roman"><tspan y="-622.66" x="459.46 462.46 465.46 468.46 471.46 474.46 477.46 480.46 483.46 486.46 489.46">.......... </tspan></text>
<text xml:space="preserve" transform="matrix(1 0 -0 1 0 841.92)" font-size="12" font-family="Times New Roman"><tspan y="-622.66" x="492.46 498.46 504.46">151</tspan></text>
<text xml:space="preserve" transform="matrix(1 0 -0 1 0 841.92)" font-size="12" font-family="Times New Roman"><tspan y="-622.66" x="510.46"> </tspan></text>
<text xml:space="preserve" transform="matrix(1 0 -0 1 0 841.92)" font-size="12" font-family="Times New Roman"><tspan y="-608.86" x="85.104"> </tspan></text>
<text xml:space="preserve" transform="matrix(1 0 -0 1 0 841.92)" font-size="12" font-family="Times New Roman"><tspan y="-608.86" x="99.264 107.928 113.928 119.928 122.928 128.92801 132.86402 138.14402 144.14402 147.48001 150.852 156.852 162.852 166.188 171.516 174.516 180.516 186.516 189.852 193.188 196.56 202.56 207.84 213.12 216.456">Kdo praktikuje kultivaci,</tspan></text>
<text xml:space="preserve" transform="matrix(1 0 -0 1 0 841.92)" font-size="12" font-family="Times New Roman"><tspan y="-608.86" x="219.65"> </tspan></text>
<text xml:space="preserve" transform="matrix(1 0 -0 1 0 841.92)" font-size="12" font-family="Times New Roman"><tspan y="-608.86" x="222.65 228.038 231.374 236.04199 242.04199 247.37 250.37 256.37 262.37 265.706 269.06599 272.40199 278.40199 283.72999 288.986 294.986 298.322 301.322 306.65 312.65 317.906 321.974 327.854 331.19">z&#x00ed;sk&#x00e1; kultiva&#x010d;n&#x00ed; energii</tspan></text>
<text xml:space="preserve" transform="matrix(1 0 -0 1 0 841.92)" font-size="12" font-family="Times New Roman"><tspan y="-608.86" x="334.63"> </tspan></text>
<text xml:space="preserve" transform="matrix(1 0 -0 1 0 841.92)" font-size="12" font-family="Times New Roman"><tspan y="-608.86" x="339.43 342.43 345.43 348.43 351.43 354.43 357.43">.......</tspan></text>
<text xml:space="preserve" transform="matrix(1 0 -0 1 0 841.92)" font-size="12" font-family="Times New Roman"><tspan y="-608.86" x="360.43 363.43 366.43 369.43 372.43 375.43 378.43 381.43 384.43 387.43 390.43 393.43 396.43 399.43 402.43 405.43 408.43 411.43 414.43 417.43 420.43 423.43 426.43 429.43 432.43 435.43 438.43 441.43 444.43 447.43 450.43 453.43 456.43">.................................</tspan></text>
<text xml:space="preserve" transform="matrix(1 0 -0 1 0 841.92)" font-size="12" font-family="Times New Roman"><tspan y="-608.86" x="459.46 462.46 465.46 468.46 471.46 474.46 477.46 480.46 483.46 486.46 489.46">.......... </tspan></text>
<text xml:space="preserve" transform="matrix(1 0 -0 1 0 841.92)" font-size="12" font-family="Times New Roman"><tspan y="-608.86" x="492.46 498.46 504.46">153</tspan></text>
<text xml:space="preserve" transform="matrix(1 0 -0 1 0 841.92)" font-size="12" font-family="Times New Roman"><tspan y="-608.86" x="510.46"> </tspan></text>
<text xml:space="preserve" transform="matrix(1 0 -0 1 0 841.92)" font-size="12" font-family="Times New Roman"><tspan y="-595.06" x="85.104"> </tspan></text>
<text xml:space="preserve" transform="matrix(1 0 -0 1 0 841.92)" font-size="12" font-family="Times New Roman"><tspan y="-595.06" x="99.264 107.928 113.928 118.596 127.932 131.292 136.572 142.68001 148.44 151.44 157.44 163.548 168.828">Kosmick&#x00fd; ob&#x011b;h</tspan></text>
<text xml:space="preserve" transform="matrix(1 0 -0 1 0 841.92)" font-size="12" font-family="Times New Roman"><tspan y="-595.06" x="174.98"> </tspan></text>
<text xml:space="preserve" transform="matrix(1 0 -0 1 0 841.92)" font-size="12" font-family="Times New Roman"><tspan y="-595.06" x="177.38 180.38 183.38 186.38 189.38 192.38 195.38">.......</tspan></text>
<text xml:space="preserve" transform="matrix(1 0 -0 1 0 841.92)" font-size="12" font-family="Times New Roman"><tspan y="-595.06" x="198.41 201.41 204.41 207.41 210.41 213.41 216.41 219.41 222.41 225.41 228.41 231.41 234.41 237.41 240.41 243.41 246.41 249.41 252.41 255.41 258.41 261.41 264.41 267.41 270.41 273.41 276.41 279.41 282.41 285.41 288.41 291.41 294.41 297.41 300.41 303.41 306.41 309.41 312.41 315.41 318.41 321.41 324.41 327.41 330.41 333.41 336.41 339.41 342.41 345.41 348.41 351.41 354.41 357.41 360.41 363.41 366.41 369.41 372.41 375.41 378.41 381.41 384.41 387.41 390.41 393.41 396.41 399.41 402.41 405.41 408.41 411.41 414.41 417.41 420.41 423.41 426.41 429.41 432.41 435.41 438.41 441.41 444.41 447.41 450.41 453.41 456.41">.......................................................................................</tspan></text>
<text xml:space="preserve" transform="matrix(1 0 -0 1 0 841.92)" font-size="12" font-family="Times New Roman"><tspan y="-595.06" x="459.46 462.46 465.46 468.46 471.46 474.46 477.46 480.46 483.46 486.46 489.46">.......... </tspan></text>
<text xml:space="preserve" transform="matrix(1 0 -0 1 0 841.92)" font-size="12" font-family="Times New Roman"><tspan y="-595.06" x="492.46 498.46 504.46">157</tspan></text>
<text xml:space="preserve" transform="matrix(1 0 -0 1 0 841.92)" font-size="12" font-family="Times New Roman"><tspan y="-595.06" x="510.46"> </tspan></text>
<text xml:space="preserve" transform="matrix(1 0 -0 1 0 841.92)" font-size="12" font-family="Times New Roman"><tspan y="-581.26" x="85.104"> </tspan></text>
<text xml:space="preserve" transform="matrix(1 0 -0 1 0 841.92)" font-size="12" font-family="Times New Roman"><tspan y="-581.26" x="99.264 105.97201 109.96801 113.30401 116.64001 119.976009 124.68001 130.68001 135.96 138.96 144.96 150.24 156.24 160.908 166.23601 172.23601">P&#x0159;&#x00ed;li&#x0161;n&#x00e9; nad&#x0161;en&#x00ed;</tspan></text>
<text xml:space="preserve" transform="matrix(1 0 -0 1 0 841.92)" font-size="12" font-family="Times New Roman"><tspan y="-581.26" x="175.58"> </tspan></text>
<text xml:space="preserve" transform="matrix(1 0 -0 1 0 841.92)" font-size="12" font-family="Times New Roman"><tspan y="-581.26" x="180.38 183.38 186.38 189.38 192.38 195.38 198.38">.......</tspan></text>
<text xml:space="preserve" transform="matrix(1 0 -0 1 0 841.92)" font-size="12" font-family="Times New Roman"><tspan y="-581.26" x="201.41 204.41 207.41 210.41 213.41 216.41 219.41 222.41 225.41 228.41 231.41 234.41 237.41 240.41 243.41 246.41 249.41 252.41 255.41 258.41 261.41 264.41 267.41 270.41 273.41 276.41">..........................</tspan></text>
<text xml:space="preserve" transform="matrix(1 0 -0 1 0 841.92)" font-size="12" font-family="Times New Roman"><tspan y="-581.26" x="279.41 282.41 285.41 288.41 291.41 294.41 297.41 300.41 303.41 306.41 309.41 312.41 315.41 318.41 321.41 324.41 327.41 330.41 333.41 336.41 339.41 342.41 345.41 348.41 351.41 354.41 357.41 360.41 363.41 366.41 369.41 372.41 375.41 378.41 381.41 384.41 387.41 390.41 393.41 396.41 399.41 402.41 405.41 408.41 411.41 414.41 417.41 420.41 423.41 426.41 429.41 432.41 435.41 438.41 441.41 444.41 447.41 450.41 453.41 456.41">............................................................</tspan></text>
<text xml:space="preserve" transform="matrix(1 0 -0 1 0 841.92)" font-size="12" font-family="Times New Roman"><tspan y="-581.26" x="459.46 462.46 465.46 468.46 471.46 474.46 477.46 480.46 483.46 486.46 489.46">.......... </tspan></text>
<text xml:space="preserve" transform="matrix(1 0 -0 1 0 841.92)" font-size="12" font-family="Times New Roman"><tspan y="-581.26" x="492.46 498.46 504.46">164</tspan></text>
<text xml:space="preserve" transform="matrix(1 0 -0 1 0 841.92)" font-size="12" font-family="Times New Roman"><tspan y="-581.26" x="510.46"> </tspan></text>
<text xml:space="preserve" transform="matrix(1 0 -0 1 0 841.92)" font-size="12" font-family="Times New Roman"><tspan y="-567.46" x="85.104"> </tspan></text>
<text xml:space="preserve" transform="matrix(1 0 -0 1 0 841.92)" font-size="12" font-family="Times New Roman"><tspan y="-567.46" x="99.264 107.928 113.928 117.264 120.6 123.972 129.972 135.252 140.532 145.812 148.812 152.772 158.16 163.44">Kultivace &#x0159;e&#x010d;i</tspan></text>
<text xml:space="preserve" transform="matrix(1 0 -0 1 0 841.92)" font-size="12" font-family="Times New Roman"><tspan y="-567.46" x="166.94"> </tspan></text>
<text xml:space="preserve" transform="matrix(1 0 -0 1 0 841.92)" font-size="12" font-family="Times New Roman"><tspan y="-567.46" x="171.38 174.38 177.38 180.38 183.38 186.38 189.38">.......</tspan></text>
<text xml:space="preserve" transform="matrix(1 0 -0 1 0 841.92)" font-size="12" font-family="Times New Roman"><tspan y="-567.46" x="192.41 195.41 198.41 201.41 204.41 207.41 210.41 213.41 216.41 219.41 222.41 225.41 228.41 231.41 234.41 237.41 240.41 243.41 246.41 249.41 252.41 255.41 258.41 261.41 264.41 267.41 270.41 273.41 276.41 279.41 282.41 285.41 288.41 291.41 294.41 297.41 300.41 303.41 306.41 309.41 312.41 315.41 318.41 321.41 324.41 327.41 330.41 333.41 336.41 339.41 342.41 345.41 348.41 351.41 354.41 357.41 360.41 363.41 366.41 369.41 372.41 375.41 378.41 381.41 384.41 387.41 390.41 393.41 396.41 399.41 402.41 405.41 408.41 411.41 414.41 417.41 420.41 423.41 426.41 429.41 432.41 435.41 438.41 441.41 444.41 447.41 450.41 453.41 456.41">.........................................................................................</tspan></text>
<text xml:space="preserve" transform="matrix(1 0 -0 1 0 841.92)" font-size="12" font-family="Times New Roman"><tspan y="-567.46" x="459.46 462.46 465.46 468.46 471.46 474.46 477.46 480.46 483.46 486.46 489.46">.......... </tspan></text>
<text xml:space="preserve" transform="matrix(1 0 -0 1 0 841.92)" font-size="12" font-family="Times New Roman"><tspan y="-567.46" x="492.46 498.46 504.46">165</tspan></text>
<text xml:space="preserve" transform="matrix(1 0 -0 1 0 841.92)" font-size="12" font-family="Times New Roman"><tspan y="-567.46" x="510.46"> </tspan></text>
<text xml:space="preserve" transform="matrix(1 0 -0 1 0 841.92)" font-size="12" font-family="Times New Roman,Bold" font-weight="bold"><tspan y="-553.63" x="85.104 92.30399 97.69199 102.972 109.68 116.38801 122.38801 127.05601 133.77602 139.77602 142.77602 149.48401 154.764 160.764 166.764 170.76001">P&#x0159;edn&#x00e1;&#x0161;ka dev&#x00e1;t&#x00e1;</tspan></text>
<text xml:space="preserve" transform="matrix(1 0 -0 1 0 841.92)" font-size="12" font-family="Times New Roman,Bold" font-weight="bold"><tspan y="-553.63" x="176.78"> </tspan></text>
<text xml:space="preserve" transform="matrix(1 0 -0 1 0 841.92)" font-size="12" font-family="Times New Roman"><tspan y="-553.63" x="180.38 183.38 186.38 189.38 192.38 195.38 198.38">.......</tspan></text>
<text xml:space="preserve" transform="matrix(1 0 -0 1 0 841.92)" font-size="12" font-family="Times New Roman"><tspan y="-553.63" x="201.41 204.41 207.41 210.41 213.41 216.41 219.41 222.41 225.41 228.41 231.41 234.41 237.41 240.41 243.41 246.41 249.41 252.41 255.41 258.41 261.41 264.41 267.41 270.41 273.41 276.41 279.41 282.41 285.41 288.41">..............................</tspan></text>
<text xml:space="preserve" transform="matrix(1 0 -0 1 0 841.92)" font-size="12" font-family="Times New Roman"><tspan y="-553.63" x="291.41 294.41 297.41 300.41 303.41 306.41 309.41 312.41 315.41 318.41 321.41 324.41 327.41 330.41 333.41 336.41 339.41 342.41 345.41 348.41 351.41 354.41 357.41 360.41 363.41 366.41 369.41 372.41 375.41 378.41 381.41 384.41 387.41 390.41 393.41 396.41 399.41 402.41 405.41 408.41 411.41 414.41 417.41 420.41 423.41 426.41 429.41 432.41 435.41 438.41 441.41 444.41 447.41 450.41 453.41 456.41">........................................................</tspan></text>
<text xml:space="preserve" transform="matrix(1 0 -0 1 0 841.92)" font-size="12" font-family="Times New Roman"><tspan y="-553.63" x="459.46 462.46 465.46 468.46 471.46 474.46 477.46 480.46 483.46 486.46">..........</tspan></text>
<text xml:space="preserve" transform="matrix(1 0 -0 1 0 841.92)" font-size="12" font-family="Times New Roman,Bold" font-weight="bold"><tspan y="-553.63" x="489.46"> </tspan></text>
<text xml:space="preserve" transform="matrix(1 0 -0 1 0 841.92)" font-size="12" font-family="Times New Roman,Bold" font-weight="bold"><tspan y="-553.63" x="492.46 498.46 504.46">167</tspan></text>
<text xml:space="preserve" transform="matrix(1 0 -0 1 0 841.92)" font-size="12" font-family="Times New Roman"><tspan y="-553.63" x="510.46"> </tspan></text>
<text xml:space="preserve" transform="matrix(1 0 -0 1 0 841.92)" font-size="12" font-family="Times New Roman"><tspan y="-539.83" x="85.104"> </tspan></text>
<text xml:space="preserve" transform="matrix(1 0 -0 1 0 841.92)" font-size="12" font-family="Times New Roman"><tspan y="-539.83" x="99.264 107.928 111.264 117.144 123.144 129.252 135.132 138.132 143.412 146.52 151.8 155.136 158.508 163.788 167.124 170.49599 176.49599">Qigong a atletika</tspan></text>
<text xml:space="preserve" transform="matrix(1 0 -0 1 0 841.92)" font-size="12" font-family="Times New Roman"><tspan y="-539.83" x="181.94"> </tspan></text>
<text xml:space="preserve" transform="matrix(1 0 -0 1 0 841.92)" font-size="12" font-family="Times New Roman"><tspan y="-539.83" x="186.38 189.38 192.38 195.38 198.38 201.38 204.38">.......</tspan></text>
<text xml:space="preserve" transform="matrix(1 0 -0 1 0 841.92)" font-size="12" font-family="Times New Roman"><tspan y="-539.83" x="207.41 210.41 213.41 216.41 219.41 222.41 225.41 228.41 231.41 234.41 237.41 240.41 243.41 246.41 249.41 252.41 255.41 258.41 261.41 264.41 267.41 270.41 273.41 276.41 279.41 282.41 285.41 288.41 291.41 294.41 297.41 300.41 303.41 306.41 309.41 312.41 315.41 318.41 321.41 324.41 327.41 330.41 333.41 336.41 339.41 342.41 345.41 348.41 351.41 354.41 357.41 360.41 363.41 366.41 369.41 372.41 375.41 378.41 381.41 384.41 387.41 390.41 393.41 396.41 399.41 402.41 405.41 408.41 411.41 414.41 417.41 420.41 423.41 426.41 429.41 432.41 435.41 438.41 441.41 444.41 447.41 450.41 453.41 456.41">....................................................................................</tspan></text>
<text xml:space="preserve" transform="matrix(1 0 -0 1 0 841.92)" font-size="12" font-family="Times New Roman"><tspan y="-539.83" x="459.46 462.46 465.46 468.46 471.46 474.46 477.46 480.46 483.46 486.46 489.46">.......... </tspan></text>
<text xml:space="preserve" transform="matrix(1 0 -0 1 0 841.92)" font-size="12" font-family="Times New Roman"><tspan y="-539.83" x="492.46 498.46 504.46">167</tspan></text>
<text xml:space="preserve" transform="matrix(1 0 -0 1 0 841.92)" font-size="12" font-family="Times New Roman"><tspan y="-539.83" x="510.46"> </tspan></text>
<text xml:space="preserve" transform="matrix(1 0 -0 1 0 841.92)" font-size="12" font-family="Times New Roman"><tspan y="-526.03" x="85.104"> </tspan></text>
<text xml:space="preserve" transform="matrix(1 0 -0 1 0 841.92)" font-size="12" font-family="Times New Roman"><tspan y="-526.03" x="99.264 110.052 115.812007 120.48 123.816 129.144 135.144 141.36">My&#x0161;lenky</tspan></text>
<text xml:space="preserve" transform="matrix(1 0 -0 1 0 841.92)" font-size="12" font-family="Times New Roman"><tspan y="-526.03" x="147.26"> </tspan></text>
<text xml:space="preserve" transform="matrix(1 0 -0 1 0 841.92)" font-size="12" font-family="Times New Roman"><tspan y="-526.03" x="150.38 153.38 156.38 159.38 162.38 165.38 168.38 171.38 174.38 177.38 180.38 183.38 186.38 189.38 192.38 195.38 198.38 201.38 204.38 207.38 210.38 213.38 216.38 219.38 222.38 225.38 228.38 231.38 234.38 237.38 240.38 243.38 246.38 249.38 252.38 255.38 258.38 261.38 264.38 267.38 270.38 273.38 276.38 279.38 282.38 285.38 288.38 291.38 294.38 297.38">..................................................</tspan></text>
<text xml:space="preserve" transform="matrix(1 0 -0 1 0 841.92)" font-size="12" font-family="Times New Roman"><tspan y="-526.03" x="300.41 303.41 306.41 309.41 312.41 315.41 318.41 321.41 324.41 327.41 330.41 333.41 336.41 339.41 342.41 345.41 348.41 351.41 354.41 357.41 360.41 363.41 366.41 369.41 372.41 375.41 378.41 381.41 384.41 387.41 390.41 393.41 396.41 399.41 402.41 405.41 408.41 411.41 414.41 417.41 420.41 423.41 426.41 429.41 432.41 435.41 438.41 441.41 444.41 447.41 450.41 453.41 456.41 459.41 462.41 465.41 468.41 471.41 474.41 477.41 480.41 483.41 486.41 489.41 492.41 498.41 504.41">............................................................... 168</tspan></text>
<text xml:space="preserve" transform="matrix(1 0 -0 1 0 841.92)" font-size="12" font-family="Times New Roman"><tspan y="-526.03" x="510.46"> </tspan></text>
<text xml:space="preserve" transform="matrix(1 0 -0 1 0 841.92)" font-size="12" font-family="Times New Roman"><tspan y="-512.23" x="85.104"> </tspan></text>
<text xml:space="preserve" transform="matrix(1 0 -0 1 0 841.92)" font-size="12" font-family="Times New Roman"><tspan y="-512.23" x="99.264 107.292 110.628 115.296 118.67999 123.96 126.96 132.23999 135.23999 141.23999 144.57599 147.94799 153.94799 159.94799 165.22798 168.22798 177.69599 183.45598 188.12398">&#x010c;ist&#x00e1; a klidn&#x00e1; mysl</tspan></text>
<text xml:space="preserve" transform="matrix(1 0 -0 1 0 841.92)" font-size="12" font-family="Times New Roman"><tspan y="-512.23" x="191.57"> </tspan></text>
<text xml:space="preserve" transform="matrix(1 0 -0 1 0 841.92)" font-size="12" font-family="Times New Roman"><tspan y="-512.23" x="195.41 198.41 201.41 204.41 207.41 210.41 213.41 216.41 219.41 222.41 225.41 228.41 231.41 234.41 237.41 240.41 243.41 246.41 249.41 252.41 255.41 258.41 261.41 264.41 267.41 270.41 273.41 276.41 279.41 282.41 285.41 288.41 291.41 294.41 297.41 300.41 303.41 306.41 309.41 312.41 315.41 318.41 321.41 324.41 327.41 330.41 333.41 336.41 339.41 342.41 345.41 348.41 351.41 354.41 357.41 360.41 363.41 366.41 369.41 372.41 375.41 378.41 381.41 384.41 387.41 390.41 393.41 396.41 399.41 402.41 405.41 408.41 411.41 414.41 417.41 420.41 423.41 426.41 429.41 432.41 435.41 438.41 441.41 444.41 447.41 450.41 453.41 456.41 459.41 462.41 465.41 468.41 471.41 474.41 477.41 480.41 483.41 486.41 489.41 492.41 498.41 504.41">.................................................................................................. 173</tspan></text>
<text xml:space="preserve" transform="matrix(1 0 -0 1 0 841.92)" font-size="12" font-family="Times New Roman"><tspan y="-512.23" x="510.46"> </tspan></text>
<text xml:space="preserve" transform="matrix(1 0 -0 1 0 841.92)" font-size="12" font-family="Times New Roman"><tspan y="-498.43" x="85.104"> </tspan></text>
<text xml:space="preserve" transform="matrix(1 0 -0 1 0 841.92)" font-size="12" font-family="Times New Roman"><tspan y="-498.43" x="99.264 107.928 111.864009 117.864009 123.25201 128.532 134.532 139.812 142.812 148.812 152.148 157.476 162.144 165.48 171.48 177.48 182.148 185.51999">Vrozen&#x00e9; vlastnosti</tspan></text>
<text xml:space="preserve" transform="matrix(1 0 -0 1 0 841.92)" font-size="12" font-family="Times New Roman"><tspan y="-498.43" x="188.9"> </tspan></text>
<text xml:space="preserve" transform="matrix(1 0 -0 1 0 841.92)" font-size="12" font-family="Times New Roman"><tspan y="-498.43" x="192.41 195.41 198.41 201.41 204.41 207.41 210.41 213.41 216.41 219.41 222.41 225.41 228.41 231.41 234.41 237.41 240.41 243.41 246.41 249.41 252.41 255.41 258.41 261.41 264.41 267.41 270.41 273.41 276.41 279.41 282.41 285.41 288.41 291.41 294.41 297.41 300.41 303.41 306.41 309.41 312.41 315.41 318.41 321.41 324.41 327.41 330.41 333.41 336.41 339.41 342.41 345.41 348.41 351.41 354.41 357.41 360.41 363.41 366.41 369.41 372.41 375.41 378.41 381.41 384.41 387.41 390.41 393.41 396.41 399.41 402.41 405.41 408.41 411.41 414.41 417.41 420.41 423.41 426.41 429.41 432.41 435.41 438.41 441.41 444.41 447.41 450.41 453.41 456.41 459.41 462.41 465.41 468.41 471.41 474.41 477.41 480.41 483.41 486.41 489.41 492.41 498.41 504.41">................................................................................................... 176</tspan></text>
<text xml:space="preserve" transform="matrix(1 0 -0 1 0 841.92)" font-size="12" font-family="Times New Roman"><tspan y="-498.43" x="510.46"> </tspan></text>
<text xml:space="preserve" transform="matrix(1 0 -0 1 0 841.92)" font-size="12" font-family="Times New Roman"><tspan y="-484.63" x="85.104"> </tspan></text>
<text xml:space="preserve" transform="matrix(1 0 -0 1 0 841.92)" font-size="12" font-family="Times New Roman"><tspan y="-484.63" x="99.264 107.928 112.596 118.596 121.932 127.224 132.504 138.504">Osv&#x00ed;cen&#x00ed;</tspan></text>
<text xml:space="preserve" transform="matrix(1 0 -0 1 0 841.92)" font-size="12" font-family="Times New Roman"><tspan y="-484.63" x="141.86"> </tspan></text>
<text xml:space="preserve" transform="matrix(1 0 -0 1 0 841.92)" font-size="12" font-family="Times New Roman"><tspan y="-484.63" x="147.38 150.38 153.38 156.38 159.38 162.38 165.38 168.38 171.38 174.38 177.38 180.38 183.38 186.38 189.38 192.38 195.38 198.38 201.38 204.38 207.38 210.38 213.38 216.38 219.38 222.38 225.38 228.38 231.38 234.38 237.38 240.38 243.38 246.38 249.38 252.38 255.38 258.38 261.38 264.38 267.38 270.38 273.38 276.38 279.38 282.38 285.38 288.38 291.38 294.38 297.38 300.38 303.38 306.38 309.38 312.38 315.38 318.38 321.38 324.38 327.38 330.38 333.38 336.38 339.38 342.38 345.38 348.38 351.38 354.38 357.38 360.38 363.38 366.38 369.38 372.38 375.38 378.38 381.38 384.38 387.38 390.38 393.38 396.38 399.38 402.38 405.38 408.38 411.38 414.38 417.38 420.38 423.38 426.38 429.38 432.38 435.38 438.38 441.38 444.38 447.38 450.38 453.38 456.38 459.38 462.38 465.38 468.38 471.38 474.38 477.38 480.38 483.38 486.38 489.38 492.38 498.38 504.38">.................................................................................................................. 177</tspan></text>
<text xml:space="preserve" transform="matrix(1 0 -0 1 0 841.92)" font-size="12" font-family="Times New Roman"><tspan y="-484.63" x="510.46"> </tspan></text>
<text xml:space="preserve" transform="matrix(1 0 -0 1 0 841.92)" font-size="12" font-family="Times New Roman"><tspan y="-470.83" x="85.104"> </tspan></text>
<text xml:space="preserve" transform="matrix(1 0 -0 1 0 841.92)" font-size="12" font-family="Times New Roman"><tspan y="-470.83" x="99.264 107.292 110.628 116.628 122.628 127.956 133.956 136.956 141.624 144.624 150.624 155.892 159.228 165.36 171.12 180.456 183.82799 186.82799 192.82799 198.82799 204.10799 210.10799 216.21599 222.21599 228.21599 231.55199 240.92398 244.25998 247.25998 251.92798 257.92799 261.31199 267.31199 273.41999">&#x010c;lov&#x011b;k s velk&#x00fd;mi duchovn&#x00ed;mi sklony</tspan></text>
<text xml:space="preserve" transform="matrix(1 0 -0 1 0 841.92)" font-size="12" font-family="Times New Roman"><tspan y="-470.83" x="279.29"> </tspan></text>
<text xml:space="preserve" transform="matrix(1 0 -0 1 0 841.92)" font-size="12" font-family="Times New Roman"><tspan y="-470.83" x="282.41 285.41 288.41 291.41 294.41 297.41 300.41 303.41 306.41 309.41 312.41 315.41 318.41 321.41 324.41 327.41 330.41 333.41 336.41 339.41 342.41 345.41 348.41 351.41 354.41 357.41 360.41 363.41 366.41 369.41 372.41 375.41 378.41 381.41 384.41 387.41 390.41 393.41 396.41 399.41 402.41 405.41 408.41 411.41 414.41 417.41 420.41 423.41 426.41 429.41 432.41 435.41 438.41 441.41 444.41 447.41 450.41 453.41 456.41 459.41 462.41 465.41 468.41 471.41 474.41 477.41 480.41 483.41 486.41 489.41 492.41 498.41 504.41">..................................................................... 182</tspan></text>
<text xml:space="preserve" transform="matrix(1 0 -0 1 0 841.92)" font-size="12" font-family="Times New Roman"><tspan y="-470.83" x="510.46"> </tspan></text>
<text xml:space="preserve" transform="matrix(1 0 -0 1 0 841.92)" font-size="20.04" font-family="Times New Roman,Bold" font-weight="bold"><tspan y="-435.19" x="297.65"> </tspan></text>
<text xml:space="preserve" transform="matrix(1 0 -0 1 0 841.92)" font-size="20.04" font-family="Times New Roman,Bold" font-weight="bold"><tspan y="-398.23" x="297.65"> </tspan></text>
<text xml:space="preserve" transform="matrix(1 0 -0 1 0 841.92)" font-size="20.04" font-family="Times New Roman,Bold" font-weight="bold"><tspan y="-361.13" x="297.65"> </tspan></text>
<text xml:space="preserve" transform="matrix(1 0 -0 1 0 841.92)" font-size="20.04" font-family="Times New Roman,Bold" font-weight="bold"><tspan y="-324.17" x="297.65"> </tspan></text>
<text xml:space="preserve" transform="matrix(1 0 -0 1 0 841.92)" font-size="20.04" font-family="Times New Roman,Bold" font-weight="bold"><tspan y="-287.21" x="297.65"> </tspan></text>
<text xml:space="preserve" transform="matrix(1 0 -0 1 0 841.92)" font-size="20.04" font-family="Times New Roman,Bold" font-weight="bold"><tspan y="-250.13" x="297.65"> </tspan></text>
<text xml:space="preserve" transform="matrix(1 0 -0 1 0 841.92)" font-size="20.04" font-family="Times New Roman,Bold" font-weight="bold"><tspan y="-213.17" x="297.65"> </tspan></text>
<text xml:space="preserve" transform="matrix(1 0 -0 1 0 841.92)" font-size="20.04" font-family="Times New Roman,Bold" font-weight="bold"><tspan y="-176.18" x="297.65"> </tspan></text>
<text xml:space="preserve" transform="matrix(1 0 -0 1 0 841.92)" font-size="20.04" font-family="Times New Roman,Bold" font-weight="bold"><tspan y="-139.22" x="297.65"> </tspan></text>
</svg>
