<svg xmlns="http://www.w3.org/2000/svg" xmlns:xlink="http://www.w3.org/1999/xlink" xmlns:inkscape="http://www.inkscape.org/namespaces/inkscape" version="1.1" width="595.32" height="841.92" viewBox="0 0 595.32 841.92">
<text xml:space="preserve" transform="matrix(1 0 -0 1 0 841.92)" font-size="12" font-family="Times New Roman"><tspan y="-45.024" x="294.65">6</tspan></text>
<text xml:space="preserve" transform="matrix(1 0 -0 1 0 841.92)" font-size="12" font-family="Times New Roman"><tspan y="-45.024" x="300.65"> </tspan></text>
<text xml:space="preserve" transform="matrix(1 0 -0 1 0 841.92)" font-size="12" font-family="Times New Roman"><tspan y="-31.224" x="85.104"> </tspan></text>
<text xml:space="preserve" transform="matrix(1 0 -0 1 0 841.92)" font-size="12" font-family="Times New Roman"><tspan y="-774.48" x="85.104 91.104 97.104 100.439998 105.768 111.768 115.104 118.572">objevily</tspan></text>
<text xml:space="preserve" transform="matrix(1 0 -0 1 0 841.92)" font-size="12" font-family="Times New Roman"><tspan y="-774.48" x="124.22"> </tspan></text>
<text xml:space="preserve" transform="matrix(1 0 -0 1 0 841.92)" font-size="12" font-family="Times New Roman"><tspan y="-774.48" x="132.26 138.26 144.26 147.596 150.96799 156.96799 161.15599 166.91599">kultury,</tspan></text>
<text xml:space="preserve" transform="matrix(1 0 -0 1 0 841.92)" font-size="12" font-family="Times New Roman"><tspan y="-774.48" x="169.94"> </tspan></text>
<text xml:space="preserve" transform="matrix(1 0 -0 1 0 841.92)" font-size="12" font-family="Times New Roman"><tspan y="-774.48" x="177.98 183.98 187.316 192.644 196.688">kter&#x00e9;</tspan></text>
<text xml:space="preserve" transform="matrix(1 0 -0 1 0 841.92)" font-size="12" font-family="Times New Roman"><tspan y="-774.48" x="202.13"> </tspan></text>
<text xml:space="preserve" transform="matrix(1 0 -0 1 0 841.92)" font-size="12" font-family="Times New Roman"><tspan y="-774.48" x="210.17 216.278 221.918 225.506">byly</tspan></text>
<text xml:space="preserve" transform="matrix(1 0 -0 1 0 841.92)" font-size="12" font-family="Times New Roman"><tspan y="-774.48" x="231.29"> </tspan></text>
<text xml:space="preserve" transform="matrix(1 0 -0 1 0 841.92)" font-size="12" font-family="Times New Roman"><tspan y="-774.48" x="239.33 244.718 249.998 253.994 259.99403 266.066 271.346">z&#x00e1;rove&#x0148;</tspan></text>
<text xml:space="preserve" transform="matrix(1 0 -0 1 0 841.92)" font-size="12" font-family="Times New Roman"><tspan y="-774.48" x="277.37"> </tspan></text>
<text xml:space="preserve" transform="matrix(1 0 -0 1 0 841.92)" font-size="12" font-family="Times New Roman"><tspan y="-774.48" x="285.41 291.41 297.41 302.798 307.466 313.466">bo&#x017e;sk&#x00e9;</tspan></text>
<text xml:space="preserve" transform="matrix(1 0 -0 1 0 841.92)" font-size="12" font-family="Times New Roman"><tspan y="-774.48" x="318.79"> </tspan></text>
<text xml:space="preserve" transform="matrix(1 0 -0 1 0 841.92)" font-size="12" font-family="Times New Roman"><tspan y="-774.48" x="326.83">a</tspan></text>
<text xml:space="preserve" transform="matrix(1 0 -0 1 0 841.92)" font-size="12" font-family="Times New Roman"><tspan y="-774.48" x="332.11"> </tspan></text>
<text xml:space="preserve" transform="matrix(1 0 -0 1 0 841.92)" font-size="12" font-family="Times New Roman"><tspan y="-774.48" x="340.15 343.486 346.858 352.858 357.526 363.526 368.854">lidsk&#x00e9;,</tspan></text>
<text xml:space="preserve" transform="matrix(1 0 -0 1 0 841.92)" font-size="12" font-family="Times New Roman"><tspan y="-774.48" x="371.83"> </tspan></text>
<text xml:space="preserve" transform="matrix(1 0 -0 1 0 841.92)" font-size="12" font-family="Times New Roman"><tspan y="-774.48" x="379.87">a</tspan></text>
<text xml:space="preserve" transform="matrix(1 0 -0 1 0 841.92)" font-size="12" font-family="Times New Roman"><tspan y="-774.48" x="385.15"> </tspan></text>
<text xml:space="preserve" transform="matrix(1 0 -0 1 0 841.92)" font-size="12" font-family="Times New Roman"><tspan y="-774.48" x="393.19 399.19 405.19 414.526 420.526 426.526 430.018">pomohly</tspan></text>
<text xml:space="preserve" transform="matrix(1 0 -0 1 0 841.92)" font-size="12" font-family="Times New Roman"><tspan y="-774.48" x="435.79"> </tspan></text>
<text xml:space="preserve" transform="matrix(1 0 -0 1 0 841.92)" font-size="12" font-family="Times New Roman"><tspan y="-774.48" x="443.86 447.19599 450.568 456.568 461.848">lidem</tspan></text>
<text xml:space="preserve" transform="matrix(1 0 -0 1 0 841.92)" font-size="12" font-family="Times New Roman"><tspan y="-774.48" x="471.22"> </tspan></text>
<text xml:space="preserve" transform="matrix(1 0 -0 1 0 841.92)" font-size="12" font-family="Times New Roman"><tspan y="-774.48" x="479.26 485.26 491.26 495.928 501.928 507.1">dosp&#x011b;t</tspan></text>
<text xml:space="preserve" transform="matrix(1 0 -0 1 0 841.92)" font-size="12" font-family="Times New Roman"><tspan y="-774.48" x="510.34"> </tspan></text>
<text xml:space="preserve" transform="matrix(1 0 -0 1 0 841.92)" font-size="12" font-family="Times New Roman"><tspan y="-774.48" x="513.22"> </tspan></text>
<text xml:space="preserve" transform="matrix(1 0 -0 1 0 841.92)" font-size="12" font-family="Times New Roman"><tspan y="-760.68" x="85.104">k</tspan></text>
<text xml:space="preserve" transform="matrix(1 0 -0 1 0 841.92)" font-size="12" font-family="Times New Roman"><tspan y="-760.68" x="91.104"> </tspan></text>
<text xml:space="preserve" transform="matrix(1 0 -0 1 0 841.92)" font-size="12" font-family="Times New Roman"><tspan y="-760.68" x="95.784 101.784 105.743999 111.024 117.024 123.024 126.36 132.36 137.688 141.024 145.692 149.052 158.388">pravdiv&#x011b;j&#x0161;&#x00ed;mu</tspan></text>
<text xml:space="preserve" transform="matrix(1 0 -0 1 0 841.92)" font-size="12" font-family="Times New Roman"><tspan y="-760.68" x="164.42"> </tspan></text>
<text xml:space="preserve" transform="matrix(1 0 -0 1 0 841.92)" font-size="12" font-family="Times New Roman"><tspan y="-760.68" x="169.1 175.1 181.1 186.38 192.38 198.38 204.38 209.66 215.66">pochopen&#x00ed;</tspan></text>
<text xml:space="preserve" transform="matrix(1 0 -0 1 0 841.92)" font-size="12" font-family="Times New Roman"><tspan y="-760.68" x="219.05"> </tspan></text>
<text xml:space="preserve" transform="matrix(1 0 -0 1 0 841.92)" font-size="12" font-family="Times New Roman"><tspan y="-760.68" x="223.73 229.118 232.454 238.454 244.454 247.82599">&#x017e;ivota</tspan></text>
<text xml:space="preserve" transform="matrix(1 0 -0 1 0 841.92)" font-size="12" font-family="Times New Roman"><tspan y="-760.68" x="253.13"> </tspan></text>
<text xml:space="preserve" transform="matrix(1 0 -0 1 0 841.92)" font-size="12" font-family="Times New Roman"><tspan y="-760.68" x="257.81">a</tspan></text>
<text xml:space="preserve" transform="matrix(1 0 -0 1 0 841.92)" font-size="12" font-family="Times New Roman"><tspan y="-760.68" x="263.09"> </tspan></text>
<text xml:space="preserve" transform="matrix(1 0 -0 1 0 841.92)" font-size="12" font-family="Times New Roman"><tspan y="-760.68" x="267.77 273.77 279.05 283.718 293.054 296.438 300.434 306.434">vesm&#x00ed;ru.</tspan></text>
<text xml:space="preserve" transform="matrix(1 0 -0 1 0 841.92)" font-size="12" font-family="Times New Roman"><tspan y="-760.68" x="309.41"> </tspan></text>
<text xml:space="preserve" transform="matrix(1 0 -0 1 0 841.92)" font-size="12" font-family="Times New Roman"><tspan y="-760.68" x="314.09 322.61 328.718 334.358">Kdy&#x017e;</tspan></text>
<text xml:space="preserve" transform="matrix(1 0 -0 1 0 841.92)" font-size="12" font-family="Times New Roman"><tspan y="-760.68" x="339.79"> </tspan></text>
<text xml:space="preserve" transform="matrix(1 0 -0 1 0 841.92)" font-size="12" font-family="Times New Roman"><tspan y="-760.68" x="344.47 347.806 351.178 357.178">lid&#x00e9;</tspan></text>
<text xml:space="preserve" transform="matrix(1 0 -0 1 0 841.92)" font-size="12" font-family="Times New Roman"><tspan y="-760.68" x="362.47"> </tspan></text>
<text xml:space="preserve" transform="matrix(1 0 -0 1 0 841.92)" font-size="12" font-family="Times New Roman"><tspan y="-760.68" x="367.15 373.15 379.15 384.43 389.818">uk&#x00e1;&#x017e;&#x00ed;</tspan></text>
<text xml:space="preserve" transform="matrix(1 0 -0 1 0 841.92)" font-size="12" font-family="Times New Roman"><tspan y="-760.68" x="393.19"> </tspan></text>
<text xml:space="preserve" transform="matrix(1 0 -0 1 0 841.92)" font-size="12" font-family="Times New Roman"><tspan y="-760.68" x="397.87 403.87 409.15 412.486 417.814 423.178 426.514 430.006">n&#x00e1;le&#x017e;it&#x00fd;</tspan></text>
<text xml:space="preserve" transform="matrix(1 0 -0 1 0 841.92)" font-size="12" font-family="Times New Roman"><tspan y="-760.68" x="435.79"> </tspan></text>
<text xml:space="preserve" transform="matrix(1 0 -0 1 0 841.92)" font-size="12" font-family="Times New Roman"><tspan y="-760.68" x="440.47 444.466 449.71 454.378 460.378 465.706 471.706">respekt</tspan></text>
<text xml:space="preserve" transform="matrix(1 0 -0 1 0 841.92)" font-size="12" font-family="Times New Roman"><tspan y="-760.68" x="475.06"> </tspan></text>
<text xml:space="preserve" transform="matrix(1 0 -0 1 0 841.92)" font-size="12" font-family="Times New Roman"><tspan y="-760.68" x="479.74">a</tspan></text>
<text xml:space="preserve" transform="matrix(1 0 -0 1 0 841.92)" font-size="12" font-family="Times New Roman"><tspan y="-760.68" x="485.02"> </tspan></text>
<text xml:space="preserve" transform="matrix(1 0 -0 1 0 841.92)" font-size="12" font-family="Times New Roman"><tspan y="-760.68" x="489.7 495.7 500.98 504.316">&#x00fa;ctu</tspan></text>
<text xml:space="preserve" transform="matrix(1 0 -0 1 0 841.92)" font-size="12" font-family="Times New Roman"><tspan y="-760.68" x="510.34"> </tspan></text>
<text xml:space="preserve" transform="matrix(1 0 -0 1 0 841.92)" font-size="12" font-family="Times New Roman"><tspan y="-760.68" x="513.34"> </tspan></text>
<text xml:space="preserve" transform="matrix(1 0 -0 1 0 841.92)" font-size="12" font-family="Times New Roman"><tspan y="-746.86" x="85.104">k</tspan></text>
<text xml:space="preserve" transform="matrix(1 0 -0 1 0 841.92)" font-size="12" font-family="Times New Roman"><tspan y="-746.86" x="91.104"> </tspan></text>
<text xml:space="preserve" transform="matrix(1 0 -0 1 0 841.92)" font-size="12" font-family="Times New Roman"><tspan y="-746.86" x="94.824 98.159999 104.159999 113.532 119.532">tomu,</tspan></text>
<text xml:space="preserve" transform="matrix(1 0 -0 1 0 841.92)" font-size="12" font-family="Times New Roman"><tspan y="-746.86" x="122.54"> </tspan></text>
<text xml:space="preserve" transform="matrix(1 0 -0 1 0 841.92)" font-size="12" font-family="Times New Roman"><tspan y="-746.86" x="126.14 129.476 134.804">jak</tspan></text>
<text xml:space="preserve" transform="matrix(1 0 -0 1 0 841.92)" font-size="12" font-family="Times New Roman"><tspan y="-746.86" x="140.78"> </tspan></text>
<text xml:space="preserve" transform="matrix(1 0 -0 1 0 841.92)" font-size="12" font-family="Times New Roman"><tspan y="-746.86" x="144.5 149.18">se</tspan></text>
<text xml:space="preserve" transform="matrix(1 0 -0 1 0 841.92)" font-size="12" font-family="Times New Roman"><tspan y="-746.86" x="154.46"> </tspan></text>
<text xml:space="preserve" transform="matrix(1 0 -0 1 0 841.92)" font-size="12" font-family="Times New Roman"><tspan y="-746.86" x="158.18 166.844 172.09999 176.096">Dafa</tspan></text>
<text xml:space="preserve" transform="matrix(1 0 -0 1 0 841.92)" font-size="12" font-family="Times New Roman"><tspan y="-746.86" x="181.34"> </tspan></text>
<text xml:space="preserve" transform="matrix(1 0 -0 1 0 841.92)" font-size="12" font-family="Times New Roman"><tspan y="-746.86" x="185.06">v</tspan></text>
<text xml:space="preserve" transform="matrix(1 0 -0 1 0 841.92)" font-size="12" font-family="Times New Roman"><tspan y="-746.86" x="191.09"> </tspan></text>
<text xml:space="preserve" transform="matrix(1 0 -0 1 0 841.92)" font-size="12" font-family="Times New Roman"><tspan y="-746.86" x="194.81 198.146 204.05 213.386 216.758">tomto</tspan></text>
<text xml:space="preserve" transform="matrix(1 0 -0 1 0 841.92)" font-size="12" font-family="Times New Roman"><tspan y="-746.86" x="222.77"> </tspan></text>
<text xml:space="preserve" transform="matrix(1 0 -0 1 0 841.92)" font-size="12" font-family="Times New Roman"><tspan y="-746.86" x="226.49 231.158 237.158 242.48601 245.822">sv&#x011b;t&#x011b;</tspan></text>
<text xml:space="preserve" transform="matrix(1 0 -0 1 0 841.92)" font-size="12" font-family="Times New Roman"><tspan y="-746.86" x="251.09"> </tspan></text>
<text xml:space="preserve" transform="matrix(1 0 -0 1 0 841.92)" font-size="12" font-family="Times New Roman"><tspan y="-746.86" x="254.81 260.81 264.77 270.77 274.106 279.434 285.434 291.434 294.77 300.05">projevuje,</tspan></text>
<text xml:space="preserve" transform="matrix(1 0 -0 1 0 841.92)" font-size="12" font-family="Times New Roman"><tspan y="-746.86" x="303.05"> </tspan></text>
<text xml:space="preserve" transform="matrix(1 0 -0 1 0 841.92)" font-size="12" font-family="Times New Roman"><tspan y="-746.86" x="306.77 312.77 318.77 322.106">oni,</tspan></text>
<text xml:space="preserve" transform="matrix(1 0 -0 1 0 841.92)" font-size="12" font-family="Times New Roman"><tspan y="-746.86" x="325.03"> </tspan></text>
<text xml:space="preserve" transform="matrix(1 0 -0 1 0 841.92)" font-size="12" font-family="Times New Roman"><tspan y="-746.86" x="328.75 332.086 337.414 340.75 344.086 349.414">jejich</tspan></text>
<text xml:space="preserve" transform="matrix(1 0 -0 1 0 841.92)" font-size="12" font-family="Times New Roman"><tspan y="-746.86" x="355.39"> </tspan></text>
<text xml:space="preserve" transform="matrix(1 0 -0 1 0 841.92)" font-size="12" font-family="Times New Roman"><tspan y="-746.86" x="359.11 363.106 368.34999 373.01799">rasa</tspan></text>
<text xml:space="preserve" transform="matrix(1 0 -0 1 0 841.92)" font-size="12" font-family="Times New Roman"><tspan y="-746.86" x="378.31"> </tspan></text>
<text xml:space="preserve" transform="matrix(1 0 -0 1 0 841.92)" font-size="12" font-family="Times New Roman"><tspan y="-746.86" x="382.03 388.03 393.31 399.31">nebo</tspan></text>
<text xml:space="preserve" transform="matrix(1 0 -0 1 0 841.92)" font-size="12" font-family="Times New Roman"><tspan y="-746.86" x="405.31"> </tspan></text>
<text xml:space="preserve" transform="matrix(1 0 -0 1 0 841.92)" font-size="12" font-family="Times New Roman"><tspan y="-746.86" x="409.03 415.03 420.31 424.306 430.306 436.306">n&#x00e1;rod,</tspan></text>
<text xml:space="preserve" transform="matrix(1 0 -0 1 0 841.92)" font-size="12" font-family="Times New Roman"><tspan y="-746.86" x="439.27"> </tspan></text>
<text xml:space="preserve" transform="matrix(1 0 -0 1 0 841.92)" font-size="12" font-family="Times New Roman"><tspan y="-746.86" x="442.99 447.66999">se</tspan></text>
<text xml:space="preserve" transform="matrix(1 0 -0 1 0 841.92)" font-size="12" font-family="Times New Roman"><tspan y="-746.86" x="452.98"> </tspan></text>
<text xml:space="preserve" transform="matrix(1 0 -0 1 0 841.92)" font-size="12" font-family="Times New Roman"><tspan y="-746.86" x="456.7 462.7 468.7 474.7 480.7">budou</tspan></text>
<text xml:space="preserve" transform="matrix(1 0 -0 1 0 841.92)" font-size="12" font-family="Times New Roman"><tspan y="-746.86" x="486.7"> </tspan></text>
<text xml:space="preserve" transform="matrix(1 0 -0 1 0 841.92)" font-size="12" font-family="Times New Roman"><tspan y="-746.86" x="490.42 493.756 499.084 503.752 507.088">t&#x011b;&#x0161;it</tspan></text>
<text xml:space="preserve" transform="matrix(1 0 -0 1 0 841.92)" font-size="12" font-family="Times New Roman"><tspan y="-746.86" x="510.34"> </tspan></text>
<text xml:space="preserve" transform="matrix(1 0 -0 1 0 841.92)" font-size="12" font-family="Times New Roman"><tspan y="-733.06" x="85.104 91.104 97.104 102.492 107.772 113.772 119.772 125.05201 131.052">po&#x017e;ehn&#x00e1;n&#x00ed;</tspan></text>
<text xml:space="preserve" transform="matrix(1 0 -0 1 0 841.92)" font-size="12" font-family="Times New Roman"><tspan y="-733.06" x="134.42"> </tspan></text>
<text xml:space="preserve" transform="matrix(1 0 -0 1 0 841.92)" font-size="12" font-family="Times New Roman"><tspan y="-733.06" x="138.14 143.42 149.42 154.7 160.7">anebo</tspan></text>
<text xml:space="preserve" transform="matrix(1 0 -0 1 0 841.92)" font-size="12" font-family="Times New Roman"><tspan y="-733.06" x="166.82"> </tspan></text>
<text xml:space="preserve" transform="matrix(1 0 -0 1 0 841.92)" font-size="12" font-family="Times New Roman"><tspan y="-733.06" x="170.54 176.54 182.54 187.81999 191.15599 196.484">poct&#x011b;.</tspan></text>
<text xml:space="preserve" transform="matrix(1 0 -0 1 0 841.92)" font-size="12" font-family="Times New Roman"><tspan y="-733.06" x="199.61"> </tspan></text>
<text xml:space="preserve" transform="matrix(1 0 -0 1 0 841.92)" font-size="12" font-family="Times New Roman"><tspan y="-733.06" x="203.45 211.59799 217.23799">Byl</tspan></text>
<text xml:space="preserve" transform="matrix(1 0 -0 1 0 841.92)" font-size="12" font-family="Times New Roman"><tspan y="-733.06" x="220.73"> </tspan></text>
<text xml:space="preserve" transform="matrix(1 0 -0 1 0 841.92)" font-size="12" font-family="Times New Roman"><tspan y="-733.06" x="224.45 227.81">to</tspan></text>
<text xml:space="preserve" transform="matrix(1 0 -0 1 0 841.92)" font-size="12" font-family="Times New Roman"><tspan y="-733.06" x="233.81"> </tspan></text>
<text xml:space="preserve" transform="matrix(1 0 -0 1 0 841.92)" font-size="12" font-family="Times New Roman"><tspan y="-733.06" x="237.53 246.278 251.558 255.554">Dafa</tspan></text>
<text xml:space="preserve" transform="matrix(1 0 -0 1 0 841.92)" font-size="12" font-family="Times New Roman"><tspan y="-733.06" x="260.93"> </tspan></text>
<text xml:space="preserve" transform="matrix(1 0 -0 1 0 841.92)" font-size="12" font-family="Times New Roman"><tspan y="-733.06" x="264.65">&#x2013;</tspan></text>
<text xml:space="preserve" transform="matrix(1 0 -0 1 0 841.92)" font-size="12" font-family="Times New Roman"><tspan y="-733.06" x="270.65"> </tspan></text>
<text xml:space="preserve" transform="matrix(1 0 -0 1 0 841.92)" font-size="12" font-family="Times New Roman"><tspan y="-733.06" x="274.37 283.118 288.398 291.734 297.98603">Velk&#x00fd;</tspan></text>
<text xml:space="preserve" transform="matrix(1 0 -0 1 0 841.92)" font-size="12" font-family="Times New Roman"><tspan y="-733.06" x="303.77"> </tspan></text>
<text xml:space="preserve" transform="matrix(1 0 -0 1 0 841.92)" font-size="12" font-family="Times New Roman"><tspan y="-733.06" x="307.61 314.81 320.09 326.198 332.198">Z&#x00e1;kon</tspan></text>
<text xml:space="preserve" transform="matrix(1 0 -0 1 0 841.92)" font-size="12" font-family="Times New Roman"><tspan y="-733.06" x="338.23"> </tspan></text>
<text xml:space="preserve" transform="matrix(1 0 -0 1 0 841.92)" font-size="12" font-family="Times New Roman"><tspan y="-733.06" x="341.95 347.95 353.23 357.898 367.234 370.618 374.614">vesm&#x00ed;ru</tspan></text>
<text xml:space="preserve" transform="matrix(1 0 -0 1 0 841.92)" font-size="12" font-family="Times New Roman"><tspan y="-733.06" x="380.59"> </tspan></text>
<text xml:space="preserve" transform="matrix(1 0 -0 1 0 841.92)" font-size="12" font-family="Times New Roman"><tspan y="-733.06" x="384.31">&#x2013;</tspan></text>
<text xml:space="preserve" transform="matrix(1 0 -0 1 0 841.92)" font-size="12" font-family="Times New Roman"><tspan y="-733.06" x="390.31"> </tspan></text>
<text xml:space="preserve" transform="matrix(1 0 -0 1 0 841.92)" font-size="12" font-family="Times New Roman"><tspan y="-733.06" x="394.03 400.03 403.498 408.77799 412.96598">kter&#x00fd;</tspan></text>
<text xml:space="preserve" transform="matrix(1 0 -0 1 0 841.92)" font-size="12" font-family="Times New Roman"><tspan y="-733.06" x="418.75"> </tspan></text>
<text xml:space="preserve" transform="matrix(1 0 -0 1 0 841.92)" font-size="12" font-family="Times New Roman"><tspan y="-733.06" x="422.47 428.698 434.458 437.794 443.926 449.926 453.886 457.222">vytvo&#x0159;il</tspan></text>
<text xml:space="preserve" transform="matrix(1 0 -0 1 0 841.92)" font-size="12" font-family="Times New Roman"><tspan y="-733.06" x="460.66"> </tspan></text>
<text xml:space="preserve" transform="matrix(1 0 -0 1 0 841.92)" font-size="12" font-family="Times New Roman"><tspan y="-733.06" x="464.38 470.38 476.38 481.048 490.408 493.744 499.072 505.072">kosmick&#x00e9;</tspan></text>
<text xml:space="preserve" transform="matrix(1 0 -0 1 0 841.92)" font-size="12" font-family="Times New Roman"><tspan y="-733.06" x="510.34"> </tspan></text>
<text xml:space="preserve" transform="matrix(1 0 -0 1 0 841.92)" font-size="12" font-family="Times New Roman"><tspan y="-719.26" x="85.104 88.439998 93.768 97.104 103.104">t&#x011b;lo,</tspan></text>
<text xml:space="preserve" transform="matrix(1 0 -0 1 0 841.92)" font-size="12" font-family="Times New Roman"><tspan y="-719.26" x="106.1"> </tspan></text>
<text xml:space="preserve" transform="matrix(1 0 -0 1 0 841.92)" font-size="12" font-family="Times New Roman"><tspan y="-719.26" x="109.7 115.7 120.98 125.648 134.98401 138.36801 142.36402">vesm&#x00ed;r,</tspan></text>
<text xml:space="preserve" transform="matrix(1 0 -0 1 0 841.92)" font-size="12" font-family="Times New Roman"><tspan y="-719.26" x="145.34"> </tspan></text>
<text xml:space="preserve" transform="matrix(1 0 -0 1 0 841.92)" font-size="12" font-family="Times New Roman"><tspan y="-719.26" x="148.94 154.328 157.664 163.664 169.664">&#x017e;ivot</tspan></text>
<text xml:space="preserve" transform="matrix(1 0 -0 1 0 841.92)" font-size="12" font-family="Times New Roman"><tspan y="-719.26" x="173.06"> </tspan></text>
<text xml:space="preserve" transform="matrix(1 0 -0 1 0 841.92)" font-size="12" font-family="Times New Roman"><tspan y="-719.26" x="176.66">a</tspan></text>
<text xml:space="preserve" transform="matrix(1 0 -0 1 0 841.92)" font-size="12" font-family="Times New Roman"><tspan y="-719.26" x="181.94"> </tspan></text>
<text xml:space="preserve" transform="matrix(1 0 -0 1 0 841.92)" font-size="12" font-family="Times New Roman"><tspan y="-719.26" x="185.54 191.54 196.81999 201.48799 207.48799 212.816 216.73999">ve&#x0161;ker&#x00e1;</tspan></text>
<text xml:space="preserve" transform="matrix(1 0 -0 1 0 841.92)" font-size="12" font-family="Times New Roman"><tspan y="-719.26" x="222.05"> </tspan></text>
<text xml:space="preserve" transform="matrix(1 0 -0 1 0 841.92)" font-size="12" font-family="Times New Roman"><tspan y="-719.26" x="225.65 230.318 233.65399 239.65399 245.65399 249.65 254.93 260.93">stvo&#x0159;en&#x00ed;</tspan></text>
<text xml:space="preserve" transform="matrix(1 0 -0 1 0 841.92)" font-size="12" font-family="Times New Roman"><tspan y="-719.26" x="264.29"> </tspan></text>
<text xml:space="preserve" transform="matrix(1 0 -0 1 0 841.92)" font-size="12" font-family="Times New Roman"><tspan y="-719.26" x="267.89 272.558 278.558 283.88603 287.22203 293.22203">sv&#x011b;t&#x016f;.</tspan></text>
<text xml:space="preserve" transform="matrix(1 0 -0 1 0 841.92)" font-size="12" font-family="Times New Roman"><tspan y="-719.26" x="296.21"> </tspan></text>
<text xml:space="preserve" transform="matrix(1 0 -0 1 0 841.92)" font-size="12" font-family="Times New Roman"><tspan y="-719.26" x="299.93 304.718 309.998 316.106 321.866 327.974 333.974 337.31">Jak&#x00fd;koli</tspan></text>
<text xml:space="preserve" transform="matrix(1 0 -0 1 0 841.92)" font-size="12" font-family="Times New Roman"><tspan y="-719.26" x="340.75"> </tspan></text>
<text xml:space="preserve" transform="matrix(1 0 -0 1 0 841.92)" font-size="12" font-family="Times New Roman"><tspan y="-719.26" x="344.35 349.738 353.074 359.074 364.978 368.314">&#x017e;ivot,</tspan></text>
<text xml:space="preserve" transform="matrix(1 0 -0 1 0 841.92)" font-size="12" font-family="Times New Roman"><tspan y="-719.26" x="371.35"> </tspan></text>
<text xml:space="preserve" transform="matrix(1 0 -0 1 0 841.92)" font-size="12" font-family="Times New Roman"><tspan y="-719.26" x="374.83 380.83 384.166 389.494 393.658">kter&#x00fd;</tspan></text>
<text xml:space="preserve" transform="matrix(1 0 -0 1 0 841.92)" font-size="12" font-family="Times New Roman"><tspan y="-719.26" x="399.55"> </tspan></text>
<text xml:space="preserve" transform="matrix(1 0 -0 1 0 841.92)" font-size="12" font-family="Times New Roman"><tspan y="-719.26" x="403.15 407.83">se</tspan></text>
<text xml:space="preserve" transform="matrix(1 0 -0 1 0 841.92)" font-size="12" font-family="Times New Roman"><tspan y="-719.26" x="413.11"> </tspan></text>
<text xml:space="preserve" transform="matrix(1 0 -0 1 0 841.92)" font-size="12" font-family="Times New Roman"><tspan y="-719.26" x="416.71 422.71">od</tspan></text>
<text xml:space="preserve" transform="matrix(1 0 -0 1 0 841.92)" font-size="12" font-family="Times New Roman"><tspan y="-719.26" x="428.71"> </tspan></text>
<text xml:space="preserve" transform="matrix(1 0 -0 1 0 841.92)" font-size="12" font-family="Times New Roman"><tspan y="-719.26" x="432.31 440.974 446.23 450.298">Dafa</tspan></text>
<text xml:space="preserve" transform="matrix(1 0 -0 1 0 841.92)" font-size="12" font-family="Times New Roman"><tspan y="-719.26" x="455.62"> </tspan></text>
<text xml:space="preserve" transform="matrix(1 0 -0 1 0 841.92)" font-size="12" font-family="Times New Roman"><tspan y="-719.26" x="459.22 465.22 471.22 477.22 481.216 486.46 491.74 495.076">odvrac&#x00ed;,</tspan></text>
<text xml:space="preserve" transform="matrix(1 0 -0 1 0 841.92)" font-size="12" font-family="Times New Roman"><tspan y="-719.26" x="498.1"> </tspan></text>
<text xml:space="preserve" transform="matrix(1 0 -0 1 0 841.92)" font-size="12" font-family="Times New Roman"><tspan y="-719.26" x="501.7 505.06">je</tspan></text>
<text xml:space="preserve" transform="matrix(1 0 -0 1 0 841.92)" font-size="12" font-family="Times New Roman"><tspan y="-719.26" x="510.34"> </tspan></text>
<text xml:space="preserve" transform="matrix(1 0 -0 1 0 841.92)" font-size="12" font-family="Times New Roman"><tspan y="-705.46" x="85.104 91.104 95.771999 101.771999 107.771999 111.131999 117.131999">vskutku</tspan></text>
<text xml:space="preserve" transform="matrix(1 0 -0 1 0 841.92)" font-size="12" font-family="Times New Roman"><tspan y="-705.46" x="123.14"> </tspan></text>
<text xml:space="preserve" transform="matrix(1 0 -0 1 0 841.92)" font-size="12" font-family="Times New Roman"><tspan y="-705.46" x="127.1 132.48799 138.48799 143.76799 149.15599 154.43599 160.54399">zka&#x017e;en&#x00fd;</tspan></text>
<text xml:space="preserve" transform="matrix(1 0 -0 1 0 841.92)" font-size="12" font-family="Times New Roman"><tspan y="-705.46" x="166.46">.</tspan></text>
<text xml:space="preserve" transform="matrix(1 0 -0 1 0 841.92)" font-size="12" font-family="Times New Roman"><tspan y="-705.46" x="169.46"> </tspan></text>
<text xml:space="preserve" transform="matrix(1 0 -0 1 0 841.92)" font-size="12" font-family="Times New Roman"><tspan y="-705.46" x="173.42 182.084 187.34 192.728 198.836">Ka&#x017e;d&#x00fd;</tspan></text>
<text xml:space="preserve" transform="matrix(1 0 -0 1 0 841.92)" font-size="12" font-family="Times New Roman"><tspan y="-705.46" x="204.77"> </tspan></text>
<text xml:space="preserve" transform="matrix(1 0 -0 1 0 841.92)" font-size="12" font-family="Times New Roman"><tspan y="-705.46" x="208.85 214.13 217.466 223.466 229.466 234.794 240.794">&#x010d;lov&#x011b;k,</tspan></text>
<text xml:space="preserve" transform="matrix(1 0 -0 1 0 841.92)" font-size="12" font-family="Times New Roman"><tspan y="-705.46" x="243.77"> </tspan></text>
<text xml:space="preserve" transform="matrix(1 0 -0 1 0 841.92)" font-size="12" font-family="Times New Roman"><tspan y="-705.46" x="247.85 253.85 257.186 262.514 266.558">kter&#x00fd;</tspan></text>
<text xml:space="preserve" transform="matrix(1 0 -0 1 0 841.92)" font-size="12" font-family="Times New Roman"><tspan y="-705.46" x="272.45"> </tspan></text>
<text xml:space="preserve" transform="matrix(1 0 -0 1 0 841.92)" font-size="12" font-family="Times New Roman"><tspan y="-705.46" x="276.53 281.21">se</tspan></text>
<text xml:space="preserve" transform="matrix(1 0 -0 1 0 841.92)" font-size="12" font-family="Times New Roman"><tspan y="-705.46" x="286.49"> </tspan></text>
<text xml:space="preserve" transform="matrix(1 0 -0 1 0 841.92)" font-size="12" font-family="Times New Roman"><tspan y="-705.46" x="290.57 296.57 302.57 308.57 313.85 319.238">dok&#x00e1;&#x017e;e</tspan></text>
<text xml:space="preserve" transform="matrix(1 0 -0 1 0 841.92)" font-size="12" font-family="Times New Roman"><tspan y="-705.46" x="324.55"> </tspan></text>
<text xml:space="preserve" transform="matrix(1 0 -0 1 0 841.92)" font-size="12" font-family="Times New Roman"><tspan y="-705.46" x="328.63 337.294 342.55003 346.54603">Dafa</tspan></text>
<text xml:space="preserve" transform="matrix(1 0 -0 1 0 841.92)" font-size="12" font-family="Times New Roman"><tspan y="-705.46" x="351.79"> </tspan></text>
<text xml:space="preserve" transform="matrix(1 0 -0 1 0 841.92)" font-size="12" font-family="Times New Roman"><tspan y="-705.46" x="355.87 361.87 365.83 369.166 374.578 380.578 386.578 391.246 397.246 403.246">p&#x0159;izp&#x016f;sobi</tspan></text>
<text xml:space="preserve" transform="matrix(1 0 -0 1 0 841.92)" font-size="12" font-family="Times New Roman"><tspan y="-705.46" x="406.63 409.99">t,</tspan></text>
<text xml:space="preserve" transform="matrix(1 0 -0 1 0 841.92)" font-size="12" font-family="Times New Roman"><tspan y="-705.46" x="412.99"> </tspan></text>
<text xml:space="preserve" transform="matrix(1 0 -0 1 0 841.92)" font-size="12" font-family="Times New Roman"><tspan y="-705.46" x="417.07 420.43">je</tspan></text>
<text xml:space="preserve" transform="matrix(1 0 -0 1 0 841.92)" font-size="12" font-family="Times New Roman"><tspan y="-705.46" x="425.71"> </tspan></text>
<text xml:space="preserve" transform="matrix(1 0 -0 1 0 841.92)" font-size="12" font-family="Times New Roman"><tspan y="-705.46" x="429.79 435.79 441.79 445.63 450.91 456.91 462.91">opravdu</tspan></text>
<text xml:space="preserve" transform="matrix(1 0 -0 1 0 841.92)" font-size="12" font-family="Times New Roman"><tspan y="-705.46" x="468.94"> </tspan></text>
<text xml:space="preserve" transform="matrix(1 0 -0 1 0 841.92)" font-size="12" font-family="Times New Roman"><tspan y="-705.46" x="473.02 479.02 485.02 491.02 495.08799 500.848">dobr&#x00fd;m</tspan></text>
<text xml:space="preserve" transform="matrix(1 0 -0 1 0 841.92)" font-size="12" font-family="Times New Roman"><tspan y="-705.46" x="510.34"> </tspan></text>
<text xml:space="preserve" transform="matrix(1 0 -0 1 0 841.92)" font-size="12" font-family="Times New Roman"><tspan y="-691.66" x="85.104 90.384 93.72 99.72 105.72 111.048007 117.048007 122.30401">&#x010d;lov&#x011b;kem</tspan></text>
<text xml:space="preserve" transform="matrix(1 0 -0 1 0 841.92)" font-size="12" font-family="Times New Roman"><tspan y="-691.66" x="131.66"> </tspan></text>
<text xml:space="preserve" transform="matrix(1 0 -0 1 0 841.92)" font-size="12" font-family="Times New Roman"><tspan y="-691.66" x="134.9">a</tspan></text>
<text xml:space="preserve" transform="matrix(1 0 -0 1 0 841.92)" font-size="12" font-family="Times New Roman"><tspan y="-691.66" x="140.18"> </tspan></text>
<text xml:space="preserve" transform="matrix(1 0 -0 1 0 841.92)" font-size="12" font-family="Times New Roman"><tspan y="-691.66" x="143.3 149.3 155.3 161.3">bude</tspan></text>
<text xml:space="preserve" transform="matrix(1 0 -0 1 0 841.92)" font-size="12" font-family="Times New Roman"><tspan y="-691.66" x="166.7"> </tspan></text>
<text xml:space="preserve" transform="matrix(1 0 -0 1 0 841.92)" font-size="12" font-family="Times New Roman"><tspan y="-691.66" x="169.82 175.82 181.82 191.156 196.48401 202.48401 207.848">odm&#x011b;n&#x011b;n</tspan></text>
<text xml:space="preserve" transform="matrix(1 0 -0 1 0 841.92)" font-size="12" font-family="Times New Roman"><tspan y="-691.66" x="213.89"> </tspan></text>
<text xml:space="preserve" transform="matrix(1 0 -0 1 0 841.92)" font-size="12" font-family="Times New Roman"><tspan y="-691.66" x="217.01">a</tspan></text>
<text xml:space="preserve" transform="matrix(1 0 -0 1 0 841.92)" font-size="12" font-family="Times New Roman"><tspan y="-691.66" x="222.29"> </tspan></text>
<text xml:space="preserve" transform="matrix(1 0 -0 1 0 841.92)" font-size="12" font-family="Times New Roman"><tspan y="-691.66" x="225.41 231.41 237.41 242.798 248.078 254.078 260.078 265.358">po&#x017e;ehn&#x00e1;n</tspan></text>
<text xml:space="preserve" transform="matrix(1 0 -0 1 0 841.92)" font-size="12" font-family="Times New Roman"><tspan y="-691.66" x="271.49"> </tspan></text>
<text xml:space="preserve" transform="matrix(1 0 -0 1 0 841.92)" font-size="12" font-family="Times New Roman"><tspan y="-691.66" x="274.61 279.998 285.998 289.95799 295.23799 301.23799 304.57398">zdrav&#x00ed;m</tspan></text>
<text xml:space="preserve" transform="matrix(1 0 -0 1 0 841.92)" font-size="12" font-family="Times New Roman"><tspan y="-691.66" x="313.97"> </tspan></text>
<text xml:space="preserve" transform="matrix(1 0 -0 1 0 841.92)" font-size="12" font-family="Times New Roman"><tspan y="-691.66" x="317.11">a</tspan></text>
<text xml:space="preserve" transform="matrix(1 0 -0 1 0 841.92)" font-size="12" font-family="Times New Roman"><tspan y="-691.66" x="322.51"> </tspan></text>
<text xml:space="preserve" transform="matrix(1 0 -0 1 0 841.92)" font-size="12" font-family="Times New Roman"><tspan y="-691.66" x="325.63 330.298 333.634 338.962 343.63 346.966 350.338 359.674">&#x0161;t&#x011b;st&#x00ed;m.</tspan></text>
<text xml:space="preserve" transform="matrix(1 0 -0 1 0 841.92)" font-size="12" font-family="Times New Roman"><tspan y="-691.66" x="362.71"> </tspan></text>
<text xml:space="preserve" transform="matrix(1 0 -0 1 0 841.92)" font-size="12" font-family="Times New Roman"><tspan y="-691.66" x="365.83">A</tspan></text>
<text xml:space="preserve" transform="matrix(1 0 -0 1 0 841.92)" font-size="12" font-family="Times New Roman"><tspan y="-691.66" x="374.47"> </tspan></text>
<text xml:space="preserve" transform="matrix(1 0 -0 1 0 841.92)" font-size="12" font-family="Times New Roman"><tspan y="-691.66" x="377.59 383.59 386.926 392.254 396.418 402.178 408.178 414.178 417.514 420.88603">kter&#x00fd;koliv</tspan></text>
<text xml:space="preserve" transform="matrix(1 0 -0 1 0 841.92)" font-size="12" font-family="Times New Roman"><tspan y="-691.66" x="427.03"> </tspan></text>
<text xml:space="preserve" transform="matrix(1 0 -0 1 0 841.92)" font-size="12" font-family="Times New Roman"><tspan y="-691.66" x="430.15 436.15 442.15 445.486 448.858 452.098 458.098 464.098 467.434 470.806 476.086 479.422">kultivuj&#x00ed;c&#x00ed;,</tspan></text>
<text xml:space="preserve" transform="matrix(1 0 -0 1 0 841.92)" font-size="12" font-family="Times New Roman"><tspan y="-691.66" x="482.5"> </tspan></text>
<text xml:space="preserve" transform="matrix(1 0 -0 1 0 841.92)" font-size="12" font-family="Times New Roman"><tspan y="-691.66" x="485.62 491.62 494.956 500.284 504.448">kter&#x00fd;</tspan></text>
<text xml:space="preserve" transform="matrix(1 0 -0 1 0 841.92)" font-size="12" font-family="Times New Roman"><tspan y="-691.66" x="510.34"> </tspan></text>
<text xml:space="preserve" transform="matrix(1 0 -0 1 0 841.92)" font-size="12" font-family="Times New Roman"><tspan y="-677.86" x="85.104 88.464">je</tspan></text>
<text xml:space="preserve" transform="matrix(1 0 -0 1 0 841.92)" font-size="12" font-family="Times New Roman"><tspan y="-677.86" x="93.744"> </tspan></text>
<text xml:space="preserve" transform="matrix(1 0 -0 1 0 841.92)" font-size="12" font-family="Times New Roman"><tspan y="-677.86" x="96.744 101.412 106.704 112.704 118.704 124.704 129.984">schopen</tspan></text>
<text xml:space="preserve" transform="matrix(1 0 -0 1 0 841.92)" font-size="12" font-family="Times New Roman"><tspan y="-677.86" x="135.98"> </tspan></text>
<text xml:space="preserve" transform="matrix(1 0 -0 1 0 841.92)" font-size="12" font-family="Times New Roman"><tspan y="-677.86" x="138.98 143.66">se</tspan></text>
<text xml:space="preserve" transform="matrix(1 0 -0 1 0 841.92)" font-size="12" font-family="Times New Roman"><tspan y="-677.86" x="148.94"> </tspan></text>
<text xml:space="preserve" transform="matrix(1 0 -0 1 0 841.92)" font-size="12" font-family="Times New Roman"><tspan y="-677.86" x="151.94">s</tspan></text>
<text xml:space="preserve" transform="matrix(1 0 -0 1 0 841.92)" font-size="12" font-family="Times New Roman"><tspan y="-677.86" x="156.62"> </tspan></text>
<text xml:space="preserve" transform="matrix(1 0 -0 1 0 841.92)" font-size="12" font-family="Times New Roman"><tspan y="-677.86" x="159.62 168.368 173.648 177.644">Dafa</tspan></text>
<text xml:space="preserve" transform="matrix(1 0 -0 1 0 841.92)" font-size="12" font-family="Times New Roman"><tspan y="-677.86" x="182.9"> </tspan></text>
<text xml:space="preserve" transform="matrix(1 0 -0 1 0 841.92)" font-size="12" font-family="Times New Roman"><tspan y="-677.86" x="185.9 190.568 194.04799 199.32799 205.43599 211.43599 217.43599 220.77199 224.14398 227.47998">sjednotit,</tspan></text>
<text xml:space="preserve" transform="matrix(1 0 -0 1 0 841.92)" font-size="12" font-family="Times New Roman"><tspan y="-677.86" x="230.57"> </tspan></text>
<text xml:space="preserve" transform="matrix(1 0 -0 1 0 841.92)" font-size="12" font-family="Times New Roman"><tspan y="-677.86" x="233.57 236.93001">je</tspan></text>
<text xml:space="preserve" transform="matrix(1 0 -0 1 0 841.92)" font-size="12" font-family="Times New Roman"><tspan y="-677.86" x="242.21"> </tspan></text>
<text xml:space="preserve" transform="matrix(1 0 -0 1 0 841.92)" font-size="12" font-family="Times New Roman"><tspan y="-677.86" x="245.21 251.21 255.878 261.878 265.23799 270.51799 275.79798 281.90599 287.666">osv&#x00ed;cen&#x00fd;m</tspan></text>
<text xml:space="preserve" transform="matrix(1 0 -0 1 0 841.92)" font-size="12" font-family="Times New Roman"><tspan y="-677.86" x="297.17"> </tspan></text>
<text xml:space="preserve" transform="matrix(1 0 -0 1 0 841.92)" font-size="12" font-family="Times New Roman"><tspan y="-677.86" x="300.17">&#x2013;</tspan></text>
<text xml:space="preserve" transform="matrix(1 0 -0 1 0 841.92)" font-size="12" font-family="Times New Roman"><tspan y="-677.86" x="306.17"> </tspan></text>
<text xml:space="preserve" transform="matrix(1 0 -0 1 0 841.92)" font-size="12" font-family="Times New Roman"><tspan y="-677.86" x="309.17 315.17 321.17 327.17 332.45 341.786">bohem.</tspan></text>
<text xml:space="preserve" transform="matrix(1 0 -0 1 0 841.92)" font-size="12" font-family="Times New Roman"><tspan y="-677.86" x="344.83"> </tspan></text>
<text xml:space="preserve" transform="matrix(1 0 -0 1 0 841.92)" font-size="12" font-family="Times New Roman"><tspan y="-650.02" x="455.38 462.58003">Li</tspan></text>
<text xml:space="preserve" transform="matrix(1 0 -0 1 0 841.92)" font-size="12" font-family="Times New Roman"><tspan y="-650.02" x="465.94"> </tspan></text>
<text xml:space="preserve" transform="matrix(1 0 -0 1 0 841.92)" font-size="12" font-family="Times New Roman"><tspan y="-650.02" x="468.94 477.604 483.604 489.68803 495.56803 500.95603 506.95603">Hongzhi</tspan></text>
<text xml:space="preserve" transform="matrix(1 0 -0 1 0 841.92)" font-size="12" font-family="Times New Roman"><tspan y="-650.02" x="510.34"> </tspan></text>
<text xml:space="preserve" transform="matrix(1 0 -0 1 0 841.92)" font-size="12" font-family="Times New Roman"><tspan y="-636.22" x="433.27 439.27 445.27">24.</tspan></text>
<text xml:space="preserve" transform="matrix(1 0 -0 1 0 841.92)" font-size="12" font-family="Times New Roman"><tspan y="-636.22" x="448.3"> </tspan></text>
<text xml:space="preserve" transform="matrix(1 0 -0 1 0 841.92)" font-size="12" font-family="Times New Roman"><tspan y="-636.22" x="451.3 457.3 463.3 468.58 471.916 477.916">kv&#x011b;tna</tspan></text>
<text xml:space="preserve" transform="matrix(1 0 -0 1 0 841.92)" font-size="12" font-family="Times New Roman"><tspan y="-636.22" x="483.22"> </tspan></text>
<text xml:space="preserve" transform="matrix(1 0 -0 1 0 841.92)" font-size="12" font-family="Times New Roman"><tspan y="-636.22" x="486.22 492.22 498.22 504.22">2015</tspan></text>
<text xml:space="preserve" transform="matrix(1 0 -0 1 0 841.92)" font-size="12" font-family="Times New Roman"><tspan y="-636.22" x="510.34"> </tspan></text>
<text fill="#d9d9d9" xml:space="preserve" transform="matrix(1 0 -0 1 0 841.92)" font-size="12" font-family="Times New Roman"><tspan y="-608.38" x="85.104"> </tspan></text>
<text fill="#d9d9d9" xml:space="preserve" transform="matrix(1 0 -0 1 0 841.92)" font-size="12" font-family="Times New Roman"><tspan y="-594.58" x="85.104"> </tspan></text>
<text xml:space="preserve" transform="matrix(1 0 -0 1 0 841.92)" font-size="12" font-family="Times New Roman,Bold" font-weight="bold"><tspan y="-566.5" x="297.65"> </tspan></text>
<text xml:space="preserve" transform="matrix(1 0 -0 1 0 841.92)" font-size="12" font-family="Times New Roman,Bold" font-weight="bold"><tspan y="-538.75" x="297.65"> </tspan></text>
<text xml:space="preserve" transform="matrix(1 0 -0 1 0 841.92)" font-size="12" font-family="Times New Roman,Bold" font-weight="bold"><tspan y="-510.91" x="297.65"> </tspan></text>
<text xml:space="preserve" transform="matrix(1 0 -0 1 0 841.92)" font-size="12" font-family="Times New Roman,Bold" font-weight="bold"><tspan y="-483.19" x="297.65"> </tspan></text>
<text xml:space="preserve" transform="matrix(1 0 -0 1 0 841.92)" font-size="12" font-family="Times New Roman,Bold" font-weight="bold"><tspan y="-455.35" x="297.65"> </tspan></text>
<text xml:space="preserve" transform="matrix(1 0 -0 1 0 841.92)" font-size="12" font-family="Times New Roman,Bold" font-weight="bold"><tspan y="-427.51" x="297.65"> </tspan></text>
<text xml:space="preserve" transform="matrix(1 0 -0 1 0 841.92)" font-size="12" font-family="Times New Roman,Bold" font-weight="bold"><tspan y="-399.79" x="297.65"> </tspan></text>
<text xml:space="preserve" transform="matrix(1 0 -0 1 0 841.92)" font-size="12" font-family="Times New Roman,Bold" font-weight="bold"><tspan y="-371.95" x="297.65"> </tspan></text>
<text xml:space="preserve" transform="matrix(1 0 -0 1 0 841.92)" font-size="12" font-family="Times New Roman,Bold" font-weight="bold"><tspan y="-344.09" x="297.65"> </tspan></text>
<text xml:space="preserve" transform="matrix(1 0 -0 1 0 841.92)" font-size="12" font-family="Times New Roman,Bold" font-weight="bold"><tspan y="-316.37" x="297.65"> </tspan></text>
<text xml:space="preserve" transform="matrix(1 0 -0 1 0 841.92)" font-size="12" font-family="Times New Roman,Bold" font-weight="bold"><tspan y="-288.53" x="297.65"> </tspan></text>
<text xml:space="preserve" transform="matrix(1 0 -0 1 0 841.92)" font-size="12" font-family="Times New Roman,Bold" font-weight="bold"><tspan y="-260.69" x="297.65"> </tspan></text>
<text xml:space="preserve" transform="matrix(1 0 -0 1 0 841.92)" font-size="12" font-family="Times New Roman,Bold" font-weight="bold"><tspan y="-232.97" x="297.65"> </tspan></text>
<text xml:space="preserve" transform="matrix(1 0 -0 1 0 841.92)" font-size="12" font-family="Times New Roman,Bold" font-weight="bold"><tspan y="-205.13" x="297.65"> </tspan></text>
<text xml:space="preserve" transform="matrix(1 0 -0 1 0 841.92)" font-size="12" font-family="Times New Roman,Bold" font-weight="bold"><tspan y="-177.26" x="297.65"> </tspan></text>
<text xml:space="preserve" transform="matrix(1 0 -0 1 0 841.92)" font-size="12" font-family="Times New Roman,Bold" font-weight="bold"><tspan y="-149.54" x="297.65"> </tspan></text>
<text xml:space="preserve" transform="matrix(1 0 -0 1 0 841.92)" font-size="12" font-family="Times New Roman,Bold" font-weight="bold"><tspan y="-121.7" x="297.65"> </tspan></text>
</svg>
