<svg xmlns="http://www.w3.org/2000/svg" xmlns:xlink="http://www.w3.org/1999/xlink" xmlns:inkscape="http://www.inkscape.org/namespaces/inkscape" version="1.1" width="595.32" height="841.92" viewBox="0 0 595.32 841.92">
<text xml:space="preserve" transform="matrix(1 0 -0 1 0 841.92)" font-size="12" font-family="Times New Roman"><tspan y="-45.024" x="294.65">1</tspan></text>
<text xml:space="preserve" transform="matrix(1 0 -0 1 0 841.92)" font-size="12" font-family="Times New Roman"><tspan y="-45.024" x="300.65"> </tspan></text>
<text xml:space="preserve" transform="matrix(1 0 -0 1 0 841.92)" font-size="12" font-family="Times New Roman"><tspan y="-31.224" x="85.104"> </tspan></text>
<text xml:space="preserve" transform="matrix(1 0 -0 1 0 841.92)" font-size="48" font-family="Times New Roman,Bold" font-weight="bold"><tspan y="-740.5" x="297.65"> </tspan></text>
<text xml:space="preserve" transform="matrix(1 0 -0 1 0 841.92)" font-size="48" font-family="Times New Roman,Bold" font-weight="bold"><tspan y="-666.94" x="297.65"> </tspan></text>
<text xml:space="preserve" transform="matrix(1 0 -0 1 0 841.92)" font-size="50.04" font-family="Times New Roman,Bold" font-weight="bold"><tspan y="-591.58" x="114.98 148.35669 187.28781 223.41669 259.54557">ZHUAN</tspan></text>
<text xml:space="preserve" transform="matrix(1 0 -0 1 0 841.92)" font-size="50.04" font-family="Times New Roman,Bold" font-weight="bold"><tspan y="-591.58" x="295.61"> </tspan></text>
<text xml:space="preserve" transform="matrix(1 0 -0 1 0 841.92)" font-size="50.04" font-family="Times New Roman,Bold" font-weight="bold"><tspan y="-591.58" x="308.09 338.66444 374.7933 408.16999 444.29887">FALUN</tspan></text>
<text xml:space="preserve" transform="matrix(1 0 -0 1 0 841.92)" font-size="50.04" font-family="Times New Roman,Bold" font-weight="bold"><tspan y="-591.58" x="480.46"> </tspan></text>
<text xml:space="preserve" transform="matrix(1 0 -0 1 0 841.92)" font-size="26.04" font-family="Times New Roman"><tspan y="-538.15" x="176.3 195.10089 202.34001 213.90178 225.38542 236.94719 249.9672">Ot&#x00e1;&#x010d;en&#x00ed;</tspan></text>
<text xml:space="preserve" transform="matrix(1 0 -0 1 0 841.92)" font-size="26.04" font-family="Times New Roman"><tspan y="-538.15" x="257.21"> </tspan></text>
<text xml:space="preserve" transform="matrix(1 0 -0 1 0 841.92)" font-size="26.04" font-family="Times New Roman"><tspan y="-538.15" x="263.69 282.49089 295.51087 302.75 314.2076">Kolem</tspan></text>
<text xml:space="preserve" transform="matrix(1 0 -0 1 0 841.92)" font-size="26.04" font-family="Times New Roman"><tspan y="-538.15" x="334.39"> </tspan></text>
<text xml:space="preserve" transform="matrix(1 0 -0 1 0 841.92)" font-size="26.04" font-family="Times New Roman"><tspan y="-538.15" x="340.87 356.78044 368.3422 381.36219 394.48634 407.50633">Z&#x00e1;kona</tspan></text>
<text xml:space="preserve" transform="matrix(1 0 -0 1 0 841.92)" font-size="26.04" font-family="Times New Roman"><tspan y="-538.15" x="418.99"> </tspan></text>
<text xml:space="preserve" transform="matrix(1 0 -0 1 0 841.92)" font-size="26.04" font-family="Times New Roman,Bold" font-weight="bold"><tspan y="-493.51" x="297.65"> </tspan></text>
<text xml:space="preserve" transform="matrix(1 0 -0 1 0 841.92)" font-size="26.04" font-family="Times New Roman,Bold" font-weight="bold"><tspan y="-449.11" x="297.65"> </tspan></text>
<text xml:space="preserve" transform="matrix(1 0 -0 1 0 841.92)" font-size="26.04" font-family="Times New Roman,Bold" font-weight="bold"><tspan y="-404.71" x="235.25 252.64998">Li</tspan></text>
<text xml:space="preserve" transform="matrix(1 0 -0 1 0 841.92)" font-size="26.04" font-family="Times New Roman,Bold" font-weight="bold"><tspan y="-404.71" x="259.85"> </tspan></text>
<text xml:space="preserve" transform="matrix(1 0 -0 1 0 841.92)" font-size="26.04" font-family="Times New Roman,Bold" font-weight="bold"><tspan y="-404.71" x="266.33 286.5891 299.6091 314.08735 327.10734 338.56495 352.96507">Hongzhi</tspan></text>
<text xml:space="preserve" transform="matrix(1 0 -0 1 0 841.92)" font-size="26.04" font-family="Times New Roman"><tspan y="-404.71" x="360.19"> </tspan></text>
<text xml:space="preserve" transform="matrix(1 0 -0 1 0 841.92)" font-size="26.04" font-family="Times New Roman"><tspan y="-360.53" x="297.65"> </tspan></text>
<text xml:space="preserve" transform="matrix(1 0 -0 1 0 841.92)" font-size="26.04" font-family="Times New Roman"><tspan y="-316.13" x="297.65"> </tspan></text>
<text xml:space="preserve" transform="matrix(1 0 -0 1 0 841.92)" font-size="26.04" font-family="Times New Roman"><tspan y="-271.73" x="297.65"> </tspan></text>
<text xml:space="preserve" transform="matrix(1 0 -0 1 0 841.92)" font-size="26.04" font-family="Times New Roman"><tspan y="-227.45" x="297.65"> </tspan></text>
<text xml:space="preserve" transform="matrix(1 0 -0 1 0 841.92)" font-size="20.04" font-family="Times New Roman"><tspan y="-188.69" x="249.05 262.4167 271.25434 279.0499 289.10997 298.00773 302.91755 312.93754 321.8353 328.56874 337.4665">&#x010c;esk&#x00e1; verze</tspan></text>
<text xml:space="preserve" transform="matrix(1 0 -0 1 0 841.92)" font-size="20.04" font-family="Times New Roman"><tspan y="-188.69" x="346.27"> </tspan></text>
<text xml:space="preserve" transform="matrix(1 0 -0 1 0 841.92)" font-size="20.04" font-family="Times New Roman"><tspan y="-152.18" x="297.65"> </tspan></text>
<text xml:space="preserve" transform="matrix(1 0 -0 1 0 841.92)" font-size="20.04" font-family="Times New Roman"><tspan y="-115.7" x="216.89 228.03224 234.74565 243.64342 253.66342 259.23454 267.992">P&#x0159;eklad</tspan></text>
<text xml:space="preserve" transform="matrix(1 0 -0 1 0 841.92)" font-size="20.04" font-family="Times New Roman"><tspan y="-115.7" x="278.09"> </tspan></text>
<text xml:space="preserve" transform="matrix(1 0 -0 1 0 841.92)" font-size="20.04" font-family="Times New Roman"><tspan y="-115.7" x="283.13">z</tspan></text>
<text xml:space="preserve" transform="matrix(1 0 -0 1 0 841.92)" font-size="20.04" font-family="Times New Roman"><tspan y="-115.7" x="291.89"> </tspan></text>
<text xml:space="preserve" transform="matrix(1 0 -0 1 0 841.92)" font-size="20.04" font-family="Times New Roman"><tspan y="-115.7" x="296.93 303.52314 313.54313 323.5631">roku</tspan></text>
<text xml:space="preserve" transform="matrix(1 0 -0 1 0 841.92)" font-size="20.04" font-family="Times New Roman"><tspan y="-115.7" x="333.67"> </tspan></text>
<text xml:space="preserve" transform="matrix(1 0 -0 1 0 841.92)" font-size="20.04" font-family="Times New Roman"><tspan y="-115.7" x="338.59 348.61 358.62998 368.64997">2019</tspan></text>
<text xml:space="preserve" transform="matrix(1 0 -0 1 0 841.92)" font-size="20.04" font-family="Times New Roman"><tspan y="-115.7" x="378.55"> </tspan></text>
<path transform="matrix(1,0,0,-1,0,841.92)" d="M235.15-1.08H361.15V72.42H235.15Z" fill="#ffffff" fill-rule="evenodd"/>
</svg>
